SplineFontDB: 3.0
FontName: ProFontWindows
FullName: ProFontWindows
FamilyName: ProFontWindows
Weight: Book
Copyright: ProFont Distribution 2.2 - Generated by Fontographer 4.1.5
Version: Macromedia Fontographer 4.1.5 5/11/97
ItalicAngle: 0
UnderlinePosition: -75
UnderlineWidth: 50
Ascent: 720
Descent: 180
sfntRevision: 0x00010000
LayerCount: 2
Layer: 0 1 "Back"  1
Layer: 1 1 "Fore"  0
XUID: [1021 525 252644712 1886752]
FSType: 1
OS2Version: 0
OS2_WeightWidthSlopeOnly: 0
OS2_UseTypoMetrics: 1
CreationTime: 863385272
ModificationTime: 863385272
PfmFamily: 81
TTFWeight: 400
TTFWidth: 5
LineGap: 0
VLineGap: 0
Panose: 0 0 4 0 0 0 0 0 0 0
OS2TypoAscent: 190
OS2TypoAOffset: 1
OS2TypoDescent: -20
OS2TypoDOffset: 1
OS2TypoLinegap: 0
OS2WinAscent: 0
OS2WinAOffset: 1
OS2WinDescent: 0
OS2WinDOffset: 1
HheadAscent: 0
HheadAOffset: 1
HheadDescent: 0
HheadDOffset: 1
OS2SubXSize: 630
OS2SubYSize: 585
OS2SubXOff: 0
OS2SubYOff: 129
OS2SupXSize: 630
OS2SupYSize: 585
OS2SupXOff: 0
OS2SupYOff: 408
OS2StrikeYSize: 45
OS2StrikeYPos: 233
OS2Vendor: 'Alts'
OS2UnicodeRanges: 00000000.00000000.00000000.00000000
Lookup: 1 0 0 "'rtla' Right to Left Alternates lookup 0"  {"'rtla' Right to Left Alternates lookup 0 subtable"  } ['rtla' ('DFLT' <'dflt' > ) ]
Lookup: 1 0 0 "<3,1> All Upper Case in Latin lookup 1"  {"<3,1> All Upper Case in Latin lookup 1 subtable"  } [<3,1> ('latn' <'dflt' > ) ]
Lookup: 1 0 0 "<3,2> All Lower Case in Latin lookup 2"  {"<3,2> All Lower Case in Latin lookup 2 subtable"  } [<3,2> ('latn' <'dflt' > ) ]
Lookup: 254 0 0 "<3,4> Initial Caps in Latin lookup 3"  {"<3,4> Initial Caps in Latin lookup 3 subtable"  } [<3,4> ('DFLT' <'dflt' > 'latn' <'dflt' > ) ]
Lookup: 1 0 0 "<3,4> Initial Caps in Latin lookup 3 nested-substitutions 0"  {"<3,4> Initial Caps in Latin lookup 3 nested-substitutions 0 subtable"  } []
Lookup: 4 0 0 "<1,4> Rare Ligatures in Latin lookup 5"  {"<1,4> Rare Ligatures in Latin lookup 5 subtable"  } [<1,4> ('latn' <'dflt' > ) 'dlig' ('latn' <'dflt' > ) ]

StartChar: .notdef
Encoding: 65536 -1 0
Width: 450
Flags: W
LayerCount: 2
Fore
SplineSet
56 0 m 1,0,-1
 56 700 l 1,1,-1
 394 700 l 1,2,-1
 394 0 l 1,3,-1
 56 0 l 1,0,-1
113 56 m 1,4,-1
 338 56 l 1,5,-1
 338 644 l 1,6,-1
 113 644 l 1,7,-1
 113 56 l 1,4,-1
EndSplineSet
Substitution2: "<9,0> Compose Diacritics in Latin lookup 8 nested-substitutions 6 subtable" <Delete>
Substitution2: "<9,0> Compose Diacritics in Latin lookup 8 nested-substitutions 5 subtable" <Delete>
Substitution2: "<9,0> Compose Diacritics in Latin lookup 8 nested-substitutions 4 subtable" <Delete>
Substitution2: "<9,0> Compose Diacritics in Latin lookup 8 nested-substitutions 2 subtable" <Delete>
Substitution2: "<9,0> Compose Diacritics in Latin lookup 8 nested-substitutions 0 subtable" <Delete>
EndChar

StartChar: exclam
Encoding: 33 33 4
Width: 600
Flags: W
LayerCount: 2
Fore
SplineSet
300 200 m 1,0,-1
 200 200 l 1,1,-1
 200 700 l 1,2,-1
 300 700 l 1,3,-1
 300 200 l 1,0,-1
300 50 m 256,4,5
 300 29 300 29 285.5 14.5 c 128,-1,6
 271 0 271 0 250 0 c 256,7,8
 229 0 229 0 214.5 14.5 c 128,-1,9
 200 29 200 29 200 50 c 256,10,11
 200 71 200 71 214.5 85.5 c 128,-1,12
 229 100 229 100 250 100 c 256,13,14
 271 100 271 100 285.5 85.5 c 128,-1,15
 300 71 300 71 300 50 c 256,4,5
EndSplineSet
Substitution2: "<9,0> Compose Diacritics in Latin lookup 8 nested-substitutions 6 subtable" <Delete>
Substitution2: "<9,0> Compose Diacritics in Latin lookup 8 nested-substitutions 5 subtable" <Delete>
Substitution2: "<9,0> Compose Diacritics in Latin lookup 8 nested-substitutions 4 subtable" <Delete>
Substitution2: "<9,0> Compose Diacritics in Latin lookup 8 nested-substitutions 2 subtable" <Delete>
Substitution2: "<9,0> Compose Diacritics in Latin lookup 8 nested-substitutions 0 subtable" <Delete>
EndChar

StartChar: quotedbl
Encoding: 34 34 5
Width: 600
Flags: W
LayerCount: 2
Fore
SplineSet
400 500 m 1,0,-1
 300 500 l 1,1,-1
 300 800 l 1,2,-1
 400 800 l 1,3,-1
 400 500 l 1,0,-1
200 500 m 1,4,-1
 100 500 l 1,5,-1
 100 800 l 1,6,-1
 200 800 l 1,7,-1
 200 500 l 1,4,-1
EndSplineSet
Substitution2: "<14,8> Smart Quotes in Latin lookup 22 nested-substitutions 1 subtable" quotedblright
Substitution2: "<14,8> Smart Quotes in Latin lookup 22 nested-substitutions 0 subtable" quotedblleft
Substitution2: "<9,0> Compose Diacritics in Latin lookup 8 nested-substitutions 6 subtable" <Delete>
Substitution2: "<9,0> Compose Diacritics in Latin lookup 8 nested-substitutions 5 subtable" <Delete>
Substitution2: "<9,0> Compose Diacritics in Latin lookup 8 nested-substitutions 4 subtable" <Delete>
Substitution2: "<9,0> Compose Diacritics in Latin lookup 8 nested-substitutions 2 subtable" <Delete>
Substitution2: "<9,0> Compose Diacritics in Latin lookup 8 nested-substitutions 0 subtable" <Delete>
EndChar

StartChar: numbersign
Encoding: 35 35 6
Width: 600
Flags: W
LayerCount: 2
Fore
SplineSet
500 300 m 1,0,-1
 400 300 l 1,1,-1
 400 200 l 1,2,-1
 300 200 l 1,3,-1
 300 300 l 1,4,-1
 200 300 l 1,5,-1
 200 200 l 1,6,-1
 100 200 l 1,7,-1
 100 300 l 1,8,-1
 0 300 l 1,9,-1
 0 400 l 1,10,-1
 100 400 l 1,11,-1
 100 500 l 1,12,-1
 0 500 l 1,13,-1
 0 600 l 1,14,-1
 100 600 l 1,15,-1
 100 700 l 1,16,-1
 200 700 l 1,17,-1
 200 600 l 1,18,-1
 300 600 l 1,19,-1
 300 700 l 1,20,-1
 400 700 l 1,21,-1
 400 600 l 1,22,-1
 500 600 l 1,23,-1
 500 500 l 1,24,-1
 400 500 l 1,25,-1
 400 400 l 1,26,-1
 500 400 l 1,27,-1
 500 300 l 1,0,-1
300 400 m 1,28,-1
 300 500 l 1,29,-1
 200 500 l 1,30,-1
 200 400 l 1,31,-1
 300 400 l 1,28,-1
EndSplineSet
Substitution2: "<9,0> Compose Diacritics in Latin lookup 8 nested-substitutions 6 subtable" <Delete>
Substitution2: "<9,0> Compose Diacritics in Latin lookup 8 nested-substitutions 5 subtable" <Delete>
Substitution2: "<9,0> Compose Diacritics in Latin lookup 8 nested-substitutions 4 subtable" <Delete>
Substitution2: "<9,0> Compose Diacritics in Latin lookup 8 nested-substitutions 2 subtable" <Delete>
Substitution2: "<9,0> Compose Diacritics in Latin lookup 8 nested-substitutions 0 subtable" <Delete>
EndChar

StartChar: dollar
Encoding: 36 36 7
Width: 600
Flags: W
LayerCount: 2
Fore
SplineSet
500 200 m 256,0,1
 500 118 500 118 441.5 59 c 128,-1,2
 383 0 383 0 300 0 c 1,3,-1
 300 -100 l 1,4,-1
 200 -100 l 1,5,-1
 200 0 l 1,6,7
 117 0 117 0 58.5 58.5 c 128,-1,8
 0 117 0 117 0 200 c 1,9,-1
 100 200 l 1,10,11
 100 159 100 159 129.5 129.5 c 128,-1,12
 159 100 159 100 200 100 c 1,13,-1
 200 300 l 1,14,15
 117 300 117 300 58.5 358.5 c 128,-1,16
 0 417 0 417 0 500 c 256,17,18
 0 583 0 583 58.5 641.5 c 128,-1,19
 117 700 117 700 200 700 c 1,20,-1
 200 800 l 1,21,-1
 300 800 l 1,22,-1
 300 700 l 1,23,24
 383 700 383 700 441.5 641 c 128,-1,25
 500 582 500 582 500 500 c 1,26,-1
 400 500 l 1,27,28
 400 541 400 541 370.5 570.5 c 128,-1,29
 341 600 341 600 300 600 c 1,30,-1
 300 400 l 1,31,32
 382 400 382 400 441 341 c 128,-1,33
 500 282 500 282 500 200 c 256,0,1
200 400 m 1,34,-1
 200 600 l 1,35,36
 159 600 159 600 129.5 570.5 c 128,-1,37
 100 541 100 541 100 500 c 256,38,39
 100 459 100 459 129.5 429.5 c 128,-1,40
 159 400 159 400 200 400 c 1,34,-1
400 200 m 256,41,42
 400 241 400 241 370.5 270.5 c 128,-1,43
 341 300 341 300 300 300 c 1,44,-1
 300 100 l 1,45,46
 341 100 341 100 370.5 129.5 c 128,-1,47
 400 159 400 159 400 200 c 256,41,42
EndSplineSet
Substitution2: "<9,0> Compose Diacritics in Latin lookup 8 nested-substitutions 6 subtable" <Delete>
Substitution2: "<9,0> Compose Diacritics in Latin lookup 8 nested-substitutions 5 subtable" <Delete>
Substitution2: "<9,0> Compose Diacritics in Latin lookup 8 nested-substitutions 4 subtable" <Delete>
Substitution2: "<9,0> Compose Diacritics in Latin lookup 8 nested-substitutions 2 subtable" <Delete>
Substitution2: "<9,0> Compose Diacritics in Latin lookup 8 nested-substitutions 0 subtable" <Delete>
EndChar

StartChar: percent
Encoding: 37 37 8
Width: 600
Flags: W
LayerCount: 2
Fore
SplineSet
500 200 m 0,0,1
 500 117 500 117 456 58.5 c 128,-1,2
 412 0 412 0 350 0 c 256,3,4
 288 0 288 0 244 58.5 c 128,-1,5
 200 117 200 117 200 200 c 0,6,7
 200 211 200 211 202 231 c 1,8,-1
 100 129 l 1,9,-1
 100 0 l 1,10,-1
 0 0 l 1,11,-1
 0 171 l 1,12,-1
 131 302 l 1,13,14
 70 315 70 315 35 371 c 1,15,16
 0 424 0 424 0 500 c 0,17,18
 0 583 0 583 44 641.5 c 128,-1,19
 88 700 88 700 150 700 c 2,20,-1
 500 700 l 1,21,-1
 500 529 l 1,22,-1
 370 399 l 1,23,24
 427 387 427 387 463.5 330.5 c 128,-1,25
 500 274 500 274 500 200 c 0,0,1
400 571 m 1,26,-1
 400 600 l 1,27,-1
 279 600 l 1,28,29
 300 552 300 552 300 500 c 0,30,31
 300 479 300 479 299 470 c 1,32,-1
 400 571 l 1,26,-1
200 500 m 256,33,34
 200 541 200 541 185.5 570.5 c 128,-1,35
 171 600 171 600 150 600 c 256,36,37
 129 600 129 600 114.5 570.5 c 128,-1,38
 100 541 100 541 100 500 c 256,39,40
 100 459 100 459 114.5 429.5 c 128,-1,41
 129 400 129 400 150 400 c 256,42,43
 171 400 171 400 185.5 429.5 c 128,-1,44
 200 459 200 459 200 500 c 256,33,34
400 200 m 256,45,46
 400 241 400 241 385.5 270.5 c 128,-1,47
 371 300 371 300 350 300 c 256,48,49
 329 300 329 300 314.5 270.5 c 128,-1,50
 300 241 300 241 300 200 c 256,51,52
 300 159 300 159 314.5 129.5 c 128,-1,53
 329 100 329 100 350 100 c 256,54,55
 371 100 371 100 385.5 129.5 c 128,-1,56
 400 159 400 159 400 200 c 256,45,46
EndSplineSet
Substitution2: "<9,0> Compose Diacritics in Latin lookup 8 nested-substitutions 6 subtable" <Delete>
Substitution2: "<9,0> Compose Diacritics in Latin lookup 8 nested-substitutions 5 subtable" <Delete>
Substitution2: "<9,0> Compose Diacritics in Latin lookup 8 nested-substitutions 4 subtable" <Delete>
Substitution2: "<9,0> Compose Diacritics in Latin lookup 8 nested-substitutions 2 subtable" <Delete>
Substitution2: "<9,0> Compose Diacritics in Latin lookup 8 nested-substitutions 0 subtable" <Delete>
EndChar

StartChar: ampersand
Encoding: 38 38 9
Width: 600
Flags: W
LayerCount: 2
Fore
SplineSet
522 253 m 1,0,-1
 420 150 l 1,1,-1
 516 53 l 1,2,-1
 447 -16 l 1,3,-1
 350 81 l 1,4,-1
 292 22 l 1,5,6
 250 0 250 0 200 0 c 0,7,8
 118 0 118 0 59 58.5 c 128,-1,9
 0 117 0 117 0 200 c 0,10,11
 0 250 0 250 22 292 c 1,12,-1
 80 349 l 1,13,-1
 22 408 l 1,14,15
 0 450 0 450 0 500 c 0,16,17
 0 583 0 583 58.5 641.5 c 128,-1,18
 117 700 117 700 200 700 c 2,19,-1
 262 700 l 2,20,21
 319 700 319 700 359.5 659.5 c 128,-1,22
 400 619 400 619 400 563 c 0,23,24
 400 534 400 534 392 523 c 1,25,-1
 220 350 l 1,26,-1
 350 219 l 1,27,-1
 453 322 l 1,28,-1
 522 253 l 1,0,-1
299 567 m 1,29,30
 300 571 300 571 300 575 c 0,31,32
 300 600 300 600 275 600 c 2,33,-1
 200 600 l 2,34,35
 159 600 159 600 129.5 570.5 c 128,-1,36
 100 541 100 541 100 500 c 0,37,38
 100 478 100 478 107 463 c 1,39,-1
 151 419 l 1,40,-1
 299 567 l 1,29,30
281 150 m 1,41,-1
 150 280 l 1,42,-1
 107 237 l 1,43,44
 100 222 100 222 100 200 c 0,45,46
 100 159 100 159 129.5 129.5 c 128,-1,47
 159 100 159 100 200 100 c 0,48,49
 222 100 222 100 237 107 c 1,50,-1
 281 150 l 1,41,-1
EndSplineSet
Substitution2: "<9,0> Compose Diacritics in Latin lookup 8 nested-substitutions 6 subtable" <Delete>
Substitution2: "<9,0> Compose Diacritics in Latin lookup 8 nested-substitutions 5 subtable" <Delete>
Substitution2: "<9,0> Compose Diacritics in Latin lookup 8 nested-substitutions 4 subtable" <Delete>
Substitution2: "<9,0> Compose Diacritics in Latin lookup 8 nested-substitutions 2 subtable" <Delete>
Substitution2: "<9,0> Compose Diacritics in Latin lookup 8 nested-substitutions 0 subtable" <Delete>
EndChar

StartChar: quotesingle
Encoding: 39 39 10
Width: 600
Flags: W
LayerCount: 2
Fore
SplineSet
300 500 m 1,0,-1
 200 500 l 1,1,-1
 200 800 l 1,2,-1
 300 800 l 1,3,-1
 300 500 l 1,0,-1
EndSplineSet
Substitution2: "<14,8> Smart Quotes in Latin lookup 22 nested-substitutions 1 subtable" quoteright
Substitution2: "<14,8> Smart Quotes in Latin lookup 22 nested-substitutions 0 subtable" quoteleft
Substitution2: "<9,0> Compose Diacritics in Latin lookup 8 nested-substitutions 6 subtable" <Delete>
Substitution2: "<9,0> Compose Diacritics in Latin lookup 8 nested-substitutions 5 subtable" <Delete>
Substitution2: "<9,0> Compose Diacritics in Latin lookup 8 nested-substitutions 4 subtable" <Delete>
Substitution2: "<9,0> Compose Diacritics in Latin lookup 8 nested-substitutions 2 subtable" <Delete>
Substitution2: "<9,0> Compose Diacritics in Latin lookup 8 nested-substitutions 0 subtable" <Delete>
EndChar

StartChar: parenleft
Encoding: 40 40 11
Width: 600
Flags: W
LayerCount: 2
Fore
SplineSet
419 -50 m 1,0,-1
 350 -119 l 1,1,-1
 100 131 l 1,2,-1
 100 569 l 1,3,-1
 350 819 l 1,4,-1
 419 750 l 1,5,-1
 200 531 l 1,6,-1
 200 169 l 1,7,-1
 419 -50 l 1,0,-1
EndSplineSet
Substitution2: "<9,0> Compose Diacritics in Latin lookup 8 nested-substitutions 6 subtable" adieresis
Substitution2: "<9,0> Compose Diacritics in Latin lookup 8 nested-substitutions 5 subtable" <Delete>
Substitution2: "<9,0> Compose Diacritics in Latin lookup 8 nested-substitutions 4 subtable" <Delete>
Substitution2: "<9,0> Compose Diacritics in Latin lookup 8 nested-substitutions 2 subtable" aring
Substitution2: "<9,0> Compose Diacritics in Latin lookup 8 nested-substitutions 0 subtable" <Delete>
Substitution2: "'rtla' Right to Left Alternates lookup 0 subtable" parenright
EndChar

StartChar: parenright
Encoding: 41 41 12
Width: 600
Flags: W
LayerCount: 2
Fore
SplineSet
400 131 m 1,0,-1
 150 -119 l 1,1,-1
 81 -50 l 1,2,-1
 300 169 l 1,3,-1
 300 531 l 1,4,-1
 81 750 l 1,5,-1
 150 819 l 1,6,-1
 400 569 l 1,7,-1
 400 131 l 1,0,-1
EndSplineSet
Substitution2: "<9,0> Compose Diacritics in Latin lookup 8 nested-substitutions 6 subtable" <Delete>
Substitution2: "<9,0> Compose Diacritics in Latin lookup 8 nested-substitutions 5 subtable" <Delete>
Substitution2: "<9,0> Compose Diacritics in Latin lookup 8 nested-substitutions 4 subtable" <Delete>
Substitution2: "<9,0> Compose Diacritics in Latin lookup 8 nested-substitutions 2 subtable" <Delete>
Substitution2: "<9,0> Compose Diacritics in Latin lookup 8 nested-substitutions 0 subtable" <Delete>
Substitution2: "'rtla' Right to Left Alternates lookup 0 subtable" parenleft
EndChar

StartChar: asterisk
Encoding: 42 42 13
Width: 600
Flags: W
LayerCount: 2
Fore
SplineSet
493 373 m 1,0,-1
 444 285 l 1,1,-1
 300 364 l 1,2,-1
 300 200 l 1,3,-1
 200 200 l 1,4,-1
 200 364 l 1,5,-1
 58 282 l 1,6,-1
 8 368 l 1,7,-1
 150 450 l 1,8,-1
 7 527 l 1,9,-1
 56 615 l 1,10,-1
 200 535 l 1,11,-1
 200 700 l 1,12,-1
 300 700 l 1,13,-1
 300 537 l 1,14,-1
 441 618 l 1,15,-1
 491 532 l 1,16,-1
 350 450 l 1,17,-1
 493 373 l 1,0,-1
EndSplineSet
Substitution2: "<15,2> Star to Multiply lookup 27 nested-substitutions 0 subtable" multiply
Substitution2: "<9,0> Compose Diacritics in Latin lookup 8 nested-substitutions 6 subtable" ccedilla
Substitution2: "<9,0> Compose Diacritics in Latin lookup 8 nested-substitutions 5 subtable" <Delete>
Substitution2: "<9,0> Compose Diacritics in Latin lookup 8 nested-substitutions 4 subtable" <Delete>
Substitution2: "<9,0> Compose Diacritics in Latin lookup 8 nested-substitutions 2 subtable" <Delete>
Substitution2: "<9,0> Compose Diacritics in Latin lookup 8 nested-substitutions 0 subtable" <Delete>
EndChar

StartChar: plus
Encoding: 43 43 14
Width: 600
Flags: W
LayerCount: 2
Fore
SplineSet
500 300 m 1,0,-1
 300 300 l 1,1,-1
 300 100 l 1,2,-1
 200 100 l 1,3,-1
 200 300 l 1,4,-1
 0 300 l 1,5,-1
 0 400 l 1,6,-1
 200 400 l 1,7,-1
 200 600 l 1,8,-1
 300 600 l 1,9,-1
 300 400 l 1,10,-1
 500 400 l 1,11,-1
 500 300 l 1,0,-1
EndSplineSet
Substitution2: "<15,2> Star to Multiply lookup 27 nested-substitutions 0 subtable" Udieresis
Substitution2: "<9,0> Compose Diacritics in Latin lookup 8 nested-substitutions 6 subtable" <Delete>
Substitution2: "<9,0> Compose Diacritics in Latin lookup 8 nested-substitutions 5 subtable" <Delete>
Substitution2: "<9,0> Compose Diacritics in Latin lookup 8 nested-substitutions 4 subtable" <Delete>
Substitution2: "<9,0> Compose Diacritics in Latin lookup 8 nested-substitutions 2 subtable" <Delete>
Substitution2: "<9,0> Compose Diacritics in Latin lookup 8 nested-substitutions 0 subtable" <Delete>
EndChar

StartChar: comma
Encoding: 44 44 15
Width: 600
Flags: W
LayerCount: 2
Fore
SplineSet
350 -44 m 1,0,-1
 194 -200 l 1,1,-1
 125 -131 l 1,2,-1
 250 -6 l 1,3,-1
 250 25 l 1,4,5
 209 25 209 25 179.5 54.5 c 128,-1,6
 150 84 150 84 150 125 c 256,7,8
 150 166 150 166 179.5 195.5 c 128,-1,9
 209 225 209 225 250 225 c 256,10,11
 291 225 291 225 320.5 195.5 c 128,-1,12
 350 166 350 166 350 125 c 2,13,-1
 350 -44 l 1,0,-1
EndSplineSet
Substitution2: "<9,0> Compose Diacritics in Latin lookup 8 nested-substitutions 6 subtable" eacute
Substitution2: "<9,0> Compose Diacritics in Latin lookup 8 nested-substitutions 5 subtable" <Delete>
Substitution2: "<9,0> Compose Diacritics in Latin lookup 8 nested-substitutions 4 subtable" agrave
Substitution2: "<9,0> Compose Diacritics in Latin lookup 8 nested-substitutions 2 subtable" egrave
Substitution2: "<9,0> Compose Diacritics in Latin lookup 8 nested-substitutions 0 subtable" aacute
EndChar

StartChar: hyphen
Encoding: 45 45 16
AltUni2: 002010.ffffffff.0
Width: 600
Flags: W
LayerCount: 2
Fore
SplineSet
400 300 m 1,0,-1
 100 300 l 1,1,-1
 100 400 l 1,2,-1
 400 400 l 1,3,-1
 400 300 l 1,0,-1
EndSplineSet
Substitution2: "<15,2> Star to Multiply lookup 27 nested-substitutions 0 subtable" .null
Substitution2: "<15,0> Hyphen to Minus lookup 25 nested-substitutions 0 subtable" minus
Substitution2: "<14,2> Hyphen to En Dash lookup 20 nested-substitutions 0 subtable" endash
Substitution2: "<14,0> Hyphens to Em Dash lookup 17 nested-substitutions 0 subtable" emdash
Substitution2: "<14,0> Hyphens to Em Dash lookup 17 nested-substitutions 1 subtable" <Delete>
Substitution2: "<9,0> Compose Diacritics in Latin lookup 8 nested-substitutions 6 subtable" <Delete>
Substitution2: "<9,0> Compose Diacritics in Latin lookup 8 nested-substitutions 5 subtable" <Delete>
Substitution2: "<9,0> Compose Diacritics in Latin lookup 8 nested-substitutions 4 subtable" <Delete>
Substitution2: "<9,0> Compose Diacritics in Latin lookup 8 nested-substitutions 2 subtable" <Delete>
Substitution2: "<9,0> Compose Diacritics in Latin lookup 8 nested-substitutions 0 subtable" <Delete>
EndChar

StartChar: period
Encoding: 46 46 17
Width: 600
Flags: W
LayerCount: 2
Fore
SplineSet
346 125 m 256,0,1
 346 83 346 83 318.5 54 c 128,-1,2
 291 25 291 25 250 25 c 256,3,4
 209 25 209 25 179.5 54.5 c 128,-1,5
 150 84 150 84 150 125 c 256,6,7
 150 166 150 166 179.5 195.5 c 128,-1,8
 209 225 209 225 250 225 c 256,9,10
 291 225 291 225 318.5 196 c 128,-1,11
 346 167 346 167 346 125 c 256,0,1
EndSplineSet
Substitution2: "<15,0> Hyphen to Minus lookup 25 nested-substitutions 0 subtable" Ccedilla
Substitution2: "<14,2> Hyphen to En Dash lookup 20 nested-substitutions 0 subtable" onequarter
Substitution2: "<9,0> Compose Diacritics in Latin lookup 8 nested-substitutions 6 subtable" <Delete>
Substitution2: "<9,0> Compose Diacritics in Latin lookup 8 nested-substitutions 5 subtable" <Delete>
Substitution2: "<9,0> Compose Diacritics in Latin lookup 8 nested-substitutions 4 subtable" <Delete>
Substitution2: "<9,0> Compose Diacritics in Latin lookup 8 nested-substitutions 2 subtable" <Delete>
Substitution2: "<9,0> Compose Diacritics in Latin lookup 8 nested-substitutions 0 subtable" <Delete>
EndChar

StartChar: slash
Encoding: 47 47 18
Width: 600
Flags: W
LayerCount: 2
Fore
SplineSet
571 754 m 1,0,-1
 89 -191 l 1,1,-1
 0 -146 l 1,2,-1
 482 800 l 1,3,-1
 571 754 l 1,0,-1
EndSplineSet
Substitution2: "<15,4> Slash to Divide lookup 29 nested-substitutions 0 subtable" divide
Substitution2: "<14,0> Hyphens to Em Dash lookup 17 nested-substitutions 0 subtable" oe
Substitution2: "<9,0> Compose Diacritics in Latin lookup 8 nested-substitutions 6 subtable" <Delete>
Substitution2: "<9,0> Compose Diacritics in Latin lookup 8 nested-substitutions 5 subtable" <Delete>
Substitution2: "<9,0> Compose Diacritics in Latin lookup 8 nested-substitutions 4 subtable" <Delete>
Substitution2: "<9,0> Compose Diacritics in Latin lookup 8 nested-substitutions 2 subtable" <Delete>
Substitution2: "<9,0> Compose Diacritics in Latin lookup 8 nested-substitutions 0 subtable" <Delete>
Substitution2: "<9,0> Compose Diacritics in Latin lookup 8 nested-substitutions 1 subtable" <Delete>
EndChar

StartChar: zero
Encoding: 48 48 19
Width: 600
Flags: W
LayerCount: 2
Fore
SplineSet
500 200 m 2,0,1
 500 118 500 118 441 59 c 128,-1,2
 382 0 382 0 300 0 c 2,3,-1
 200 0 l 2,4,5
 118 0 118 0 59 59 c 128,-1,6
 0 118 0 118 0 200 c 2,7,-1
 0 500 l 2,8,9
 0 582 0 582 59 641 c 128,-1,10
 118 700 118 700 200 700 c 2,11,-1
 300 700 l 2,12,13
 382 700 382 700 441 641 c 128,-1,14
 500 582 500 582 500 500 c 2,15,-1
 500 200 l 2,0,1
385 554 m 1,16,17
 355 600 355 600 300 600 c 2,18,-1
 200 600 l 2,19,20
 159 600 159 600 129.5 570.5 c 128,-1,21
 100 541 100 541 100 500 c 2,22,-1
 100 269 l 1,23,-1
 385 554 l 1,16,17
400 200 m 2,24,-1
 400 429 l 1,25,-1
 117 146 l 1,26,27
 147 100 147 100 200 100 c 2,28,-1
 300 100 l 2,29,30
 341 100 341 100 370.5 129.5 c 128,-1,31
 400 159 400 159 400 200 c 2,24,-1
EndSplineSet
Substitution2: "<15,4> Slash to Divide lookup 29 nested-substitutions 0 subtable" hyphen
Substitution2: "<14,0> Hyphens to Em Dash lookup 17 nested-substitutions 0 subtable" .null
Substitution2: "<9,0> Compose Diacritics in Latin lookup 8 nested-substitutions 6 subtable" iacute
Substitution2: "<9,0> Compose Diacritics in Latin lookup 8 nested-substitutions 5 subtable" <Delete>
Substitution2: "<9,0> Compose Diacritics in Latin lookup 8 nested-substitutions 4 subtable" edieresis
Substitution2: "<9,0> Compose Diacritics in Latin lookup 8 nested-substitutions 2 subtable" igrave
Substitution2: "<9,0> Compose Diacritics in Latin lookup 8 nested-substitutions 0 subtable" ecircumflex
EndChar

StartChar: one
Encoding: 49 49 20
Width: 600
Flags: W
LayerCount: 2
Fore
SplineSet
500 0 m 1,0,-1
 0 0 l 1,1,-1
 0 100 l 1,2,-1
 200 100 l 1,3,-1
 200 500 l 1,4,-1
 50 500 l 1,5,-1
 50 600 l 1,6,-1
 100 600 l 2,7,8
 141 600 141 600 170.5 629.5 c 128,-1,9
 200 659 200 659 200 700 c 1,10,-1
 300 700 l 1,11,-1
 300 100 l 1,12,-1
 500 100 l 1,13,-1
 500 0 l 1,0,-1
EndSplineSet
Substitution2: "<10,1> Superiors lookup 16 subtable" onesuperior
Substitution2: "<9,0> Compose Diacritics in Latin lookup 8 nested-substitutions 6 subtable" <Delete>
Substitution2: "<9,0> Compose Diacritics in Latin lookup 8 nested-substitutions 5 subtable" <Delete>
Substitution2: "<9,0> Compose Diacritics in Latin lookup 8 nested-substitutions 4 subtable" <Delete>
Substitution2: "<9,0> Compose Diacritics in Latin lookup 8 nested-substitutions 2 subtable" <Delete>
Substitution2: "<9,0> Compose Diacritics in Latin lookup 8 nested-substitutions 0 subtable" <Delete>
EndChar

StartChar: two
Encoding: 50 50 21
Width: 600
Flags: W
LayerCount: 2
Fore
SplineSet
500 0 m 1,0,-1
 0 0 l 1,1,-1
 0 69 l 1,2,-1
 393 463 l 1,3,4
 400 478 400 478 400 500 c 0,5,6
 400 541 400 541 370.5 570.5 c 128,-1,7
 341 600 341 600 300 600 c 2,8,-1
 200 600 l 2,9,10
 159 600 159 600 129.5 570.5 c 128,-1,11
 100 541 100 541 100 500 c 1,12,-1
 0 500 l 1,13,14
 0 582 0 582 59 641 c 128,-1,15
 118 700 118 700 200 700 c 2,16,-1
 300 700 l 2,17,18
 382 700 382 700 441 641.5 c 128,-1,19
 500 583 500 583 500 500 c 0,20,21
 500 450 500 450 478 408 c 1,22,-1
 169 100 l 1,23,-1
 500 100 l 1,24,-1
 500 0 l 1,0,-1
EndSplineSet
Substitution2: "<15,4> Slash to Divide lookup 29 nested-substitutions 0 subtable" percent
Substitution2: "<10,1> Superiors lookup 16 subtable" twosuperior
Substitution2: "<9,0> Compose Diacritics in Latin lookup 8 nested-substitutions 6 subtable" <Delete>
Substitution2: "<9,0> Compose Diacritics in Latin lookup 8 nested-substitutions 5 subtable" acircumflex
Substitution2: "<9,0> Compose Diacritics in Latin lookup 8 nested-substitutions 4 subtable" <Delete>
Substitution2: "<9,0> Compose Diacritics in Latin lookup 8 nested-substitutions 2 subtable" <Delete>
Substitution2: "<9,0> Compose Diacritics in Latin lookup 8 nested-substitutions 0 subtable" <Delete>
EndChar

StartChar: three
Encoding: 51 51 22
Width: 600
Flags: W
LayerCount: 2
Fore
SplineSet
100 200 m 1,0,1
 100 159 100 159 129.5 129.5 c 128,-1,2
 159 100 159 100 200 100 c 2,3,-1
 300 100 l 2,4,5
 341 100 341 100 370.5 129.5 c 128,-1,6
 400 159 400 159 400 200 c 256,7,8
 400 241 400 241 370.5 270.5 c 128,-1,9
 341 300 341 300 300 300 c 2,10,-1
 200 300 l 1,11,-1
 200 400 l 1,12,-1
 300 400 l 2,13,14
 341 400 341 400 370.5 429.5 c 128,-1,15
 400 459 400 459 400 500 c 256,16,17
 400 541 400 541 370.5 570.5 c 128,-1,18
 341 600 341 600 300 600 c 2,19,-1
 200 600 l 2,20,21
 159 600 159 600 129.5 570.5 c 128,-1,22
 100 541 100 541 100 500 c 1,23,-1
 0 500 l 1,24,25
 0 583 0 583 58.5 641.5 c 128,-1,26
 117 700 117 700 200 700 c 2,27,-1
 300 700 l 2,28,29
 383 700 383 700 441.5 641.5 c 128,-1,30
 500 583 500 583 500 500 c 0,31,32
 500 410 500 410 415 350 c 1,33,34
 500 290 500 290 500 200 c 0,35,36
 500 117 500 117 441.5 58.5 c 128,-1,37
 383 0 383 0 300 0 c 2,38,-1
 200 0 l 2,39,40
 117 0 117 0 58.5 58.5 c 128,-1,41
 0 117 0 117 0 200 c 1,42,-1
 100 200 l 1,0,1
EndSplineSet
Substitution2: "<10,1> Superiors lookup 16 subtable" threesuperior
Substitution2: "<9,0> Compose Diacritics in Latin lookup 8 nested-substitutions 6 subtable" <Delete>
Substitution2: "<9,0> Compose Diacritics in Latin lookup 8 nested-substitutions 5 subtable" <Delete>
Substitution2: "<9,0> Compose Diacritics in Latin lookup 8 nested-substitutions 4 subtable" <Delete>
Substitution2: "<9,0> Compose Diacritics in Latin lookup 8 nested-substitutions 2 subtable" <Delete>
Substitution2: "<9,0> Compose Diacritics in Latin lookup 8 nested-substitutions 0 subtable" <Delete>
EndChar

StartChar: four
Encoding: 52 52 23
Width: 600
Flags: W
LayerCount: 2
Fore
SplineSet
500 0 m 1,0,-1
 200 0 l 1,1,-1
 200 100 l 1,2,-1
 300 100 l 1,3,-1
 300 200 l 1,4,-1
 0 200 l 1,5,-1
 0 369 l 1,6,-1
 331 700 l 1,7,-1
 400 700 l 1,8,-1
 400 300 l 1,9,-1
 500 300 l 1,10,-1
 500 200 l 1,11,-1
 400 200 l 1,12,-1
 400 100 l 1,13,-1
 500 100 l 1,14,-1
 500 0 l 1,0,-1
300 300 m 1,15,-1
 300 531 l 1,16,-1
 100 331 l 1,17,-1
 100 300 l 1,18,-1
 300 300 l 1,15,-1
EndSplineSet
Substitution2: "<9,0> Compose Diacritics in Latin lookup 8 nested-substitutions 6 subtable" <Delete>
Substitution2: "<9,0> Compose Diacritics in Latin lookup 8 nested-substitutions 5 subtable" <Delete>
Substitution2: "<9,0> Compose Diacritics in Latin lookup 8 nested-substitutions 4 subtable" idieresis
Substitution2: "<9,0> Compose Diacritics in Latin lookup 8 nested-substitutions 2 subtable" <Delete>
Substitution2: "<9,0> Compose Diacritics in Latin lookup 8 nested-substitutions 0 subtable" icircumflex
EndChar

StartChar: five
Encoding: 53 53 24
Width: 600
Flags: W
LayerCount: 2
Fore
SplineSet
500 200 m 2,0,1
 500 118 500 118 441 59 c 128,-1,2
 382 0 382 0 300 0 c 2,3,-1
 200 0 l 2,4,5
 118 0 118 0 59 58.5 c 128,-1,6
 0 117 0 117 0 200 c 1,7,-1
 100 200 l 1,8,9
 100 159 100 159 129.5 129.5 c 128,-1,10
 159 100 159 100 200 100 c 2,11,-1
 300 100 l 2,12,13
 341 100 341 100 370.5 129.5 c 128,-1,14
 400 159 400 159 400 200 c 2,15,-1
 400 300 l 2,16,17
 400 341 400 341 370.5 370.5 c 128,-1,18
 341 400 341 400 300 400 c 2,19,-1
 0 400 l 1,20,-1
 0 700 l 1,21,-1
 500 700 l 1,22,-1
 500 600 l 1,23,-1
 100 600 l 1,24,-1
 100 500 l 1,25,-1
 300 500 l 2,26,27
 382 500 382 500 441 441 c 128,-1,28
 500 382 500 382 500 300 c 2,29,-1
 500 200 l 2,0,1
EndSplineSet
Substitution2: "<9,0> Compose Diacritics in Latin lookup 8 nested-substitutions 6 subtable" ntilde
Substitution2: "<9,0> Compose Diacritics in Latin lookup 8 nested-substitutions 5 subtable" <Delete>
Substitution2: "<9,0> Compose Diacritics in Latin lookup 8 nested-substitutions 4 subtable" <Delete>
Substitution2: "<9,0> Compose Diacritics in Latin lookup 8 nested-substitutions 2 subtable" <Delete>
Substitution2: "<9,0> Compose Diacritics in Latin lookup 8 nested-substitutions 0 subtable" <Delete>
EndChar

StartChar: six
Encoding: 54 54 25
Width: 600
Flags: W
LayerCount: 2
Fore
SplineSet
500 200 m 2,0,1
 500 118 500 118 441 59 c 128,-1,2
 382 0 382 0 300 0 c 2,3,-1
 200 0 l 2,4,5
 118 0 118 0 59 59 c 128,-1,6
 0 118 0 118 0 200 c 2,7,-1
 0 500 l 2,8,9
 0 582 0 582 59 641 c 128,-1,10
 118 700 118 700 200 700 c 2,11,-1
 400 700 l 1,12,-1
 400 600 l 1,13,-1
 200 600 l 2,14,15
 159 600 159 600 129.5 570.5 c 128,-1,16
 100 541 100 541 100 500 c 1,17,-1
 300 500 l 2,18,19
 382 500 382 500 441 441 c 128,-1,20
 500 382 500 382 500 300 c 2,21,-1
 500 200 l 2,0,1
400 200 m 2,22,-1
 400 300 l 2,23,24
 400 341 400 341 370.5 370.5 c 128,-1,25
 341 400 341 400 300 400 c 2,26,-1
 100 400 l 1,27,-1
 100 200 l 2,28,29
 100 159 100 159 129.5 129.5 c 128,-1,30
 159 100 159 100 200 100 c 2,31,-1
 300 100 l 2,32,33
 341 100 341 100 370.5 129.5 c 128,-1,34
 400 159 400 159 400 200 c 2,22,-1
EndSplineSet
Substitution2: "<9,0> Compose Diacritics in Latin lookup 8 nested-substitutions 6 subtable" oacute
Substitution2: "<9,0> Compose Diacritics in Latin lookup 8 nested-substitutions 5 subtable" <Delete>
Substitution2: "<9,0> Compose Diacritics in Latin lookup 8 nested-substitutions 4 subtable" <Delete>
Substitution2: "<9,0> Compose Diacritics in Latin lookup 8 nested-substitutions 2 subtable" ograve
Substitution2: "<9,0> Compose Diacritics in Latin lookup 8 nested-substitutions 0 subtable" <Delete>
EndChar

StartChar: seven
Encoding: 55 55 26
Width: 600
Flags: W
LayerCount: 2
Fore
SplineSet
500 431 m 1,0,-1
 300 231 l 1,1,-1
 300 0 l 1,2,-1
 200 0 l 1,3,-1
 200 269 l 1,4,-1
 400 469 l 1,5,-1
 400 600 l 1,6,-1
 0 600 l 1,7,-1
 0 700 l 1,8,-1
 500 700 l 1,9,-1
 500 431 l 1,0,-1
EndSplineSet
Substitution2: "<9,0> Compose Diacritics in Latin lookup 8 nested-substitutions 6 subtable" <Delete>
Substitution2: "<9,0> Compose Diacritics in Latin lookup 8 nested-substitutions 5 subtable" <Delete>
Substitution2: "<9,0> Compose Diacritics in Latin lookup 8 nested-substitutions 4 subtable" <Delete>
Substitution2: "<9,0> Compose Diacritics in Latin lookup 8 nested-substitutions 2 subtable" <Delete>
Substitution2: "<9,0> Compose Diacritics in Latin lookup 8 nested-substitutions 0 subtable" <Delete>
EndChar

StartChar: eight
Encoding: 56 56 27
Width: 600
Flags: W
LayerCount: 2
Fore
SplineSet
300 700 m 2,0,1
 383 700 383 700 441.5 641.5 c 128,-1,2
 500 583 500 583 500 500 c 0,3,4
 500 410 500 410 415 350 c 1,5,6
 500 290 500 290 500 200 c 0,7,8
 500 117 500 117 441.5 58.5 c 128,-1,9
 383 0 383 0 300 0 c 2,10,-1
 200 0 l 2,11,12
 117 0 117 0 58.5 58.5 c 128,-1,13
 0 117 0 117 0 200 c 0,14,15
 0 290 0 290 85 350 c 1,16,17
 0 410 0 410 0 500 c 0,18,19
 0 583 0 583 58.5 641.5 c 128,-1,20
 117 700 117 700 200 700 c 2,21,-1
 300 700 l 2,0,1
200 600 m 2,22,23
 158 600 158 600 129 570.5 c 128,-1,24
 100 541 100 541 100 500 c 256,25,26
 100 459 100 459 129.5 429.5 c 128,-1,27
 159 400 159 400 200 400 c 2,28,-1
 300 400 l 2,29,30
 341 400 341 400 370.5 429.5 c 128,-1,31
 400 459 400 459 400 500 c 256,32,33
 400 541 400 541 370.5 570.5 c 128,-1,34
 341 600 341 600 300 600 c 2,35,-1
 200 600 l 2,22,23
300 100 m 2,36,37
 342 100 342 100 371 129.5 c 128,-1,38
 400 159 400 159 400 200 c 256,39,40
 400 241 400 241 370.5 270.5 c 128,-1,41
 341 300 341 300 300 300 c 2,42,-1
 200 300 l 2,43,44
 159 300 159 300 129.5 270.5 c 128,-1,45
 100 241 100 241 100 200 c 256,46,47
 100 159 100 159 129.5 129.5 c 128,-1,48
 159 100 159 100 200 100 c 2,49,-1
 300 100 l 2,36,37
EndSplineSet
Substitution2: "<9,0> Compose Diacritics in Latin lookup 8 nested-substitutions 6 subtable" <Delete>
Substitution2: "<9,0> Compose Diacritics in Latin lookup 8 nested-substitutions 5 subtable" <Delete>
Substitution2: "<9,0> Compose Diacritics in Latin lookup 8 nested-substitutions 4 subtable" <Delete>
Substitution2: "<9,0> Compose Diacritics in Latin lookup 8 nested-substitutions 2 subtable" <Delete>
Substitution2: "<9,0> Compose Diacritics in Latin lookup 8 nested-substitutions 0 subtable" <Delete>
EndChar

StartChar: nine
Encoding: 57 57 28
Width: 600
Flags: W
LayerCount: 2
Fore
SplineSet
500 200 m 2,0,1
 500 118 500 118 441 59 c 128,-1,2
 382 0 382 0 300 0 c 2,3,-1
 100 0 l 1,4,-1
 100 100 l 1,5,-1
 300 100 l 2,6,7
 341 100 341 100 370.5 129.5 c 128,-1,8
 400 159 400 159 400 200 c 1,9,-1
 200 200 l 2,10,11
 118 200 118 200 59 259 c 128,-1,12
 0 318 0 318 0 400 c 2,13,-1
 0 500 l 2,14,15
 0 582 0 582 59 641 c 128,-1,16
 118 700 118 700 200 700 c 2,17,-1
 300 700 l 2,18,19
 382 700 382 700 441 641 c 128,-1,20
 500 582 500 582 500 500 c 2,21,-1
 500 200 l 2,0,1
400 300 m 1,22,-1
 400 500 l 2,23,24
 400 541 400 541 370.5 570.5 c 128,-1,25
 341 600 341 600 300 600 c 2,26,-1
 200 600 l 2,27,28
 159 600 159 600 129.5 570.5 c 128,-1,29
 100 541 100 541 100 500 c 2,30,-1
 100 400 l 2,31,32
 100 359 100 359 129.5 329.5 c 128,-1,33
 159 300 159 300 200 300 c 2,34,-1
 400 300 l 1,22,-1
EndSplineSet
Substitution2: "<9,0> Compose Diacritics in Latin lookup 8 nested-substitutions 6 subtable" <Delete>
Substitution2: "<9,0> Compose Diacritics in Latin lookup 8 nested-substitutions 5 subtable" <Delete>
Substitution2: "<9,0> Compose Diacritics in Latin lookup 8 nested-substitutions 4 subtable" <Delete>
Substitution2: "<9,0> Compose Diacritics in Latin lookup 8 nested-substitutions 2 subtable" <Delete>
Substitution2: "<9,0> Compose Diacritics in Latin lookup 8 nested-substitutions 0 subtable" <Delete>
EndChar

StartChar: colon
Encoding: 58 58 29
Width: 600
Flags: W
LayerCount: 2
Fore
SplineSet
350 425 m 256,0,1
 350 384 350 384 320.5 354.5 c 128,-1,2
 291 325 291 325 250 325 c 256,3,4
 209 325 209 325 179.5 354.5 c 128,-1,5
 150 384 150 384 150 425 c 256,6,7
 150 466 150 466 179.5 495.5 c 128,-1,8
 209 525 209 525 250 525 c 256,9,10
 291 525 291 525 320.5 495.5 c 128,-1,11
 350 466 350 466 350 425 c 256,0,1
350 125 m 256,12,13
 350 84 350 84 320.5 54.5 c 128,-1,14
 291 25 291 25 250 25 c 256,15,16
 209 25 209 25 179.5 54.5 c 128,-1,17
 150 84 150 84 150 125 c 256,18,19
 150 166 150 166 179.5 195.5 c 128,-1,20
 209 225 209 225 250 225 c 256,21,22
 291 225 291 225 320.5 195.5 c 128,-1,23
 350 166 350 166 350 125 c 256,12,13
EndSplineSet
Substitution2: "<9,0> Compose Diacritics in Latin lookup 8 nested-substitutions 6 subtable" scaron
Substitution2: "<9,0> Compose Diacritics in Latin lookup 8 nested-substitutions 5 subtable" <Delete>
Substitution2: "<9,0> Compose Diacritics in Latin lookup 8 nested-substitutions 4 subtable" odieresis
Substitution2: "<9,0> Compose Diacritics in Latin lookup 8 nested-substitutions 2 subtable" <Delete>
Substitution2: "<9,0> Compose Diacritics in Latin lookup 8 nested-substitutions 0 subtable" ocircumflex
EndChar

StartChar: semicolon
Encoding: 59 59 30
Width: 600
Flags: W
LayerCount: 2
Fore
SplineSet
350 425 m 256,0,1
 350 384 350 384 320.5 354.5 c 128,-1,2
 291 325 291 325 250 325 c 256,3,4
 209 325 209 325 179.5 354.5 c 128,-1,5
 150 384 150 384 150 425 c 256,6,7
 150 466 150 466 179.5 495.5 c 128,-1,8
 209 525 209 525 250 525 c 256,9,10
 291 525 291 525 320.5 495.5 c 128,-1,11
 350 466 350 466 350 425 c 256,0,1
350 -44 m 1,12,-1
 194 -200 l 1,13,-1
 125 -131 l 1,14,-1
 250 -6 l 1,15,-1
 250 25 l 1,16,17
 209 25 209 25 179.5 54.5 c 128,-1,18
 150 84 150 84 150 125 c 256,19,20
 150 166 150 166 179.5 195.5 c 128,-1,21
 209 225 209 225 250 225 c 256,22,23
 291 225 291 225 320.5 195.5 c 128,-1,24
 350 166 350 166 350 125 c 2,25,-1
 350 -44 l 1,12,-1
EndSplineSet
Substitution2: "<9,0> Compose Diacritics in Latin lookup 8 nested-substitutions 6 subtable" <Delete>
Substitution2: "<9,0> Compose Diacritics in Latin lookup 8 nested-substitutions 5 subtable" <Delete>
Substitution2: "<9,0> Compose Diacritics in Latin lookup 8 nested-substitutions 4 subtable" <Delete>
Substitution2: "<9,0> Compose Diacritics in Latin lookup 8 nested-substitutions 2 subtable" <Delete>
Substitution2: "<9,0> Compose Diacritics in Latin lookup 8 nested-substitutions 0 subtable" <Delete>
EndChar

StartChar: less
Encoding: 60 60 31
Width: 600
Flags: W
LayerCount: 2
Fore
SplineSet
525 44 m 1,0,-1
 456 -25 l 1,1,-1
 79 350 l 1,2,-1
 450 719 l 1,3,-1
 519 650 l 1,4,-1
 221 350 l 1,5,-1
 525 44 l 1,0,-1
EndSplineSet
Substitution2: "<9,0> Compose Diacritics in Latin lookup 8 nested-substitutions 6 subtable" uacute
Substitution2: "<9,0> Compose Diacritics in Latin lookup 8 nested-substitutions 5 subtable" <Delete>
Substitution2: "<9,0> Compose Diacritics in Latin lookup 8 nested-substitutions 4 subtable" <Delete>
Substitution2: "<9,0> Compose Diacritics in Latin lookup 8 nested-substitutions 2 subtable" ugrave
Substitution2: "<9,0> Compose Diacritics in Latin lookup 8 nested-substitutions 0 subtable" <Delete>
EndChar

StartChar: equal
Encoding: 61 61 32
Width: 600
Flags: W
LayerCount: 2
Fore
SplineSet
500 400 m 1,0,-1
 0 400 l 1,1,-1
 0 500 l 1,2,-1
 500 500 l 1,3,-1
 500 400 l 1,0,-1
500 200 m 1,4,-1
 0 200 l 1,5,-1
 0 300 l 1,6,-1
 500 300 l 1,7,-1
 500 200 l 1,4,-1
EndSplineSet
Substitution2: "<9,0> Compose Diacritics in Latin lookup 8 nested-substitutions 6 subtable" <Delete>
Substitution2: "<9,0> Compose Diacritics in Latin lookup 8 nested-substitutions 5 subtable" <Delete>
Substitution2: "<9,0> Compose Diacritics in Latin lookup 8 nested-substitutions 4 subtable" <Delete>
Substitution2: "<9,0> Compose Diacritics in Latin lookup 8 nested-substitutions 2 subtable" <Delete>
Substitution2: "<9,0> Compose Diacritics in Latin lookup 8 nested-substitutions 0 subtable" <Delete>
EndChar

StartChar: greater
Encoding: 62 62 33
Width: 600
Flags: W
LayerCount: 2
Fore
SplineSet
521 350 m 1,0,-1
 150 -19 l 1,1,-1
 81 50 l 1,2,-1
 379 350 l 1,3,-1
 75 656 l 1,4,-1
 144 725 l 1,5,-1
 521 350 l 1,0,-1
EndSplineSet
Substitution2: "<9,0> Compose Diacritics in Latin lookup 8 nested-substitutions 6 subtable" <Delete>
Substitution2: "<9,0> Compose Diacritics in Latin lookup 8 nested-substitutions 5 subtable" <Delete>
Substitution2: "<9,0> Compose Diacritics in Latin lookup 8 nested-substitutions 4 subtable" <Delete>
Substitution2: "<9,0> Compose Diacritics in Latin lookup 8 nested-substitutions 2 subtable" <Delete>
Substitution2: "<9,0> Compose Diacritics in Latin lookup 8 nested-substitutions 0 subtable" <Delete>
EndChar

StartChar: question
Encoding: 63 63 34
Width: 600
Flags: W
LayerCount: 2
Fore
SplineSet
500 500 m 0,0,1
 500 450 500 450 478 408 c 1,2,-1
 269 200 l 1,3,-1
 200 200 l 1,4,-1
 200 269 l 1,5,-1
 393 463 l 1,6,7
 400 478 400 478 400 500 c 0,8,9
 400 541 400 541 370.5 570.5 c 128,-1,10
 341 600 341 600 300 600 c 2,11,-1
 200 600 l 2,12,13
 159 600 159 600 129.5 570.5 c 128,-1,14
 100 541 100 541 100 500 c 1,15,-1
 0 500 l 1,16,17
 0 582 0 582 59 641 c 128,-1,18
 118 700 118 700 200 700 c 2,19,-1
 300 700 l 2,20,21
 382 700 382 700 441 641.5 c 128,-1,22
 500 583 500 583 500 500 c 0,0,1
300 50 m 256,23,24
 300 29 300 29 285.5 14.5 c 128,-1,25
 271 0 271 0 250 0 c 256,26,27
 229 0 229 0 214.5 14.5 c 128,-1,28
 200 29 200 29 200 50 c 256,29,30
 200 71 200 71 214.5 85.5 c 128,-1,31
 229 100 229 100 250 100 c 256,32,33
 271 100 271 100 285.5 85.5 c 128,-1,34
 300 71 300 71 300 50 c 256,23,24
EndSplineSet
Substitution2: "<9,0> Compose Diacritics in Latin lookup 8 nested-substitutions 6 subtable" <Delete>
Substitution2: "<9,0> Compose Diacritics in Latin lookup 8 nested-substitutions 5 subtable" <Delete>
Substitution2: "<9,0> Compose Diacritics in Latin lookup 8 nested-substitutions 4 subtable" <Delete>
Substitution2: "<9,0> Compose Diacritics in Latin lookup 8 nested-substitutions 2 subtable" <Delete>
Substitution2: "<9,0> Compose Diacritics in Latin lookup 8 nested-substitutions 0 subtable" <Delete>
EndChar

StartChar: at
Encoding: 64 64 35
Width: 600
Flags: W
LayerCount: 2
Fore
SplineSet
500 0 m 1,0,-1
 200 0 l 2,1,2
 118 0 118 0 59 59 c 128,-1,3
 0 118 0 118 0 200 c 2,4,-1
 0 500 l 2,5,6
 0 582 0 582 59 641 c 128,-1,7
 118 700 118 700 200 700 c 2,8,-1
 300 700 l 2,9,10
 382 700 382 700 441 641 c 128,-1,11
 500 582 500 582 500 500 c 2,12,-1
 500 300 l 2,13,14
 500 258 500 258 470.5 229 c 128,-1,15
 441 200 441 200 400 200 c 2,16,-1
 300 200 l 2,17,18
 259 200 259 200 229.5 230.5 c 128,-1,19
 200 261 200 261 200 300 c 2,20,-1
 200 400 l 2,21,22
 200 441 200 441 229.5 470.5 c 128,-1,23
 259 500 259 500 300 500 c 2,24,-1
 400 500 l 1,25,26
 400 541 400 541 370.5 570.5 c 128,-1,27
 341 600 341 600 300 600 c 2,28,-1
 200 600 l 2,29,30
 159 600 159 600 129.5 570.5 c 128,-1,31
 100 541 100 541 100 500 c 2,32,-1
 100 200 l 2,33,34
 100 159 100 159 129.5 129.5 c 128,-1,35
 159 100 159 100 200 100 c 2,36,-1
 500 100 l 1,37,-1
 500 0 l 1,0,-1
400 325 m 2,38,-1
 400 375 l 2,39,40
 400 400 400 400 375 400 c 2,41,-1
 325 400 l 2,42,43
 300 400 300 400 300 375 c 2,44,-1
 300 325 l 2,45,46
 300 300 300 300 325 300 c 2,47,-1
 375 300 l 2,48,49
 400 300 400 300 400 325 c 2,38,-1
EndSplineSet
Substitution2: "<9,0> Compose Diacritics in Latin lookup 8 nested-substitutions 6 subtable" yacute
Substitution2: "<9,0> Compose Diacritics in Latin lookup 8 nested-substitutions 5 subtable" otilde
Substitution2: "<9,0> Compose Diacritics in Latin lookup 8 nested-substitutions 4 subtable" udieresis
Substitution2: "<9,0> Compose Diacritics in Latin lookup 8 nested-substitutions 2 subtable" ydieresis
Substitution2: "<9,0> Compose Diacritics in Latin lookup 8 nested-substitutions 0 subtable" ucircumflex
EndChar

StartChar: A
Encoding: 65 65 36
Width: 600
Flags: W
LayerCount: 2
Fore
SplineSet
100 200 m 1,0,-1
 100 0 l 1,1,-1
 0 0 l 1,2,-1
 0 325 l 1,3,-1
 188 700 l 1,4,-1
 313 700 l 1,5,-1
 500 325 l 1,6,-1
 500 0 l 1,7,-1
 400 0 l 1,8,-1
 400 200 l 1,9,-1
 100 200 l 1,0,-1
250 600 m 1,10,-1
 100 300 l 1,11,-1
 400 300 l 1,12,-1
 250 600 l 1,10,-1
EndSplineSet
Substitution2: "<9,0> Compose Diacritics in Latin lookup 8 nested-substitutions 6 subtable" Aring
Substitution2: "<9,0> Compose Diacritics in Latin lookup 8 nested-substitutions 5 subtable" Atilde
Substitution2: "<9,0> Compose Diacritics in Latin lookup 8 nested-substitutions 4 subtable" Acircumflex
Substitution2: "<9,0> Compose Diacritics in Latin lookup 8 nested-substitutions 3 subtable" Adieresis
Substitution2: "<9,0> Compose Diacritics in Latin lookup 8 nested-substitutions 2 subtable" Aacute
Substitution2: "<9,0> Compose Diacritics in Latin lookup 8 nested-substitutions 0 subtable" Agrave
Substitution2: "<3,4> Initial Caps in Latin lookup 3 nested-substitutions 0 subtable" a
Substitution2: "<3,2> All Lower Case in Latin lookup 2 subtable" a
EndChar

StartChar: B
Encoding: 66 66 37
Width: 600
Flags: W
LayerCount: 2
Fore
SplineSet
500 500 m 0,0,1
 500 410 500 410 415 350 c 1,2,3
 500 290 500 290 500 200 c 0,4,5
 500 117 500 117 441.5 58.5 c 128,-1,6
 383 0 383 0 300 0 c 2,7,-1
 0 0 l 1,8,-1
 0 700 l 1,9,-1
 300 700 l 2,10,11
 383 700 383 700 441.5 641.5 c 128,-1,12
 500 583 500 583 500 500 c 0,0,1
100 600 m 1,13,-1
 100 400 l 1,14,-1
 300 400 l 2,15,16
 341 400 341 400 370.5 429.5 c 128,-1,17
 400 459 400 459 400 500 c 256,18,19
 400 541 400 541 370.5 570.5 c 128,-1,20
 341 600 341 600 300 600 c 2,21,-1
 100 600 l 1,13,-1
100 300 m 1,22,-1
 100 100 l 1,23,-1
 300 100 l 2,24,25
 341 100 341 100 370.5 129.5 c 128,-1,26
 400 159 400 159 400 200 c 256,27,28
 400 241 400 241 370.5 270.5 c 128,-1,29
 341 300 341 300 300 300 c 2,30,-1
 100 300 l 1,22,-1
EndSplineSet
Substitution2: "<9,0> Compose Diacritics in Latin lookup 8 nested-substitutions 6 subtable" <Delete>
Substitution2: "<9,0> Compose Diacritics in Latin lookup 8 nested-substitutions 5 subtable" <Delete>
Substitution2: "<9,0> Compose Diacritics in Latin lookup 8 nested-substitutions 4 subtable" <Delete>
Substitution2: "<9,0> Compose Diacritics in Latin lookup 8 nested-substitutions 3 subtable" <Delete>
Substitution2: "<9,0> Compose Diacritics in Latin lookup 8 nested-substitutions 2 subtable" <Delete>
Substitution2: "<9,0> Compose Diacritics in Latin lookup 8 nested-substitutions 0 subtable" <Delete>
Substitution2: "<3,4> Initial Caps in Latin lookup 3 nested-substitutions 0 subtable" b
Substitution2: "<3,2> All Lower Case in Latin lookup 2 subtable" b
EndChar

StartChar: C
Encoding: 67 67 38
Width: 600
Flags: W
LayerCount: 2
Fore
SplineSet
500 200 m 1,0,1
 500 118 500 118 441 59 c 128,-1,2
 382 0 382 0 300 0 c 2,3,-1
 200 0 l 2,4,5
 118 0 118 0 59 59 c 128,-1,6
 0 118 0 118 0 200 c 2,7,-1
 0 500 l 2,8,9
 0 582 0 582 59 641 c 128,-1,10
 118 700 118 700 200 700 c 2,11,-1
 300 700 l 2,12,13
 382 700 382 700 441 641 c 128,-1,14
 500 582 500 582 500 500 c 1,15,-1
 400 500 l 1,16,17
 400 541 400 541 370.5 570.5 c 128,-1,18
 341 600 341 600 300 600 c 2,19,-1
 200 600 l 2,20,21
 159 600 159 600 129.5 570.5 c 128,-1,22
 100 541 100 541 100 500 c 2,23,-1
 100 200 l 2,24,25
 100 159 100 159 129.5 129.5 c 128,-1,26
 159 100 159 100 200 100 c 2,27,-1
 300 100 l 2,28,29
 341 100 341 100 370.5 129.5 c 128,-1,30
 400 159 400 159 400 200 c 1,31,-1
 500 200 l 1,0,1
EndSplineSet
Substitution2: "<9,0> Compose Diacritics in Latin lookup 8 nested-substitutions 6 subtable" <Delete>
Substitution2: "<9,0> Compose Diacritics in Latin lookup 8 nested-substitutions 5 subtable" <Delete>
Substitution2: "<9,0> Compose Diacritics in Latin lookup 8 nested-substitutions 4 subtable" <Delete>
Substitution2: "<9,0> Compose Diacritics in Latin lookup 8 nested-substitutions 3 subtable" Ccedilla
Substitution2: "<9,0> Compose Diacritics in Latin lookup 8 nested-substitutions 2 subtable" <Delete>
Substitution2: "<9,0> Compose Diacritics in Latin lookup 8 nested-substitutions 0 subtable" <Delete>
Substitution2: "<3,4> Initial Caps in Latin lookup 3 nested-substitutions 0 subtable" c
Substitution2: "<3,2> All Lower Case in Latin lookup 2 subtable" c
EndChar

StartChar: D
Encoding: 68 68 39
Width: 600
Flags: W
LayerCount: 2
Fore
SplineSet
500 200 m 2,0,1
 500 118 500 118 441 59 c 128,-1,2
 382 0 382 0 300 0 c 2,3,-1
 0 0 l 1,4,-1
 0 700 l 1,5,-1
 300 700 l 2,6,7
 382 700 382 700 441 641 c 128,-1,8
 500 582 500 582 500 500 c 2,9,-1
 500 200 l 2,0,1
400 200 m 2,10,-1
 400 500 l 2,11,12
 400 541 400 541 370.5 570.5 c 128,-1,13
 341 600 341 600 300 600 c 2,14,-1
 100 600 l 1,15,-1
 100 100 l 1,16,-1
 300 100 l 2,17,18
 341 100 341 100 370.5 129.5 c 128,-1,19
 400 159 400 159 400 200 c 2,10,-1
EndSplineSet
Substitution2: "<9,0> Compose Diacritics in Latin lookup 8 nested-substitutions 6 subtable" <Delete>
Substitution2: "<9,0> Compose Diacritics in Latin lookup 8 nested-substitutions 5 subtable" <Delete>
Substitution2: "<9,0> Compose Diacritics in Latin lookup 8 nested-substitutions 4 subtable" <Delete>
Substitution2: "<9,0> Compose Diacritics in Latin lookup 8 nested-substitutions 3 subtable" <Delete>
Substitution2: "<9,0> Compose Diacritics in Latin lookup 8 nested-substitutions 2 subtable" <Delete>
Substitution2: "<9,0> Compose Diacritics in Latin lookup 8 nested-substitutions 0 subtable" <Delete>
Substitution2: "<3,4> Initial Caps in Latin lookup 3 nested-substitutions 0 subtable" d
Substitution2: "<3,2> All Lower Case in Latin lookup 2 subtable" d
EndChar

StartChar: E
Encoding: 69 69 40
Width: 600
Flags: W
LayerCount: 2
Fore
SplineSet
500 0 m 1,0,-1
 0 0 l 1,1,-1
 0 700 l 1,2,-1
 500 700 l 1,3,-1
 500 600 l 1,4,-1
 100 600 l 1,5,-1
 100 400 l 1,6,-1
 400 400 l 1,7,-1
 400 300 l 1,8,-1
 100 300 l 1,9,-1
 100 100 l 1,10,-1
 500 100 l 1,11,-1
 500 0 l 1,0,-1
EndSplineSet
Substitution2: "<9,0> Compose Diacritics in Latin lookup 8 nested-substitutions 6 subtable" Egrave
Substitution2: "<9,0> Compose Diacritics in Latin lookup 8 nested-substitutions 5 subtable" <Delete>
Substitution2: "<9,0> Compose Diacritics in Latin lookup 8 nested-substitutions 4 subtable" <Delete>
Substitution2: "<9,0> Compose Diacritics in Latin lookup 8 nested-substitutions 3 subtable" Eacute
Substitution2: "<9,0> Compose Diacritics in Latin lookup 8 nested-substitutions 2 subtable" Ecircumflex
Substitution2: "<9,0> Compose Diacritics in Latin lookup 8 nested-substitutions 0 subtable" Edieresis
Substitution2: "<3,4> Initial Caps in Latin lookup 3 nested-substitutions 0 subtable" e
Substitution2: "<3,2> All Lower Case in Latin lookup 2 subtable" e
EndChar

StartChar: F
Encoding: 70 70 41
Width: 600
Flags: W
LayerCount: 2
Fore
SplineSet
500 600 m 1,0,-1
 100 600 l 1,1,-1
 100 400 l 1,2,-1
 400 400 l 1,3,-1
 400 300 l 1,4,-1
 100 300 l 1,5,-1
 100 0 l 1,6,-1
 0 0 l 1,7,-1
 0 700 l 1,8,-1
 500 700 l 1,9,-1
 500 600 l 1,0,-1
EndSplineSet
Substitution2: "<9,0> Compose Diacritics in Latin lookup 8 nested-substitutions 6 subtable" <Delete>
Substitution2: "<9,0> Compose Diacritics in Latin lookup 8 nested-substitutions 5 subtable" <Delete>
Substitution2: "<9,0> Compose Diacritics in Latin lookup 8 nested-substitutions 4 subtable" <Delete>
Substitution2: "<9,0> Compose Diacritics in Latin lookup 8 nested-substitutions 3 subtable" <Delete>
Substitution2: "<9,0> Compose Diacritics in Latin lookup 8 nested-substitutions 2 subtable" <Delete>
Substitution2: "<9,0> Compose Diacritics in Latin lookup 8 nested-substitutions 0 subtable" <Delete>
Substitution2: "<3,4> Initial Caps in Latin lookup 3 nested-substitutions 0 subtable" f
Substitution2: "<3,2> All Lower Case in Latin lookup 2 subtable" f
EndChar

StartChar: G
Encoding: 71 71 42
Width: 600
Flags: W
LayerCount: 2
Fore
SplineSet
500 200 m 2,0,1
 500 118 500 118 441 59 c 128,-1,2
 382 0 382 0 300 0 c 2,3,-1
 200 0 l 2,4,5
 118 0 118 0 59 59 c 128,-1,6
 0 118 0 118 0 200 c 2,7,-1
 0 500 l 2,8,9
 0 582 0 582 59 641 c 128,-1,10
 118 700 118 700 200 700 c 2,11,-1
 300 700 l 2,12,13
 382 700 382 700 441 641 c 128,-1,14
 500 582 500 582 500 500 c 1,15,-1
 400 500 l 1,16,17
 400 541 400 541 370.5 570.5 c 128,-1,18
 341 600 341 600 300 600 c 2,19,-1
 200 600 l 2,20,21
 159 600 159 600 129.5 570.5 c 128,-1,22
 100 541 100 541 100 500 c 2,23,-1
 100 200 l 2,24,25
 100 159 100 159 129.5 129.5 c 128,-1,26
 159 100 159 100 200 100 c 2,27,-1
 300 100 l 2,28,29
 341 100 341 100 370.5 129.5 c 128,-1,30
 400 159 400 159 400 200 c 2,31,-1
 400 300 l 1,32,-1
 300 300 l 1,33,-1
 300 400 l 1,34,-1
 500 400 l 1,35,-1
 500 200 l 2,0,1
EndSplineSet
Substitution2: "<9,0> Compose Diacritics in Latin lookup 8 nested-substitutions 6 subtable" <Delete>
Substitution2: "<9,0> Compose Diacritics in Latin lookup 8 nested-substitutions 5 subtable" <Delete>
Substitution2: "<9,0> Compose Diacritics in Latin lookup 8 nested-substitutions 4 subtable" <Delete>
Substitution2: "<9,0> Compose Diacritics in Latin lookup 8 nested-substitutions 3 subtable" <Delete>
Substitution2: "<9,0> Compose Diacritics in Latin lookup 8 nested-substitutions 2 subtable" <Delete>
Substitution2: "<9,0> Compose Diacritics in Latin lookup 8 nested-substitutions 0 subtable" <Delete>
Substitution2: "<3,4> Initial Caps in Latin lookup 3 nested-substitutions 0 subtable" g
Substitution2: "<3,2> All Lower Case in Latin lookup 2 subtable" g
EndChar

StartChar: H
Encoding: 72 72 43
Width: 600
Flags: W
LayerCount: 2
Fore
SplineSet
500 0 m 1,0,-1
 400 0 l 1,1,-1
 400 300 l 1,2,-1
 100 300 l 1,3,-1
 100 0 l 1,4,-1
 0 0 l 1,5,-1
 0 700 l 1,6,-1
 100 700 l 1,7,-1
 100 400 l 1,8,-1
 400 400 l 1,9,-1
 400 700 l 1,10,-1
 500 700 l 1,11,-1
 500 0 l 1,0,-1
EndSplineSet
Substitution2: "<9,0> Compose Diacritics in Latin lookup 8 nested-substitutions 6 subtable" <Delete>
Substitution2: "<9,0> Compose Diacritics in Latin lookup 8 nested-substitutions 5 subtable" <Delete>
Substitution2: "<9,0> Compose Diacritics in Latin lookup 8 nested-substitutions 4 subtable" <Delete>
Substitution2: "<9,0> Compose Diacritics in Latin lookup 8 nested-substitutions 3 subtable" <Delete>
Substitution2: "<9,0> Compose Diacritics in Latin lookup 8 nested-substitutions 2 subtable" <Delete>
Substitution2: "<9,0> Compose Diacritics in Latin lookup 8 nested-substitutions 0 subtable" <Delete>
Substitution2: "<3,4> Initial Caps in Latin lookup 3 nested-substitutions 0 subtable" h
Substitution2: "<3,2> All Lower Case in Latin lookup 2 subtable" h
EndChar

StartChar: I
Encoding: 73 73 44
Width: 600
Flags: W
LayerCount: 2
Fore
SplineSet
500 0 m 1,0,-1
 0 0 l 1,1,-1
 0 100 l 1,2,-1
 200 100 l 1,3,-1
 200 600 l 1,4,-1
 0 600 l 1,5,-1
 0 700 l 1,6,-1
 500 700 l 1,7,-1
 500 600 l 1,8,-1
 300 600 l 1,9,-1
 300 100 l 1,10,-1
 500 100 l 1,11,-1
 500 0 l 1,0,-1
EndSplineSet
Substitution2: "<9,0> Compose Diacritics in Latin lookup 8 nested-substitutions 6 subtable" Igrave
Substitution2: "<9,0> Compose Diacritics in Latin lookup 8 nested-substitutions 5 subtable" <Delete>
Substitution2: "<9,0> Compose Diacritics in Latin lookup 8 nested-substitutions 4 subtable" <Delete>
Substitution2: "<9,0> Compose Diacritics in Latin lookup 8 nested-substitutions 3 subtable" Iacute
Substitution2: "<9,0> Compose Diacritics in Latin lookup 8 nested-substitutions 2 subtable" Icircumflex
Substitution2: "<9,0> Compose Diacritics in Latin lookup 8 nested-substitutions 0 subtable" Idieresis
Substitution2: "<3,4> Initial Caps in Latin lookup 3 nested-substitutions 0 subtable" i
Substitution2: "<3,2> All Lower Case in Latin lookup 2 subtable" i
EndChar

StartChar: J
Encoding: 74 74 45
Width: 600
Flags: W
LayerCount: 2
Fore
SplineSet
500 200 m 2,0,1
 500 117 500 117 441 58.5 c 128,-1,2
 382 0 382 0 300 0 c 2,3,-1
 200 0 l 2,4,5
 118 0 118 0 59 59 c 128,-1,6
 0 118 0 118 0 200 c 2,7,-1
 0 300 l 1,8,-1
 100 300 l 1,9,-1
 100 200 l 2,10,11
 100 159 100 159 129.5 129.5 c 128,-1,12
 159 100 159 100 200 100 c 2,13,-1
 300 100 l 2,14,15
 341 100 341 100 370.5 129.5 c 128,-1,16
 400 159 400 159 400 200 c 2,17,-1
 400 700 l 1,18,-1
 500 700 l 1,19,-1
 500 200 l 2,0,1
EndSplineSet
Substitution2: "<9,0> Compose Diacritics in Latin lookup 8 nested-substitutions 6 subtable" <Delete>
Substitution2: "<9,0> Compose Diacritics in Latin lookup 8 nested-substitutions 5 subtable" <Delete>
Substitution2: "<9,0> Compose Diacritics in Latin lookup 8 nested-substitutions 4 subtable" <Delete>
Substitution2: "<9,0> Compose Diacritics in Latin lookup 8 nested-substitutions 3 subtable" <Delete>
Substitution2: "<9,0> Compose Diacritics in Latin lookup 8 nested-substitutions 2 subtable" <Delete>
Substitution2: "<9,0> Compose Diacritics in Latin lookup 8 nested-substitutions 0 subtable" <Delete>
Substitution2: "<3,4> Initial Caps in Latin lookup 3 nested-substitutions 0 subtable" j
Substitution2: "<3,2> All Lower Case in Latin lookup 2 subtable" j
EndChar

StartChar: K
Encoding: 75 75 46
Width: 600
Flags: W
LayerCount: 2
Fore
SplineSet
500 0 m 1,0,-1
 400 0 l 1,1,-1
 100 300 l 1,2,-1
 100 0 l 1,3,-1
 0 0 l 1,4,-1
 0 700 l 1,5,-1
 100 700 l 1,6,-1
 100 400 l 1,7,-1
 400 700 l 1,8,-1
 500 700 l 1,9,-1
 500 663 l 1,10,-1
 187 350 l 1,11,-1
 500 38 l 1,12,-1
 500 0 l 1,0,-1
EndSplineSet
Substitution2: "<9,0> Compose Diacritics in Latin lookup 8 nested-substitutions 6 subtable" <Delete>
Substitution2: "<9,0> Compose Diacritics in Latin lookup 8 nested-substitutions 5 subtable" <Delete>
Substitution2: "<9,0> Compose Diacritics in Latin lookup 8 nested-substitutions 4 subtable" <Delete>
Substitution2: "<9,0> Compose Diacritics in Latin lookup 8 nested-substitutions 3 subtable" <Delete>
Substitution2: "<9,0> Compose Diacritics in Latin lookup 8 nested-substitutions 2 subtable" <Delete>
Substitution2: "<9,0> Compose Diacritics in Latin lookup 8 nested-substitutions 0 subtable" <Delete>
Substitution2: "<3,4> Initial Caps in Latin lookup 3 nested-substitutions 0 subtable" k
Substitution2: "<3,2> All Lower Case in Latin lookup 2 subtable" k
EndChar

StartChar: L
Encoding: 76 76 47
Width: 600
Flags: W
LayerCount: 2
Fore
SplineSet
500 0 m 1,0,-1
 0 0 l 1,1,-1
 0 700 l 1,2,-1
 100 700 l 1,3,-1
 100 100 l 1,4,-1
 500 100 l 1,5,-1
 500 0 l 1,0,-1
EndSplineSet
Substitution2: "<9,0> Compose Diacritics in Latin lookup 8 nested-substitutions 6 subtable" <Delete>
Substitution2: "<9,0> Compose Diacritics in Latin lookup 8 nested-substitutions 5 subtable" <Delete>
Substitution2: "<9,0> Compose Diacritics in Latin lookup 8 nested-substitutions 4 subtable" <Delete>
Substitution2: "<9,0> Compose Diacritics in Latin lookup 8 nested-substitutions 3 subtable" <Delete>
Substitution2: "<9,0> Compose Diacritics in Latin lookup 8 nested-substitutions 2 subtable" <Delete>
Substitution2: "<9,0> Compose Diacritics in Latin lookup 8 nested-substitutions 0 subtable" <Delete>
Substitution2: "<3,4> Initial Caps in Latin lookup 3 nested-substitutions 0 subtable" l
Substitution2: "<3,2> All Lower Case in Latin lookup 2 subtable" l
EndChar

StartChar: M
Encoding: 77 77 48
Width: 600
Flags: W
LayerCount: 2
Fore
SplineSet
500 0 m 1,0,-1
 400 0 l 1,1,-1
 400 525 l 1,2,-1
 300 425 l 1,3,-1
 300 300 l 1,4,-1
 200 300 l 1,5,-1
 200 425 l 1,6,-1
 100 525 l 1,7,-1
 100 0 l 1,8,-1
 0 0 l 1,9,-1
 0 700 l 1,10,-1
 75 700 l 1,11,-1
 250 525 l 1,12,-1
 425 700 l 1,13,-1
 500 700 l 1,14,-1
 500 0 l 1,0,-1
EndSplineSet
Substitution2: "<9,0> Compose Diacritics in Latin lookup 8 nested-substitutions 6 subtable" <Delete>
Substitution2: "<9,0> Compose Diacritics in Latin lookup 8 nested-substitutions 5 subtable" <Delete>
Substitution2: "<9,0> Compose Diacritics in Latin lookup 8 nested-substitutions 4 subtable" <Delete>
Substitution2: "<9,0> Compose Diacritics in Latin lookup 8 nested-substitutions 3 subtable" <Delete>
Substitution2: "<9,0> Compose Diacritics in Latin lookup 8 nested-substitutions 2 subtable" <Delete>
Substitution2: "<9,0> Compose Diacritics in Latin lookup 8 nested-substitutions 0 subtable" <Delete>
Substitution2: "<3,4> Initial Caps in Latin lookup 3 nested-substitutions 0 subtable" m
Substitution2: "<3,2> All Lower Case in Latin lookup 2 subtable" m
EndChar

StartChar: N
Encoding: 78 78 49
Width: 600
Flags: W
LayerCount: 2
Fore
SplineSet
500 0 m 1,0,-1
 400 0 l 1,1,-1
 400 231 l 1,2,-1
 100 531 l 1,3,-1
 100 0 l 1,4,-1
 0 0 l 1,5,-1
 0 700 l 1,6,-1
 69 700 l 1,7,-1
 400 369 l 1,8,-1
 400 700 l 1,9,-1
 500 700 l 1,10,-1
 500 0 l 1,0,-1
EndSplineSet
Substitution2: "<9,0> Compose Diacritics in Latin lookup 8 nested-substitutions 6 subtable" <Delete>
Substitution2: "<9,0> Compose Diacritics in Latin lookup 8 nested-substitutions 5 subtable" <Delete>
Substitution2: "<9,0> Compose Diacritics in Latin lookup 8 nested-substitutions 4 subtable" <Delete>
Substitution2: "<9,0> Compose Diacritics in Latin lookup 8 nested-substitutions 3 subtable" Ntilde
Substitution2: "<9,0> Compose Diacritics in Latin lookup 8 nested-substitutions 2 subtable" <Delete>
Substitution2: "<9,0> Compose Diacritics in Latin lookup 8 nested-substitutions 0 subtable" <Delete>
Substitution2: "<3,4> Initial Caps in Latin lookup 3 nested-substitutions 0 subtable" n
Substitution2: "<3,2> All Lower Case in Latin lookup 2 subtable" n
EndChar

StartChar: O
Encoding: 79 79 50
Width: 600
Flags: W
LayerCount: 2
Fore
SplineSet
500 200 m 2,0,1
 500 118 500 118 441 59 c 128,-1,2
 382 0 382 0 300 0 c 2,3,-1
 200 0 l 2,4,5
 118 0 118 0 59 59 c 128,-1,6
 0 118 0 118 0 200 c 2,7,-1
 0 500 l 2,8,9
 0 582 0 582 59 641 c 128,-1,10
 118 700 118 700 200 700 c 2,11,-1
 300 700 l 2,12,13
 382 700 382 700 441 641 c 128,-1,14
 500 582 500 582 500 500 c 2,15,-1
 500 200 l 2,0,1
400 200 m 2,16,-1
 400 500 l 2,17,18
 400 541 400 541 370.5 570.5 c 128,-1,19
 341 600 341 600 300 600 c 2,20,-1
 200 600 l 2,21,22
 159 600 159 600 129.5 570.5 c 128,-1,23
 100 541 100 541 100 500 c 2,24,-1
 100 200 l 2,25,26
 100 159 100 159 129.5 129.5 c 128,-1,27
 159 100 159 100 200 100 c 2,28,-1
 300 100 l 2,29,30
 341 100 341 100 370.5 129.5 c 128,-1,31
 400 159 400 159 400 200 c 2,16,-1
EndSplineSet
Substitution2: "<9,0> Compose Diacritics in Latin lookup 8 nested-substitutions 6 subtable" Ograve
Substitution2: "<9,0> Compose Diacritics in Latin lookup 8 nested-substitutions 5 subtable" Oslash
Substitution2: "<9,0> Compose Diacritics in Latin lookup 8 nested-substitutions 4 subtable" Otilde
Substitution2: "<9,0> Compose Diacritics in Latin lookup 8 nested-substitutions 3 subtable" Oacute
Substitution2: "<9,0> Compose Diacritics in Latin lookup 8 nested-substitutions 2 subtable" Ocircumflex
Substitution2: "<9,0> Compose Diacritics in Latin lookup 8 nested-substitutions 0 subtable" Odieresis
Substitution2: "<3,4> Initial Caps in Latin lookup 3 nested-substitutions 0 subtable" o
Substitution2: "<3,2> All Lower Case in Latin lookup 2 subtable" o
EndChar

StartChar: P
Encoding: 80 80 51
Width: 600
Flags: W
LayerCount: 2
Fore
SplineSet
500 500 m 0,0,1
 500 418 500 418 441 359 c 128,-1,2
 382 300 382 300 300 300 c 2,3,-1
 100 300 l 1,4,-1
 100 0 l 1,5,-1
 0 0 l 1,6,-1
 0 700 l 1,7,-1
 300 700 l 2,8,9
 383 700 383 700 441.5 641.5 c 128,-1,10
 500 583 500 583 500 500 c 0,0,1
400 500 m 256,11,12
 400 541 400 541 370.5 570.5 c 128,-1,13
 341 600 341 600 300 600 c 2,14,-1
 100 600 l 1,15,-1
 100 400 l 1,16,-1
 300 400 l 2,17,18
 341 400 341 400 370.5 429.5 c 128,-1,19
 400 459 400 459 400 500 c 256,11,12
EndSplineSet
Substitution2: "<9,0> Compose Diacritics in Latin lookup 8 nested-substitutions 6 subtable" <Delete>
Substitution2: "<9,0> Compose Diacritics in Latin lookup 8 nested-substitutions 5 subtable" <Delete>
Substitution2: "<9,0> Compose Diacritics in Latin lookup 8 nested-substitutions 4 subtable" <Delete>
Substitution2: "<9,0> Compose Diacritics in Latin lookup 8 nested-substitutions 3 subtable" <Delete>
Substitution2: "<9,0> Compose Diacritics in Latin lookup 8 nested-substitutions 2 subtable" <Delete>
Substitution2: "<9,0> Compose Diacritics in Latin lookup 8 nested-substitutions 0 subtable" <Delete>
Substitution2: "<3,4> Initial Caps in Latin lookup 3 nested-substitutions 0 subtable" p
Substitution2: "<3,2> All Lower Case in Latin lookup 2 subtable" p
EndChar

StartChar: Q
Encoding: 81 81 52
Width: 600
Flags: W
LayerCount: 2
Fore
SplineSet
511 -39 m 1,0,-1
 440 -111 l 1,1,-1
 328 2 l 1,2,3
 310 0 310 0 300 0 c 2,4,-1
 200 0 l 2,5,6
 118 0 118 0 59 59 c 128,-1,7
 0 118 0 118 0 200 c 2,8,-1
 0 500 l 2,9,10
 0 582 0 582 59 641 c 128,-1,11
 118 700 118 700 200 700 c 2,12,-1
 300 700 l 2,13,14
 382 700 382 700 441 641 c 128,-1,15
 500 582 500 582 500 500 c 2,16,-1
 500 200 l 2,17,18
 500 104 500 104 426 45 c 1,19,-1
 511 -39 l 1,0,-1
400 200 m 2,20,-1
 400 500 l 2,21,22
 400 541 400 541 370.5 570.5 c 128,-1,23
 341 600 341 600 300 600 c 2,24,-1
 200 600 l 2,25,26
 159 600 159 600 129.5 570.5 c 128,-1,27
 100 541 100 541 100 500 c 2,28,-1
 100 200 l 2,29,30
 100 158 100 158 129.5 128.5 c 128,-1,31
 159 99 159 99 200 100 c 2,32,-1
 229 101 l 1,33,-1
 190 140 l 1,34,-1
 261 210 l 1,35,-1
 355 116 l 1,36,37
 400 146 400 146 400 200 c 2,20,-1
EndSplineSet
Substitution2: "<9,0> Compose Diacritics in Latin lookup 8 nested-substitutions 6 subtable" <Delete>
Substitution2: "<9,0> Compose Diacritics in Latin lookup 8 nested-substitutions 5 subtable" <Delete>
Substitution2: "<9,0> Compose Diacritics in Latin lookup 8 nested-substitutions 4 subtable" <Delete>
Substitution2: "<9,0> Compose Diacritics in Latin lookup 8 nested-substitutions 3 subtable" <Delete>
Substitution2: "<9,0> Compose Diacritics in Latin lookup 8 nested-substitutions 2 subtable" <Delete>
Substitution2: "<9,0> Compose Diacritics in Latin lookup 8 nested-substitutions 0 subtable" <Delete>
Substitution2: "<3,4> Initial Caps in Latin lookup 3 nested-substitutions 0 subtable" q
Substitution2: "<3,2> All Lower Case in Latin lookup 2 subtable" q
EndChar

StartChar: R
Encoding: 82 82 53
Width: 600
Flags: W
LayerCount: 2
Fore
SplineSet
400 0 m 1,0,-1
 400 200 l 2,1,2
 400 241 400 241 370.5 270.5 c 128,-1,3
 341 300 341 300 300 300 c 2,4,-1
 100 300 l 1,5,-1
 100 0 l 1,6,-1
 0 0 l 1,7,-1
 0 700 l 1,8,-1
 300 700 l 2,9,10
 383 700 383 700 441.5 641.5 c 128,-1,11
 500 583 500 583 500 500 c 0,12,13
 500 410 500 410 415 350 c 1,14,15
 500 290 500 290 500 200 c 2,16,-1
 500 0 l 1,17,-1
 400 0 l 1,0,-1
100 400 m 1,18,-1
 300 400 l 2,19,20
 341 400 341 400 370.5 429.5 c 128,-1,21
 400 459 400 459 400 500 c 256,22,23
 400 541 400 541 370.5 570.5 c 128,-1,24
 341 600 341 600 300 600 c 2,25,-1
 100 600 l 1,26,-1
 100 400 l 1,18,-1
EndSplineSet
Substitution2: "<9,0> Compose Diacritics in Latin lookup 8 nested-substitutions 6 subtable" <Delete>
Substitution2: "<9,0> Compose Diacritics in Latin lookup 8 nested-substitutions 5 subtable" <Delete>
Substitution2: "<9,0> Compose Diacritics in Latin lookup 8 nested-substitutions 4 subtable" <Delete>
Substitution2: "<9,0> Compose Diacritics in Latin lookup 8 nested-substitutions 3 subtable" <Delete>
Substitution2: "<9,0> Compose Diacritics in Latin lookup 8 nested-substitutions 2 subtable" <Delete>
Substitution2: "<9,0> Compose Diacritics in Latin lookup 8 nested-substitutions 0 subtable" <Delete>
Substitution2: "<3,4> Initial Caps in Latin lookup 3 nested-substitutions 0 subtable" r
Substitution2: "<3,2> All Lower Case in Latin lookup 2 subtable" r
EndChar

StartChar: S
Encoding: 83 83 54
Width: 600
Flags: W
LayerCount: 2
Fore
SplineSet
500 200 m 256,0,1
 500 118 500 118 441 59 c 128,-1,2
 382 0 382 0 300 0 c 2,3,-1
 200 0 l 2,4,5
 118 0 118 0 59 58.5 c 128,-1,6
 0 117 0 117 0 200 c 1,7,-1
 100 200 l 1,8,9
 100 159 100 159 129.5 129.5 c 128,-1,10
 159 100 159 100 200 100 c 2,11,-1
 300 100 l 2,12,13
 341 100 341 100 370.5 129.5 c 128,-1,14
 400 159 400 159 400 200 c 256,15,16
 400 241 400 241 370.5 270.5 c 128,-1,17
 341 300 341 300 300 300 c 2,18,-1
 200 300 l 2,19,20
 118 300 118 300 59 359 c 128,-1,21
 0 418 0 418 0 500 c 256,22,23
 0 582 0 582 59 641 c 128,-1,24
 118 700 118 700 200 700 c 2,25,-1
 300 700 l 2,26,27
 382 700 382 700 441 641 c 128,-1,28
 500 582 500 582 500 500 c 1,29,-1
 400 500 l 1,30,31
 400 541 400 541 370.5 570.5 c 128,-1,32
 341 600 341 600 300 600 c 2,33,-1
 200 600 l 2,34,35
 159 600 159 600 129.5 570.5 c 128,-1,36
 100 541 100 541 100 500 c 256,37,38
 100 459 100 459 129.5 429.5 c 128,-1,39
 159 400 159 400 200 400 c 2,40,-1
 300 400 l 2,41,42
 382 400 382 400 441 341 c 128,-1,43
 500 282 500 282 500 200 c 256,0,1
EndSplineSet
Substitution2: "<9,0> Compose Diacritics in Latin lookup 8 nested-substitutions 6 subtable" <Delete>
Substitution2: "<9,0> Compose Diacritics in Latin lookup 8 nested-substitutions 5 subtable" <Delete>
Substitution2: "<9,0> Compose Diacritics in Latin lookup 8 nested-substitutions 4 subtable" <Delete>
Substitution2: "<9,0> Compose Diacritics in Latin lookup 8 nested-substitutions 3 subtable" Scaron
Substitution2: "<9,0> Compose Diacritics in Latin lookup 8 nested-substitutions 2 subtable" <Delete>
Substitution2: "<9,0> Compose Diacritics in Latin lookup 8 nested-substitutions 0 subtable" <Delete>
Substitution2: "<3,4> Initial Caps in Latin lookup 3 nested-substitutions 0 subtable" s
Substitution2: "<3,2> All Lower Case in Latin lookup 2 subtable" s
EndChar

StartChar: T
Encoding: 84 84 55
Width: 600
Flags: W
LayerCount: 2
Fore
SplineSet
500 600 m 1,0,-1
 300 600 l 1,1,-1
 300 0 l 1,2,-1
 200 0 l 1,3,-1
 200 600 l 1,4,-1
 0 600 l 1,5,-1
 0 700 l 1,6,-1
 500 700 l 1,7,-1
 500 600 l 1,0,-1
EndSplineSet
Substitution2: "<9,0> Compose Diacritics in Latin lookup 8 nested-substitutions 6 subtable" <Delete>
Substitution2: "<9,0> Compose Diacritics in Latin lookup 8 nested-substitutions 5 subtable" <Delete>
Substitution2: "<9,0> Compose Diacritics in Latin lookup 8 nested-substitutions 4 subtable" <Delete>
Substitution2: "<9,0> Compose Diacritics in Latin lookup 8 nested-substitutions 3 subtable" <Delete>
Substitution2: "<9,0> Compose Diacritics in Latin lookup 8 nested-substitutions 2 subtable" <Delete>
Substitution2: "<9,0> Compose Diacritics in Latin lookup 8 nested-substitutions 0 subtable" <Delete>
Substitution2: "<3,4> Initial Caps in Latin lookup 3 nested-substitutions 0 subtable" t
Substitution2: "<3,2> All Lower Case in Latin lookup 2 subtable" t
EndChar

StartChar: U
Encoding: 85 85 56
Width: 600
Flags: W
LayerCount: 2
Fore
SplineSet
500 200 m 2,0,1
 500 117 500 117 441 58.5 c 128,-1,2
 382 0 382 0 300 0 c 2,3,-1
 200 0 l 2,4,5
 118 0 118 0 59 58.5 c 128,-1,6
 0 117 0 117 0 200 c 2,7,-1
 0 700 l 1,8,-1
 100 700 l 1,9,-1
 100 200 l 2,10,11
 100 159 100 159 129.5 129.5 c 128,-1,12
 159 100 159 100 200 100 c 2,13,-1
 300 100 l 2,14,15
 341 100 341 100 370.5 129.5 c 128,-1,16
 400 159 400 159 400 200 c 2,17,-1
 400 700 l 1,18,-1
 500 700 l 1,19,-1
 500 200 l 2,0,1
EndSplineSet
Substitution2: "<9,0> Compose Diacritics in Latin lookup 8 nested-substitutions 6 subtable" Ugrave
Substitution2: "<9,0> Compose Diacritics in Latin lookup 8 nested-substitutions 5 subtable" <Delete>
Substitution2: "<9,0> Compose Diacritics in Latin lookup 8 nested-substitutions 4 subtable" <Delete>
Substitution2: "<9,0> Compose Diacritics in Latin lookup 8 nested-substitutions 3 subtable" Uacute
Substitution2: "<9,0> Compose Diacritics in Latin lookup 8 nested-substitutions 2 subtable" Ucircumflex
Substitution2: "<9,0> Compose Diacritics in Latin lookup 8 nested-substitutions 0 subtable" Udieresis
Substitution2: "<3,4> Initial Caps in Latin lookup 3 nested-substitutions 0 subtable" u
Substitution2: "<3,2> All Lower Case in Latin lookup 2 subtable" u
EndChar

StartChar: V
Encoding: 86 86 57
Width: 600
Flags: W
LayerCount: 2
Fore
SplineSet
500 500 m 1,0,-1
 250 0 l 1,1,-1
 0 500 l 1,2,-1
 0 700 l 1,3,-1
 100 700 l 1,4,-1
 100 523 l 1,5,-1
 250 225 l 1,6,-1
 400 525 l 1,7,-1
 400 700 l 1,8,-1
 500 700 l 1,9,-1
 500 500 l 1,0,-1
EndSplineSet
Substitution2: "<9,0> Compose Diacritics in Latin lookup 8 nested-substitutions 6 subtable" <Delete>
Substitution2: "<9,0> Compose Diacritics in Latin lookup 8 nested-substitutions 5 subtable" <Delete>
Substitution2: "<9,0> Compose Diacritics in Latin lookup 8 nested-substitutions 4 subtable" <Delete>
Substitution2: "<9,0> Compose Diacritics in Latin lookup 8 nested-substitutions 3 subtable" <Delete>
Substitution2: "<9,0> Compose Diacritics in Latin lookup 8 nested-substitutions 2 subtable" <Delete>
Substitution2: "<9,0> Compose Diacritics in Latin lookup 8 nested-substitutions 0 subtable" <Delete>
Substitution2: "<3,4> Initial Caps in Latin lookup 3 nested-substitutions 0 subtable" v
Substitution2: "<3,2> All Lower Case in Latin lookup 2 subtable" v
EndChar

StartChar: W
Encoding: 87 87 58
Width: 600
Flags: W
LayerCount: 2
Fore
SplineSet
500 0 m 1,0,-1
 425 0 l 1,1,-1
 250 175 l 1,2,-1
 75 0 l 1,3,-1
 0 0 l 1,4,-1
 0 700 l 1,5,-1
 100 700 l 1,6,-1
 100 175 l 1,7,-1
 200 275 l 1,8,-1
 200 400 l 1,9,-1
 300 400 l 1,10,-1
 300 275 l 1,11,-1
 400 175 l 1,12,-1
 400 700 l 1,13,-1
 500 700 l 1,14,-1
 500 0 l 1,0,-1
EndSplineSet
Substitution2: "<9,0> Compose Diacritics in Latin lookup 8 nested-substitutions 6 subtable" <Delete>
Substitution2: "<9,0> Compose Diacritics in Latin lookup 8 nested-substitutions 5 subtable" <Delete>
Substitution2: "<9,0> Compose Diacritics in Latin lookup 8 nested-substitutions 4 subtable" <Delete>
Substitution2: "<9,0> Compose Diacritics in Latin lookup 8 nested-substitutions 3 subtable" <Delete>
Substitution2: "<9,0> Compose Diacritics in Latin lookup 8 nested-substitutions 2 subtable" <Delete>
Substitution2: "<9,0> Compose Diacritics in Latin lookup 8 nested-substitutions 0 subtable" <Delete>
Substitution2: "<3,4> Initial Caps in Latin lookup 3 nested-substitutions 0 subtable" w
Substitution2: "<3,2> All Lower Case in Latin lookup 2 subtable" w
EndChar

StartChar: X
Encoding: 88 88 59
Width: 600
Flags: W
LayerCount: 2
Fore
SplineSet
500 0 m 1,0,-1
 400 0 l 1,1,-1
 400 131 l 1,2,-1
 250 281 l 1,3,-1
 100 131 l 1,4,-1
 100 0 l 1,5,-1
 0 0 l 1,6,-1
 0 169 l 1,7,-1
 181 350 l 1,8,-1
 0 531 l 1,9,-1
 0 700 l 1,10,-1
 100 700 l 1,11,-1
 100 569 l 1,12,-1
 250 419 l 1,13,-1
 400 569 l 1,14,-1
 400 700 l 1,15,-1
 500 700 l 1,16,-1
 500 531 l 1,17,-1
 319 350 l 1,18,-1
 500 169 l 1,19,-1
 500 0 l 1,0,-1
EndSplineSet
Substitution2: "<9,0> Compose Diacritics in Latin lookup 8 nested-substitutions 6 subtable" <Delete>
Substitution2: "<9,0> Compose Diacritics in Latin lookup 8 nested-substitutions 5 subtable" <Delete>
Substitution2: "<9,0> Compose Diacritics in Latin lookup 8 nested-substitutions 4 subtable" <Delete>
Substitution2: "<9,0> Compose Diacritics in Latin lookup 8 nested-substitutions 3 subtable" <Delete>
Substitution2: "<9,0> Compose Diacritics in Latin lookup 8 nested-substitutions 2 subtable" <Delete>
Substitution2: "<9,0> Compose Diacritics in Latin lookup 8 nested-substitutions 0 subtable" <Delete>
Substitution2: "<3,4> Initial Caps in Latin lookup 3 nested-substitutions 0 subtable" x
Substitution2: "<3,2> All Lower Case in Latin lookup 2 subtable" x
EndChar

StartChar: Y
Encoding: 89 89 60
Width: 600
Flags: W
LayerCount: 2
Fore
SplineSet
500 431 m 1,0,-1
 300 231 l 1,1,-1
 300 0 l 1,2,-1
 200 0 l 1,3,-1
 200 231 l 1,4,-1
 0 431 l 1,5,-1
 0 700 l 1,6,-1
 100 700 l 1,7,-1
 100 469 l 1,8,-1
 250 319 l 1,9,-1
 400 469 l 1,10,-1
 400 700 l 1,11,-1
 500 700 l 1,12,-1
 500 431 l 1,0,-1
EndSplineSet
Substitution2: "<9,0> Compose Diacritics in Latin lookup 8 nested-substitutions 6 subtable" Ydieresis
Substitution2: "<9,0> Compose Diacritics in Latin lookup 8 nested-substitutions 5 subtable" <Delete>
Substitution2: "<9,0> Compose Diacritics in Latin lookup 8 nested-substitutions 4 subtable" <Delete>
Substitution2: "<9,0> Compose Diacritics in Latin lookup 8 nested-substitutions 3 subtable" Yacute
Substitution2: "<9,0> Compose Diacritics in Latin lookup 8 nested-substitutions 2 subtable" <Delete>
Substitution2: "<9,0> Compose Diacritics in Latin lookup 8 nested-substitutions 0 subtable" <Delete>
Substitution2: "<3,4> Initial Caps in Latin lookup 3 nested-substitutions 0 subtable" y
Substitution2: "<3,2> All Lower Case in Latin lookup 2 subtable" y
EndChar

StartChar: Z
Encoding: 90 90 61
Width: 600
Flags: W
LayerCount: 2
Fore
SplineSet
500 0 m 1,0,-1
 0 0 l 1,1,-1
 0 179 l 1,2,-1
 400 578 l 1,3,-1
 400 600 l 1,4,-1
 0 600 l 1,5,-1
 0 700 l 1,6,-1
 500 700 l 1,7,-1
 500 538 l 1,8,-1
 100 138 l 1,9,-1
 100 100 l 1,10,-1
 500 100 l 1,11,-1
 500 0 l 1,0,-1
EndSplineSet
Substitution2: "<9,0> Compose Diacritics in Latin lookup 8 nested-substitutions 6 subtable" <Delete>
Substitution2: "<9,0> Compose Diacritics in Latin lookup 8 nested-substitutions 5 subtable" <Delete>
Substitution2: "<9,0> Compose Diacritics in Latin lookup 8 nested-substitutions 4 subtable" <Delete>
Substitution2: "<9,0> Compose Diacritics in Latin lookup 8 nested-substitutions 3 subtable" <Delete>
Substitution2: "<9,0> Compose Diacritics in Latin lookup 8 nested-substitutions 2 subtable" <Delete>
Substitution2: "<9,0> Compose Diacritics in Latin lookup 8 nested-substitutions 0 subtable" <Delete>
Substitution2: "<3,4> Initial Caps in Latin lookup 3 nested-substitutions 0 subtable" z
Substitution2: "<3,2> All Lower Case in Latin lookup 2 subtable" z
EndChar

StartChar: bracketleft
Encoding: 91 91 62
Width: 600
Flags: W
LayerCount: 2
Fore
SplineSet
400 -100 m 1,0,-1
 200 -100 l 1,1,-1
 200 800 l 1,2,-1
 400 800 l 1,3,-1
 400 700 l 1,4,-1
 300 700 l 1,5,-1
 300 0 l 1,6,-1
 400 0 l 1,7,-1
 400 -100 l 1,0,-1
EndSplineSet
Substitution2: "<9,0> Compose Diacritics in Latin lookup 8 nested-substitutions 6 subtable" <Delete>
Substitution2: "<9,0> Compose Diacritics in Latin lookup 8 nested-substitutions 5 subtable" <Delete>
Substitution2: "<9,0> Compose Diacritics in Latin lookup 8 nested-substitutions 4 subtable" <Delete>
Substitution2: "<9,0> Compose Diacritics in Latin lookup 8 nested-substitutions 3 subtable" <Delete>
Substitution2: "<9,0> Compose Diacritics in Latin lookup 8 nested-substitutions 2 subtable" <Delete>
Substitution2: "<9,0> Compose Diacritics in Latin lookup 8 nested-substitutions 0 subtable" <Delete>
Substitution2: "'rtla' Right to Left Alternates lookup 0 subtable" bracketright
EndChar

StartChar: backslash
Encoding: 92 92 63
Width: 600
Flags: W
LayerCount: 2
Fore
SplineSet
600 -146 m 1,0,-1
 518 -191 l 1,1,-1
 35 755 l 1,2,-1
 124 801 l 1,3,-1
 600 -146 l 1,0,-1
EndSplineSet
Substitution2: "<9,0> Compose Diacritics in Latin lookup 8 nested-substitutions 6 subtable" <Delete>
Substitution2: "<9,0> Compose Diacritics in Latin lookup 8 nested-substitutions 5 subtable" <Delete>
Substitution2: "<9,0> Compose Diacritics in Latin lookup 8 nested-substitutions 4 subtable" <Delete>
Substitution2: "<9,0> Compose Diacritics in Latin lookup 8 nested-substitutions 3 subtable" <Delete>
Substitution2: "<9,0> Compose Diacritics in Latin lookup 8 nested-substitutions 2 subtable" <Delete>
Substitution2: "<9,0> Compose Diacritics in Latin lookup 8 nested-substitutions 0 subtable" <Delete>
EndChar

StartChar: bracketright
Encoding: 93 93 64
Width: 600
Flags: W
LayerCount: 2
Fore
SplineSet
300 -100 m 1,0,-1
 100 -100 l 1,1,-1
 100 0 l 1,2,-1
 200 0 l 1,3,-1
 200 700 l 1,4,-1
 100 700 l 1,5,-1
 100 800 l 1,6,-1
 300 800 l 1,7,-1
 300 -100 l 1,0,-1
EndSplineSet
Substitution2: "<9,0> Compose Diacritics in Latin lookup 8 nested-substitutions 6 subtable" <Delete>
Substitution2: "<9,0> Compose Diacritics in Latin lookup 8 nested-substitutions 5 subtable" <Delete>
Substitution2: "<9,0> Compose Diacritics in Latin lookup 8 nested-substitutions 4 subtable" <Delete>
Substitution2: "<9,0> Compose Diacritics in Latin lookup 8 nested-substitutions 3 subtable" <Delete>
Substitution2: "<9,0> Compose Diacritics in Latin lookup 8 nested-substitutions 2 subtable" <Delete>
Substitution2: "<9,0> Compose Diacritics in Latin lookup 8 nested-substitutions 0 subtable" <Delete>
Substitution2: "'rtla' Right to Left Alternates lookup 0 subtable" bracketleft
EndChar

StartChar: asciicircum
Encoding: 94 94 65
Width: 600
Flags: W
LayerCount: 2
Fore
SplineSet
532 455 m 1,0,-1
 462 384 l 1,1,-1
 267 579 l 1,2,-1
 73 385 l 1,3,-1
 2 456 l 1,4,-1
 267 721 l 1,5,-1
 532 455 l 1,0,-1
EndSplineSet
Substitution2: "<9,0> Compose Diacritics in Latin lookup 8 nested-substitutions 6 subtable" <Delete>
Substitution2: "<9,0> Compose Diacritics in Latin lookup 8 nested-substitutions 5 subtable" <Delete>
Substitution2: "<9,0> Compose Diacritics in Latin lookup 8 nested-substitutions 4 subtable" <Delete>
Substitution2: "<9,0> Compose Diacritics in Latin lookup 8 nested-substitutions 3 subtable" <Delete>
Substitution2: "<9,0> Compose Diacritics in Latin lookup 8 nested-substitutions 2 subtable" <Delete>
Substitution2: "<9,0> Compose Diacritics in Latin lookup 8 nested-substitutions 0 subtable" <Delete>
EndChar

StartChar: underscore
Encoding: 95 95 66
Width: 600
Flags: W
LayerCount: 2
Fore
SplineSet
600 -200 m 1,0,-1
 0 -200 l 1,1,-1
 0 -100 l 1,2,-1
 600 -100 l 1,3,-1
 600 -200 l 1,0,-1
EndSplineSet
Substitution2: "<9,0> Compose Diacritics in Latin lookup 8 nested-substitutions 6 subtable" <Delete>
Substitution2: "<9,0> Compose Diacritics in Latin lookup 8 nested-substitutions 5 subtable" <Delete>
Substitution2: "<9,0> Compose Diacritics in Latin lookup 8 nested-substitutions 4 subtable" <Delete>
Substitution2: "<9,0> Compose Diacritics in Latin lookup 8 nested-substitutions 3 subtable" <Delete>
Substitution2: "<9,0> Compose Diacritics in Latin lookup 8 nested-substitutions 2 subtable" <Delete>
Substitution2: "<9,0> Compose Diacritics in Latin lookup 8 nested-substitutions 0 subtable" <Delete>
EndChar

StartChar: grave
Encoding: 96 96 67
Width: 600
Flags: W
LayerCount: 2
Fore
SplineSet
312 637 m 1,0,-1
 244 569 l 1,1,-1
 81 731 l 1,2,-1
 150 800 l 1,3,-1
 312 637 l 1,0,-1
EndSplineSet
Substitution2: "<9,0> Compose Diacritics in Latin lookup 8 nested-substitutions 6 subtable" <Delete>
Substitution2: "<9,0> Compose Diacritics in Latin lookup 8 nested-substitutions 5 subtable" <Delete>
Substitution2: "<9,0> Compose Diacritics in Latin lookup 8 nested-substitutions 4 subtable" <Delete>
Substitution2: "<9,0> Compose Diacritics in Latin lookup 8 nested-substitutions 3 subtable" <Delete>
Substitution2: "<9,0> Compose Diacritics in Latin lookup 8 nested-substitutions 2 subtable" <Delete>
Substitution2: "<9,0> Compose Diacritics in Latin lookup 8 nested-substitutions 0 subtable" <Delete>
Substitution2: "<9,0> Compose Diacritics in Latin lookup 8 nested-substitutions 1 subtable" <Delete>
EndChar

StartChar: a
Encoding: 97 97 68
Width: 600
Flags: W
LayerCount: 2
Fore
SplineSet
500 500 m 1,0,-1
 500 0 l 1,1,-1
 400 0 l 1,2,-1
 400 138 l 1,3,-1
 338 75 l 2,4,5
 263 0 263 0 200 0 c 0,6,7
 117 0 117 0 58.5 58.5 c 128,-1,8
 0 117 0 117 0 200 c 2,9,-1
 0 300 l 2,10,11
 0 383 0 383 58.5 441.5 c 128,-1,12
 117 500 117 500 200 500 c 2,13,-1
 500 500 l 1,0,-1
200 400 m 2,14,15
 159 400 159 400 129.5 370.5 c 128,-1,16
 100 341 100 341 100 300 c 2,17,-1
 100 200 l 2,18,19
 100 159 100 159 129.5 129.5 c 128,-1,20
 159 100 159 100 200 100 c 0,21,22
 250 100 250 100 300 150 c 2,23,-1
 400 250 l 1,24,-1
 400 400 l 1,25,-1
 200 400 l 2,14,15
EndSplineSet
Substitution2: "<9,0> Compose Diacritics in Latin lookup 8 nested-substitutions 6 subtable" aring
Substitution2: "<9,0> Compose Diacritics in Latin lookup 8 nested-substitutions 5 subtable" atilde
Substitution2: "<9,0> Compose Diacritics in Latin lookup 8 nested-substitutions 4 subtable" acircumflex
Substitution2: "<9,0> Compose Diacritics in Latin lookup 8 nested-substitutions 3 subtable" adieresis
Substitution2: "<9,0> Compose Diacritics in Latin lookup 8 nested-substitutions 2 subtable" aacute
Substitution2: "<9,0> Compose Diacritics in Latin lookup 8 nested-substitutions 0 subtable" agrave
Substitution2: "<3,4> Initial Caps in Latin lookup 3 nested-substitutions 0 subtable" A
Substitution2: "<3,1> All Upper Case in Latin lookup 1 subtable" A
EndChar

StartChar: b
Encoding: 98 98 69
Width: 600
Flags: W
LayerCount: 2
Fore
SplineSet
500 200 m 2,0,1
 500 118 500 118 441 59 c 128,-1,2
 382 0 382 0 300 0 c 2,3,-1
 0 0 l 1,4,-1
 0 700 l 1,5,-1
 100 700 l 1,6,-1
 100 500 l 1,7,-1
 300 500 l 2,8,9
 382 500 382 500 441 441 c 128,-1,10
 500 382 500 382 500 300 c 2,11,-1
 500 200 l 2,0,1
400 200 m 2,12,-1
 400 300 l 2,13,14
 400 341 400 341 370.5 370.5 c 128,-1,15
 341 400 341 400 300 400 c 2,16,-1
 100 400 l 1,17,-1
 100 100 l 1,18,-1
 300 100 l 2,19,20
 341 100 341 100 370.5 129.5 c 128,-1,21
 400 159 400 159 400 200 c 2,12,-1
EndSplineSet
Substitution2: "<9,0> Compose Diacritics in Latin lookup 8 nested-substitutions 6 subtable" <Delete>
Substitution2: "<9,0> Compose Diacritics in Latin lookup 8 nested-substitutions 5 subtable" <Delete>
Substitution2: "<9,0> Compose Diacritics in Latin lookup 8 nested-substitutions 4 subtable" <Delete>
Substitution2: "<9,0> Compose Diacritics in Latin lookup 8 nested-substitutions 3 subtable" <Delete>
Substitution2: "<9,0> Compose Diacritics in Latin lookup 8 nested-substitutions 2 subtable" <Delete>
Substitution2: "<9,0> Compose Diacritics in Latin lookup 8 nested-substitutions 0 subtable" <Delete>
Substitution2: "<3,4> Initial Caps in Latin lookup 3 nested-substitutions 0 subtable" B
Substitution2: "<3,1> All Upper Case in Latin lookup 1 subtable" B
EndChar

StartChar: c
Encoding: 99 99 70
Width: 600
Flags: W
LayerCount: 2
Fore
SplineSet
500 0 m 1,0,-1
 200 0 l 2,1,2
 118 0 118 0 59 59 c 128,-1,3
 0 118 0 118 0 200 c 2,4,-1
 0 300 l 2,5,6
 0 382 0 382 59 441 c 128,-1,7
 118 500 118 500 200 500 c 2,8,-1
 300 500 l 2,9,10
 382 500 382 500 441 441 c 128,-1,11
 500 382 500 382 500 300 c 1,12,-1
 400 300 l 1,13,14
 400 341 400 341 370.5 370.5 c 128,-1,15
 341 400 341 400 300 400 c 2,16,-1
 200 400 l 2,17,18
 159 400 159 400 129.5 370.5 c 128,-1,19
 100 341 100 341 100 300 c 2,20,-1
 100 200 l 2,21,22
 100 159 100 159 129.5 129.5 c 128,-1,23
 159 100 159 100 200 100 c 2,24,-1
 500 100 l 1,25,-1
 500 0 l 1,0,-1
EndSplineSet
Substitution2: "<9,0> Compose Diacritics in Latin lookup 8 nested-substitutions 6 subtable" <Delete>
Substitution2: "<9,0> Compose Diacritics in Latin lookup 8 nested-substitutions 5 subtable" <Delete>
Substitution2: "<9,0> Compose Diacritics in Latin lookup 8 nested-substitutions 4 subtable" <Delete>
Substitution2: "<9,0> Compose Diacritics in Latin lookup 8 nested-substitutions 3 subtable" ccedilla
Substitution2: "<9,0> Compose Diacritics in Latin lookup 8 nested-substitutions 2 subtable" <Delete>
Substitution2: "<9,0> Compose Diacritics in Latin lookup 8 nested-substitutions 0 subtable" <Delete>
Substitution2: "<3,4> Initial Caps in Latin lookup 3 nested-substitutions 0 subtable" C
Substitution2: "<3,1> All Upper Case in Latin lookup 1 subtable" C
EndChar

StartChar: d
Encoding: 100 100 71
Width: 600
Flags: W
LayerCount: 2
Fore
SplineSet
500 0 m 1,0,-1
 200 0 l 2,1,2
 118 0 118 0 59 59 c 128,-1,3
 0 118 0 118 0 200 c 2,4,-1
 0 300 l 2,5,6
 0 382 0 382 59 441 c 128,-1,7
 118 500 118 500 200 500 c 2,8,-1
 400 500 l 1,9,-1
 400 700 l 1,10,-1
 500 700 l 1,11,-1
 500 0 l 1,0,-1
400 100 m 1,12,-1
 400 400 l 1,13,-1
 200 400 l 2,14,15
 159 400 159 400 129.5 370.5 c 128,-1,16
 100 341 100 341 100 300 c 2,17,-1
 100 200 l 2,18,19
 100 159 100 159 129.5 129.5 c 128,-1,20
 159 100 159 100 200 100 c 2,21,-1
 400 100 l 1,12,-1
EndSplineSet
Substitution2: "<9,0> Compose Diacritics in Latin lookup 8 nested-substitutions 6 subtable" <Delete>
Substitution2: "<9,0> Compose Diacritics in Latin lookup 8 nested-substitutions 5 subtable" <Delete>
Substitution2: "<9,0> Compose Diacritics in Latin lookup 8 nested-substitutions 4 subtable" <Delete>
Substitution2: "<9,0> Compose Diacritics in Latin lookup 8 nested-substitutions 3 subtable" <Delete>
Substitution2: "<9,0> Compose Diacritics in Latin lookup 8 nested-substitutions 2 subtable" <Delete>
Substitution2: "<9,0> Compose Diacritics in Latin lookup 8 nested-substitutions 0 subtable" <Delete>
Substitution2: "<3,4> Initial Caps in Latin lookup 3 nested-substitutions 0 subtable" D
Substitution2: "<3,1> All Upper Case in Latin lookup 1 subtable" D
EndChar

StartChar: e
Encoding: 101 101 72
Width: 600
Flags: W
LayerCount: 2
Fore
SplineSet
500 0 m 1,0,-1
 200 0 l 2,1,2
 118 0 118 0 59 59 c 128,-1,3
 0 118 0 118 0 200 c 2,4,-1
 0 300 l 2,5,6
 0 382 0 382 59 441 c 128,-1,7
 118 500 118 500 200 500 c 2,8,-1
 300 500 l 2,9,10
 382 500 382 500 441 441 c 128,-1,11
 500 382 500 382 500 300 c 2,12,-1
 500 200 l 1,13,-1
 100 200 l 1,14,15
 100 159 100 159 129.5 129.5 c 128,-1,16
 159 100 159 100 200 100 c 2,17,-1
 500 100 l 1,18,-1
 500 0 l 1,0,-1
400 300 m 1,19,20
 400 341 400 341 370.5 370.5 c 128,-1,21
 341 400 341 400 300 400 c 2,22,-1
 200 400 l 2,23,24
 159 400 159 400 129.5 370.5 c 128,-1,25
 100 341 100 341 100 300 c 1,26,-1
 400 300 l 1,19,20
EndSplineSet
Substitution2: "<9,0> Compose Diacritics in Latin lookup 8 nested-substitutions 6 subtable" egrave
Substitution2: "<9,0> Compose Diacritics in Latin lookup 8 nested-substitutions 5 subtable" <Delete>
Substitution2: "<9,0> Compose Diacritics in Latin lookup 8 nested-substitutions 4 subtable" <Delete>
Substitution2: "<9,0> Compose Diacritics in Latin lookup 8 nested-substitutions 3 subtable" eacute
Substitution2: "<9,0> Compose Diacritics in Latin lookup 8 nested-substitutions 2 subtable" ecircumflex
Substitution2: "<9,0> Compose Diacritics in Latin lookup 8 nested-substitutions 0 subtable" edieresis
Substitution2: "<3,4> Initial Caps in Latin lookup 3 nested-substitutions 0 subtable" E
Substitution2: "<3,1> All Upper Case in Latin lookup 1 subtable" E
EndChar

StartChar: f
Encoding: 102 102 73
Width: 600
Flags: W
LayerCount: 2
Fore
SplineSet
500 600 m 1,0,-1
 400 600 l 2,1,2
 359 600 359 600 329.5 570.5 c 128,-1,3
 300 541 300 541 300 500 c 1,4,-1
 400 500 l 1,5,-1
 400 400 l 1,6,-1
 300 400 l 1,7,-1
 300 0 l 1,8,-1
 200 0 l 1,9,-1
 200 400 l 1,10,-1
 100 400 l 1,11,-1
 100 500 l 1,12,-1
 200 500 l 1,13,14
 200 582 200 582 259 641 c 128,-1,15
 318 700 318 700 400 700 c 2,16,-1
 500 700 l 1,17,-1
 500 600 l 1,0,-1
EndSplineSet
Substitution2: "<9,0> Compose Diacritics in Latin lookup 8 nested-substitutions 6 subtable" <Delete>
Substitution2: "<9,0> Compose Diacritics in Latin lookup 8 nested-substitutions 5 subtable" <Delete>
Substitution2: "<9,0> Compose Diacritics in Latin lookup 8 nested-substitutions 4 subtable" <Delete>
Substitution2: "<9,0> Compose Diacritics in Latin lookup 8 nested-substitutions 3 subtable" <Delete>
Substitution2: "<9,0> Compose Diacritics in Latin lookup 8 nested-substitutions 2 subtable" <Delete>
Substitution2: "<9,0> Compose Diacritics in Latin lookup 8 nested-substitutions 0 subtable" <Delete>
Substitution2: "<3,4> Initial Caps in Latin lookup 3 nested-substitutions 0 subtable" F
Substitution2: "<3,1> All Upper Case in Latin lookup 1 subtable" F
EndChar

StartChar: g
Encoding: 103 103 74
Width: 600
Flags: W
LayerCount: 2
Fore
SplineSet
500 0 m 2,0,1
 500 -83 500 -83 441 -141.5 c 128,-1,2
 382 -200 382 -200 300 -200 c 2,3,-1
 100 -200 l 1,4,-1
 100 -100 l 1,5,-1
 300 -100 l 2,6,7
 341 -100 341 -100 370.5 -70.5 c 128,-1,8
 400 -41 400 -41 400 0 c 1,9,-1
 200 0 l 2,10,11
 118 0 118 0 59 59 c 128,-1,12
 0 118 0 118 0 200 c 2,13,-1
 0 300 l 2,14,15
 0 382 0 382 59 441 c 128,-1,16
 118 500 118 500 200 500 c 2,17,-1
 500 500 l 1,18,-1
 500 0 l 2,0,1
400 100 m 1,19,-1
 400 400 l 1,20,-1
 200 400 l 2,21,22
 159 400 159 400 129.5 370.5 c 128,-1,23
 100 341 100 341 100 300 c 2,24,-1
 100 200 l 2,25,26
 100 159 100 159 129.5 129.5 c 128,-1,27
 159 100 159 100 200 100 c 2,28,-1
 400 100 l 1,19,-1
EndSplineSet
Substitution2: "<9,0> Compose Diacritics in Latin lookup 8 nested-substitutions 6 subtable" <Delete>
Substitution2: "<9,0> Compose Diacritics in Latin lookup 8 nested-substitutions 5 subtable" <Delete>
Substitution2: "<9,0> Compose Diacritics in Latin lookup 8 nested-substitutions 4 subtable" <Delete>
Substitution2: "<9,0> Compose Diacritics in Latin lookup 8 nested-substitutions 3 subtable" <Delete>
Substitution2: "<9,0> Compose Diacritics in Latin lookup 8 nested-substitutions 2 subtable" <Delete>
Substitution2: "<9,0> Compose Diacritics in Latin lookup 8 nested-substitutions 0 subtable" <Delete>
Substitution2: "<3,4> Initial Caps in Latin lookup 3 nested-substitutions 0 subtable" G
Substitution2: "<3,1> All Upper Case in Latin lookup 1 subtable" G
EndChar

StartChar: h
Encoding: 104 104 75
Width: 600
Flags: W
LayerCount: 2
Fore
SplineSet
500 0 m 1,0,-1
 400 0 l 1,1,-1
 400 300 l 2,2,3
 400 341 400 341 370.5 370.5 c 128,-1,4
 341 400 341 400 300 400 c 2,5,-1
 100 400 l 1,6,-1
 100 0 l 1,7,-1
 0 0 l 1,8,-1
 0 700 l 1,9,-1
 100 700 l 1,10,-1
 100 500 l 1,11,-1
 300 500 l 2,12,13
 382 500 382 500 441 441 c 128,-1,14
 500 382 500 382 500 300 c 2,15,-1
 500 0 l 1,0,-1
EndSplineSet
Substitution2: "<9,0> Compose Diacritics in Latin lookup 8 nested-substitutions 6 subtable" <Delete>
Substitution2: "<9,0> Compose Diacritics in Latin lookup 8 nested-substitutions 5 subtable" <Delete>
Substitution2: "<9,0> Compose Diacritics in Latin lookup 8 nested-substitutions 4 subtable" <Delete>
Substitution2: "<9,0> Compose Diacritics in Latin lookup 8 nested-substitutions 3 subtable" <Delete>
Substitution2: "<9,0> Compose Diacritics in Latin lookup 8 nested-substitutions 2 subtable" <Delete>
Substitution2: "<9,0> Compose Diacritics in Latin lookup 8 nested-substitutions 0 subtable" <Delete>
Substitution2: "<3,4> Initial Caps in Latin lookup 3 nested-substitutions 0 subtable" H
Substitution2: "<3,1> All Upper Case in Latin lookup 1 subtable" H
EndChar

StartChar: i
Encoding: 105 105 76
Width: 600
Flags: W
LayerCount: 2
Fore
SplineSet
300 650 m 256,0,1
 300 629 300 629 285.5 614.5 c 128,-1,2
 271 600 271 600 250 600 c 256,3,4
 229 600 229 600 214.5 614.5 c 128,-1,5
 200 629 200 629 200 650 c 256,6,7
 200 671 200 671 214.5 685.5 c 128,-1,8
 229 700 229 700 250 700 c 256,9,10
 271 700 271 700 285.5 685.5 c 128,-1,11
 300 671 300 671 300 650 c 256,0,1
400 0 m 1,12,-1
 100 0 l 1,13,-1
 100 100 l 1,14,-1
 200 100 l 1,15,-1
 200 400 l 1,16,-1
 100 400 l 1,17,-1
 100 500 l 1,18,-1
 300 500 l 1,19,-1
 300 100 l 1,20,-1
 400 100 l 1,21,-1
 400 0 l 1,12,-1
EndSplineSet
Substitution2: "<9,0> Compose Diacritics in Latin lookup 8 nested-substitutions 6 subtable" igrave
Substitution2: "<9,0> Compose Diacritics in Latin lookup 8 nested-substitutions 5 subtable" <Delete>
Substitution2: "<9,0> Compose Diacritics in Latin lookup 8 nested-substitutions 4 subtable" <Delete>
Substitution2: "<9,0> Compose Diacritics in Latin lookup 8 nested-substitutions 3 subtable" iacute
Substitution2: "<9,0> Compose Diacritics in Latin lookup 8 nested-substitutions 2 subtable" icircumflex
Substitution2: "<9,0> Compose Diacritics in Latin lookup 8 nested-substitutions 0 subtable" idieresis
Substitution2: "<3,4> Initial Caps in Latin lookup 3 nested-substitutions 0 subtable" I
Substitution2: "<3,1> All Upper Case in Latin lookup 1 subtable" I
EndChar

StartChar: j
Encoding: 106 106 77
Width: 600
Flags: W
LayerCount: 2
Fore
SplineSet
300 650 m 256,0,1
 300 629 300 629 285.5 614.5 c 128,-1,2
 271 600 271 600 250 600 c 256,3,4
 229 600 229 600 214.5 614.5 c 128,-1,5
 200 629 200 629 200 650 c 256,6,7
 200 671 200 671 214.5 685.5 c 128,-1,8
 229 700 229 700 250 700 c 256,9,10
 271 700 271 700 285.5 685.5 c 128,-1,11
 300 671 300 671 300 650 c 256,0,1
300 0 m 2,12,13
 300 -83 300 -83 241 -141.5 c 128,-1,14
 182 -200 182 -200 100 -200 c 2,15,-1
 0 -200 l 1,16,-1
 0 -100 l 1,17,-1
 100 -100 l 2,18,19
 141 -100 141 -100 170.5 -70.5 c 128,-1,20
 200 -41 200 -41 200 0 c 2,21,-1
 200 400 l 1,22,-1
 100 400 l 1,23,-1
 100 500 l 1,24,-1
 300 500 l 1,25,-1
 300 0 l 2,12,13
0 -200 m 0,26,-1
EndSplineSet
Substitution2: "<9,0> Compose Diacritics in Latin lookup 8 nested-substitutions 6 subtable" <Delete>
Substitution2: "<9,0> Compose Diacritics in Latin lookup 8 nested-substitutions 5 subtable" <Delete>
Substitution2: "<9,0> Compose Diacritics in Latin lookup 8 nested-substitutions 4 subtable" <Delete>
Substitution2: "<9,0> Compose Diacritics in Latin lookup 8 nested-substitutions 3 subtable" <Delete>
Substitution2: "<9,0> Compose Diacritics in Latin lookup 8 nested-substitutions 2 subtable" <Delete>
Substitution2: "<9,0> Compose Diacritics in Latin lookup 8 nested-substitutions 0 subtable" <Delete>
Substitution2: "<3,4> Initial Caps in Latin lookup 3 nested-substitutions 0 subtable" J
Substitution2: "<3,1> All Upper Case in Latin lookup 1 subtable" J
EndChar

StartChar: k
Encoding: 107 107 78
Width: 600
Flags: W
LayerCount: 2
Fore
SplineSet
500 0 m 1,0,-1
 431 0 l 1,1,-1
 200 231 l 1,2,-1
 100 131 l 1,3,-1
 100 0 l 1,4,-1
 0 0 l 1,5,-1
 0 700 l 1,6,-1
 100 700 l 1,7,-1
 100 269 l 1,8,-1
 331 500 l 1,9,-1
 469 500 l 1,10,-1
 269 300 l 1,11,-1
 500 69 l 1,12,-1
 500 0 l 1,0,-1
EndSplineSet
Substitution2: "<9,0> Compose Diacritics in Latin lookup 8 nested-substitutions 6 subtable" <Delete>
Substitution2: "<9,0> Compose Diacritics in Latin lookup 8 nested-substitutions 5 subtable" <Delete>
Substitution2: "<9,0> Compose Diacritics in Latin lookup 8 nested-substitutions 4 subtable" <Delete>
Substitution2: "<9,0> Compose Diacritics in Latin lookup 8 nested-substitutions 3 subtable" <Delete>
Substitution2: "<9,0> Compose Diacritics in Latin lookup 8 nested-substitutions 2 subtable" <Delete>
Substitution2: "<9,0> Compose Diacritics in Latin lookup 8 nested-substitutions 0 subtable" <Delete>
Substitution2: "<3,4> Initial Caps in Latin lookup 3 nested-substitutions 0 subtable" K
Substitution2: "<3,1> All Upper Case in Latin lookup 1 subtable" K
EndChar

StartChar: l
Encoding: 108 108 79
Width: 600
Flags: W
LayerCount: 2
Fore
SplineSet
400 0 m 1,0,-1
 100 0 l 1,1,-1
 100 100 l 1,2,-1
 200 100 l 1,3,-1
 200 600 l 1,4,-1
 100 600 l 1,5,-1
 100 700 l 1,6,-1
 300 700 l 1,7,-1
 300 100 l 1,8,-1
 400 100 l 1,9,-1
 400 0 l 1,0,-1
EndSplineSet
Substitution2: "<9,0> Compose Diacritics in Latin lookup 8 nested-substitutions 6 subtable" <Delete>
Substitution2: "<9,0> Compose Diacritics in Latin lookup 8 nested-substitutions 5 subtable" <Delete>
Substitution2: "<9,0> Compose Diacritics in Latin lookup 8 nested-substitutions 4 subtable" <Delete>
Substitution2: "<9,0> Compose Diacritics in Latin lookup 8 nested-substitutions 3 subtable" <Delete>
Substitution2: "<9,0> Compose Diacritics in Latin lookup 8 nested-substitutions 2 subtable" <Delete>
Substitution2: "<9,0> Compose Diacritics in Latin lookup 8 nested-substitutions 0 subtable" <Delete>
Substitution2: "<3,4> Initial Caps in Latin lookup 3 nested-substitutions 0 subtable" L
Substitution2: "<3,1> All Upper Case in Latin lookup 1 subtable" L
EndChar

StartChar: m
Encoding: 109 109 80
Width: 600
Flags: W
LayerCount: 2
Fore
SplineSet
500 0 m 1,0,-1
 400 0 l 1,1,-1
 400 300 l 2,2,3
 400 341 400 341 370.5 370.5 c 128,-1,4
 341 400 341 400 300 400 c 1,5,-1
 300 0 l 1,6,-1
 200 0 l 1,7,-1
 200 400 l 1,8,-1
 100 400 l 1,9,-1
 100 0 l 1,10,-1
 0 0 l 1,11,-1
 0 500 l 1,12,-1
 300 500 l 2,13,14
 382 500 382 500 441 441 c 128,-1,15
 500 382 500 382 500 300 c 2,16,-1
 500 0 l 1,0,-1
EndSplineSet
Substitution2: "<9,0> Compose Diacritics in Latin lookup 8 nested-substitutions 6 subtable" <Delete>
Substitution2: "<9,0> Compose Diacritics in Latin lookup 8 nested-substitutions 5 subtable" <Delete>
Substitution2: "<9,0> Compose Diacritics in Latin lookup 8 nested-substitutions 4 subtable" <Delete>
Substitution2: "<9,0> Compose Diacritics in Latin lookup 8 nested-substitutions 3 subtable" <Delete>
Substitution2: "<9,0> Compose Diacritics in Latin lookup 8 nested-substitutions 2 subtable" <Delete>
Substitution2: "<9,0> Compose Diacritics in Latin lookup 8 nested-substitutions 0 subtable" <Delete>
Substitution2: "<3,4> Initial Caps in Latin lookup 3 nested-substitutions 0 subtable" M
Substitution2: "<3,1> All Upper Case in Latin lookup 1 subtable" M
EndChar

StartChar: n
Encoding: 110 110 81
Width: 600
Flags: W
LayerCount: 2
Fore
SplineSet
100 500 m 1,0,-1
 100 363 l 1,1,-1
 163 425 l 2,2,3
 238 500 238 500 300 500 c 0,4,5
 383 500 383 500 441.5 441.5 c 128,-1,6
 500 383 500 383 500 300 c 2,7,-1
 500 0 l 1,8,-1
 400 0 l 1,9,-1
 400 300 l 2,10,11
 400 341 400 341 370.5 370.5 c 128,-1,12
 341 400 341 400 300 400 c 0,13,14
 250 400 250 400 200 350 c 2,15,-1
 100 250 l 1,16,-1
 100 0 l 1,17,-1
 0 0 l 1,18,-1
 0 500 l 1,19,-1
 100 500 l 1,0,-1
EndSplineSet
Substitution2: "<9,0> Compose Diacritics in Latin lookup 8 nested-substitutions 6 subtable" <Delete>
Substitution2: "<9,0> Compose Diacritics in Latin lookup 8 nested-substitutions 5 subtable" <Delete>
Substitution2: "<9,0> Compose Diacritics in Latin lookup 8 nested-substitutions 4 subtable" <Delete>
Substitution2: "<9,0> Compose Diacritics in Latin lookup 8 nested-substitutions 3 subtable" ntilde
Substitution2: "<9,0> Compose Diacritics in Latin lookup 8 nested-substitutions 2 subtable" <Delete>
Substitution2: "<9,0> Compose Diacritics in Latin lookup 8 nested-substitutions 0 subtable" <Delete>
Substitution2: "<3,4> Initial Caps in Latin lookup 3 nested-substitutions 0 subtable" N
Substitution2: "<3,1> All Upper Case in Latin lookup 1 subtable" N
EndChar

StartChar: o
Encoding: 111 111 82
Width: 600
Flags: W
LayerCount: 2
Fore
SplineSet
500 200 m 2,0,1
 500 118 500 118 441 59 c 128,-1,2
 382 0 382 0 300 0 c 2,3,-1
 200 0 l 2,4,5
 118 0 118 0 59 59 c 128,-1,6
 0 118 0 118 0 200 c 2,7,-1
 0 300 l 2,8,9
 0 382 0 382 59 441 c 128,-1,10
 118 500 118 500 200 500 c 2,11,-1
 300 500 l 2,12,13
 382 500 382 500 441 441 c 128,-1,14
 500 382 500 382 500 300 c 2,15,-1
 500 200 l 2,0,1
400 200 m 2,16,-1
 400 300 l 2,17,18
 400 341 400 341 370.5 370.5 c 128,-1,19
 341 400 341 400 300 400 c 2,20,-1
 200 400 l 2,21,22
 159 400 159 400 129.5 370.5 c 128,-1,23
 100 341 100 341 100 300 c 2,24,-1
 100 200 l 2,25,26
 100 159 100 159 129.5 129.5 c 128,-1,27
 159 100 159 100 200 100 c 2,28,-1
 300 100 l 2,29,30
 341 100 341 100 370.5 129.5 c 128,-1,31
 400 159 400 159 400 200 c 2,16,-1
EndSplineSet
Substitution2: "<9,0> Compose Diacritics in Latin lookup 8 nested-substitutions 6 subtable" ograve
Substitution2: "<9,0> Compose Diacritics in Latin lookup 8 nested-substitutions 5 subtable" oslash
Substitution2: "<9,0> Compose Diacritics in Latin lookup 8 nested-substitutions 4 subtable" otilde
Substitution2: "<9,0> Compose Diacritics in Latin lookup 8 nested-substitutions 3 subtable" oacute
Substitution2: "<9,0> Compose Diacritics in Latin lookup 8 nested-substitutions 2 subtable" ocircumflex
Substitution2: "<9,0> Compose Diacritics in Latin lookup 8 nested-substitutions 0 subtable" odieresis
Substitution2: "<3,4> Initial Caps in Latin lookup 3 nested-substitutions 0 subtable" O
Substitution2: "<3,1> All Upper Case in Latin lookup 1 subtable" O
EndChar

StartChar: p
Encoding: 112 112 83
Width: 600
Flags: W
LayerCount: 2
Fore
SplineSet
500 200 m 2,0,1
 500 118 500 118 441 59 c 128,-1,2
 382 0 382 0 300 0 c 2,3,-1
 100 0 l 1,4,-1
 100 -200 l 1,5,-1
 0 -200 l 1,6,-1
 0 500 l 1,7,-1
 300 500 l 2,8,9
 382 500 382 500 441 441 c 128,-1,10
 500 382 500 382 500 300 c 2,11,-1
 500 200 l 2,0,1
400 200 m 2,12,-1
 400 300 l 2,13,14
 400 341 400 341 370.5 370.5 c 128,-1,15
 341 400 341 400 300 400 c 2,16,-1
 100 400 l 1,17,-1
 100 100 l 1,18,-1
 300 100 l 2,19,20
 341 100 341 100 370.5 129.5 c 128,-1,21
 400 159 400 159 400 200 c 2,12,-1
0 -200 m 0,22,-1
EndSplineSet
Substitution2: "<9,0> Compose Diacritics in Latin lookup 8 nested-substitutions 6 subtable" <Delete>
Substitution2: "<9,0> Compose Diacritics in Latin lookup 8 nested-substitutions 4 subtable" Atilde
Substitution2: "<9,0> Compose Diacritics in Latin lookup 8 nested-substitutions 3 subtable" <Delete>
Substitution2: "<9,0> Compose Diacritics in Latin lookup 8 nested-substitutions 2 subtable" <Delete>
Substitution2: "<9,0> Compose Diacritics in Latin lookup 8 nested-substitutions 0 subtable" <Delete>
Substitution2: "<3,4> Initial Caps in Latin lookup 3 nested-substitutions 0 subtable" P
Substitution2: "<3,1> All Upper Case in Latin lookup 1 subtable" P
EndChar

StartChar: q
Encoding: 113 113 84
Width: 600
Flags: W
LayerCount: 2
Fore
SplineSet
500 -200 m 1,0,-1
 400 -200 l 1,1,-1
 400 0 l 1,2,-1
 200 0 l 2,3,4
 118 0 118 0 59 59 c 128,-1,5
 0 118 0 118 0 200 c 2,6,-1
 0 300 l 2,7,8
 0 382 0 382 59 441 c 128,-1,9
 118 500 118 500 200 500 c 2,10,-1
 500 500 l 1,11,-1
 500 -200 l 1,0,-1
400 100 m 1,12,-1
 400 400 l 1,13,-1
 200 400 l 2,14,15
 159 400 159 400 129.5 370.5 c 128,-1,16
 100 341 100 341 100 300 c 2,17,-1
 100 200 l 2,18,19
 100 159 100 159 129.5 129.5 c 128,-1,20
 159 100 159 100 200 100 c 2,21,-1
 400 100 l 1,12,-1
EndSplineSet
Substitution2: "<9,0> Compose Diacritics in Latin lookup 8 nested-substitutions 6 subtable" <Delete>
Substitution2: "<9,0> Compose Diacritics in Latin lookup 8 nested-substitutions 5 subtable" <Delete>
Substitution2: "<9,0> Compose Diacritics in Latin lookup 8 nested-substitutions 4 subtable" <Delete>
Substitution2: "<9,0> Compose Diacritics in Latin lookup 8 nested-substitutions 3 subtable" <Delete>
Substitution2: "<9,0> Compose Diacritics in Latin lookup 8 nested-substitutions 2 subtable" <Delete>
Substitution2: "<9,0> Compose Diacritics in Latin lookup 8 nested-substitutions 0 subtable" <Delete>
Substitution2: "<3,4> Initial Caps in Latin lookup 3 nested-substitutions 0 subtable" Q
Substitution2: "<3,1> All Upper Case in Latin lookup 1 subtable" Q
EndChar

StartChar: r
Encoding: 114 114 85
Width: 600
Flags: W
LayerCount: 2
Fore
SplineSet
100 500 m 1,0,-1
 100 363 l 1,1,-1
 163 425 l 2,2,3
 238 500 238 500 300 500 c 0,4,5
 383 500 383 500 441.5 441.5 c 128,-1,6
 500 383 500 383 500 300 c 1,7,-1
 400 300 l 1,8,9
 400 341 400 341 370.5 370.5 c 128,-1,10
 341 400 341 400 300 400 c 0,11,12
 250 400 250 400 200 350 c 2,13,-1
 100 250 l 1,14,-1
 100 0 l 1,15,-1
 0 0 l 1,16,-1
 0 500 l 1,17,-1
 100 500 l 1,0,-1
EndSplineSet
Substitution2: "<9,0> Compose Diacritics in Latin lookup 8 nested-substitutions 6 subtable" <Delete>
Substitution2: "<9,0> Compose Diacritics in Latin lookup 8 nested-substitutions 5 subtable" <Delete>
Substitution2: "<9,0> Compose Diacritics in Latin lookup 8 nested-substitutions 4 subtable" <Delete>
Substitution2: "<9,0> Compose Diacritics in Latin lookup 8 nested-substitutions 3 subtable" <Delete>
Substitution2: "<9,0> Compose Diacritics in Latin lookup 8 nested-substitutions 2 subtable" <Delete>
Substitution2: "<9,0> Compose Diacritics in Latin lookup 8 nested-substitutions 0 subtable" <Delete>
Substitution2: "<3,4> Initial Caps in Latin lookup 3 nested-substitutions 0 subtable" R
Substitution2: "<3,1> All Upper Case in Latin lookup 1 subtable" R
EndChar

StartChar: s
Encoding: 115 115 86
Width: 600
Flags: W
LayerCount: 2
Fore
SplineSet
500 500 m 1,0,-1
 500 400 l 1,1,-1
 238 400 l 2,2,3
 186 400 186 400 149.5 385.5 c 128,-1,4
 113 371 113 371 113 350 c 256,5,6
 113 329 113 329 149.5 314.5 c 128,-1,7
 186 300 186 300 238 300 c 2,8,-1
 263 300 l 2,9,10
 356 300 356 300 422 256 c 128,-1,11
 488 212 488 212 488 150 c 256,12,13
 488 88 488 88 422 44 c 128,-1,14
 356 0 356 0 263 0 c 2,15,-1
 0 0 l 1,16,-1
 0 100 l 1,17,-1
 263 100 l 2,18,19
 314 100 314 100 351 114.5 c 128,-1,20
 388 129 388 129 388 150 c 256,21,22
 388 171 388 171 351 185.5 c 128,-1,23
 314 200 314 200 263 200 c 2,24,-1
 238 200 l 2,25,26
 144 200 144 200 78.5 244 c 128,-1,27
 13 288 13 288 13 350 c 256,28,29
 13 412 13 412 78.5 456 c 128,-1,30
 144 500 144 500 238 500 c 2,31,-1
 500 500 l 1,0,-1
EndSplineSet
Substitution2: "<9,0> Compose Diacritics in Latin lookup 8 nested-substitutions 6 subtable" <Delete>
Substitution2: "<9,0> Compose Diacritics in Latin lookup 8 nested-substitutions 5 subtable" <Delete>
Substitution2: "<9,0> Compose Diacritics in Latin lookup 8 nested-substitutions 4 subtable" <Delete>
Substitution2: "<9,0> Compose Diacritics in Latin lookup 8 nested-substitutions 3 subtable" scaron
Substitution2: "<9,0> Compose Diacritics in Latin lookup 8 nested-substitutions 2 subtable" <Delete>
Substitution2: "<9,0> Compose Diacritics in Latin lookup 8 nested-substitutions 0 subtable" <Delete>
Substitution2: "<3,4> Initial Caps in Latin lookup 3 nested-substitutions 0 subtable" S
Substitution2: "<3,1> All Upper Case in Latin lookup 1 subtable" S
EndChar

StartChar: t
Encoding: 116 116 87
Width: 600
Flags: W
LayerCount: 2
Fore
SplineSet
500 0 m 1,0,-1
 400 0 l 2,1,2
 318 0 318 0 259 59 c 128,-1,3
 200 118 200 118 200 200 c 2,4,-1
 200 400 l 1,5,-1
 100 400 l 1,6,-1
 100 500 l 1,7,-1
 200 500 l 1,8,-1
 200 700 l 1,9,-1
 300 700 l 1,10,-1
 300 500 l 1,11,-1
 400 500 l 1,12,-1
 400 400 l 1,13,-1
 300 400 l 1,14,-1
 300 200 l 2,15,16
 300 159 300 159 329.5 129.5 c 128,-1,17
 359 100 359 100 400 100 c 2,18,-1
 500 100 l 1,19,-1
 500 0 l 1,0,-1
EndSplineSet
Substitution2: "<9,0> Compose Diacritics in Latin lookup 8 nested-substitutions 6 subtable" <Delete>
Substitution2: "<9,0> Compose Diacritics in Latin lookup 8 nested-substitutions 5 subtable" <Delete>
Substitution2: "<9,0> Compose Diacritics in Latin lookup 8 nested-substitutions 4 subtable" <Delete>
Substitution2: "<9,0> Compose Diacritics in Latin lookup 8 nested-substitutions 3 subtable" <Delete>
Substitution2: "<9,0> Compose Diacritics in Latin lookup 8 nested-substitutions 2 subtable" <Delete>
Substitution2: "<9,0> Compose Diacritics in Latin lookup 8 nested-substitutions 0 subtable" <Delete>
Substitution2: "<3,4> Initial Caps in Latin lookup 3 nested-substitutions 0 subtable" T
Substitution2: "<3,1> All Upper Case in Latin lookup 1 subtable" T
EndChar

StartChar: u
Encoding: 117 117 88
Width: 600
Flags: W
LayerCount: 2
Fore
SplineSet
400 0 m 1,0,-1
 400 138 l 1,1,-1
 338 75 l 2,2,3
 263 0 263 0 200 0 c 0,4,5
 117 0 117 0 58.5 58.5 c 128,-1,6
 0 117 0 117 0 200 c 2,7,-1
 0 500 l 1,8,-1
 100 500 l 1,9,-1
 100 200 l 2,10,11
 100 159 100 159 129.5 129.5 c 128,-1,12
 159 100 159 100 200 100 c 0,13,14
 250 100 250 100 300 150 c 2,15,-1
 400 250 l 1,16,-1
 400 500 l 1,17,-1
 500 500 l 1,18,-1
 500 0 l 1,19,-1
 400 0 l 1,0,-1
EndSplineSet
Substitution2: "<9,0> Compose Diacritics in Latin lookup 8 nested-substitutions 6 subtable" ugrave
Substitution2: "<9,0> Compose Diacritics in Latin lookup 8 nested-substitutions 5 subtable" <Delete>
Substitution2: "<9,0> Compose Diacritics in Latin lookup 8 nested-substitutions 4 subtable" <Delete>
Substitution2: "<9,0> Compose Diacritics in Latin lookup 8 nested-substitutions 3 subtable" uacute
Substitution2: "<9,0> Compose Diacritics in Latin lookup 8 nested-substitutions 2 subtable" ucircumflex
Substitution2: "<9,0> Compose Diacritics in Latin lookup 8 nested-substitutions 0 subtable" udieresis
Substitution2: "<3,4> Initial Caps in Latin lookup 3 nested-substitutions 0 subtable" U
Substitution2: "<3,1> All Upper Case in Latin lookup 1 subtable" U
EndChar

StartChar: v
Encoding: 118 118 89
Width: 600
Flags: W
LayerCount: 2
Fore
SplineSet
500 400 m 1,0,-1
 300 0 l 1,1,-1
 200 0 l 1,2,-1
 0 400 l 1,3,-1
 0 500 l 1,4,-1
 100 500 l 1,5,-1
 100 425 l 1,6,-1
 250 125 l 1,7,-1
 400 425 l 1,8,-1
 400 500 l 1,9,-1
 500 500 l 1,10,-1
 500 400 l 1,0,-1
EndSplineSet
Substitution2: "<9,0> Compose Diacritics in Latin lookup 8 nested-substitutions 6 subtable" <Delete>
Substitution2: "<9,0> Compose Diacritics in Latin lookup 8 nested-substitutions 5 subtable" <Delete>
Substitution2: "<9,0> Compose Diacritics in Latin lookup 8 nested-substitutions 4 subtable" <Delete>
Substitution2: "<9,0> Compose Diacritics in Latin lookup 8 nested-substitutions 3 subtable" <Delete>
Substitution2: "<9,0> Compose Diacritics in Latin lookup 8 nested-substitutions 2 subtable" Agrave
Substitution2: "<9,0> Compose Diacritics in Latin lookup 8 nested-substitutions 0 subtable" Acircumflex
Substitution2: "<3,4> Initial Caps in Latin lookup 3 nested-substitutions 0 subtable" V
Substitution2: "<3,1> All Upper Case in Latin lookup 1 subtable" V
EndChar

StartChar: w
Encoding: 119 119 90
Width: 600
Flags: W
LayerCount: 2
Fore
SplineSet
244 100 m 1,0,1
 203 0 203 0 150 0 c 0,2,3
 88 0 88 0 44 66 c 128,-1,4
 0 132 0 132 0 225 c 2,5,-1
 0 500 l 1,6,-1
 100 500 l 1,7,-1
 100 225 l 2,8,9
 100 173 100 173 114.5 136 c 128,-1,10
 129 99 129 99 150 99 c 256,11,12
 171 99 171 99 185.5 136 c 128,-1,13
 200 173 200 173 200 225 c 2,14,-1
 200 500 l 1,15,-1
 300 500 l 1,16,-1
 300 225 l 2,17,18
 300 173 300 173 314.5 136.5 c 128,-1,19
 329 100 329 100 350 100 c 256,20,21
 371 100 371 100 385.5 136.5 c 128,-1,22
 400 173 400 173 400 225 c 2,23,-1
 400 500 l 1,24,-1
 500 500 l 1,25,-1
 500 225 l 2,26,27
 500 132 500 132 456 66 c 128,-1,28
 412 0 412 0 350 0 c 0,29,30
 297 0 297 0 256 100 c 1,31,-1
 244 100 l 1,0,1
EndSplineSet
Substitution2: "<9,0> Compose Diacritics in Latin lookup 8 nested-substitutions 6 subtable" <Delete>
Substitution2: "<9,0> Compose Diacritics in Latin lookup 8 nested-substitutions 5 subtable" <Delete>
Substitution2: "<9,0> Compose Diacritics in Latin lookup 8 nested-substitutions 4 subtable" <Delete>
Substitution2: "<9,0> Compose Diacritics in Latin lookup 8 nested-substitutions 3 subtable" <Delete>
Substitution2: "<9,0> Compose Diacritics in Latin lookup 8 nested-substitutions 2 subtable" <Delete>
Substitution2: "<9,0> Compose Diacritics in Latin lookup 8 nested-substitutions 0 subtable" <Delete>
Substitution2: "<3,4> Initial Caps in Latin lookup 3 nested-substitutions 0 subtable" W
Substitution2: "<3,1> All Upper Case in Latin lookup 1 subtable" W
EndChar

StartChar: x
Encoding: 120 120 91
Width: 600
Flags: W
LayerCount: 2
Fore
SplineSet
500 0 m 1,0,-1
 400 0 l 1,1,-1
 400 31 l 1,2,-1
 250 181 l 1,3,-1
 100 31 l 1,4,-1
 100 0 l 1,5,-1
 0 0 l 1,6,-1
 0 69 l 1,7,-1
 181 250 l 1,8,-1
 0 431 l 1,9,-1
 0 500 l 1,10,-1
 100 500 l 1,11,-1
 100 469 l 1,12,-1
 250 319 l 1,13,-1
 400 469 l 1,14,-1
 400 500 l 1,15,-1
 500 500 l 1,16,-1
 500 431 l 1,17,-1
 319 250 l 1,18,-1
 500 69 l 1,19,-1
 500 0 l 1,0,-1
EndSplineSet
Substitution2: "<9,0> Compose Diacritics in Latin lookup 8 nested-substitutions 6 subtable" <Delete>
Substitution2: "<9,0> Compose Diacritics in Latin lookup 8 nested-substitutions 5 subtable" <Delete>
Substitution2: "<9,0> Compose Diacritics in Latin lookup 8 nested-substitutions 4 subtable" <Delete>
Substitution2: "<9,0> Compose Diacritics in Latin lookup 8 nested-substitutions 3 subtable" <Delete>
Substitution2: "<9,0> Compose Diacritics in Latin lookup 8 nested-substitutions 2 subtable" <Delete>
Substitution2: "<9,0> Compose Diacritics in Latin lookup 8 nested-substitutions 0 subtable" <Delete>
Substitution2: "<3,4> Initial Caps in Latin lookup 3 nested-substitutions 0 subtable" X
Substitution2: "<3,1> All Upper Case in Latin lookup 1 subtable" X
EndChar

StartChar: y
Encoding: 121 121 92
Width: 600
Flags: W
LayerCount: 2
Fore
SplineSet
500 0 m 2,0,1
 500 -83 500 -83 441 -141.5 c 128,-1,2
 382 -200 382 -200 300 -200 c 2,3,-1
 100 -200 l 1,4,-1
 100 -100 l 1,5,-1
 300 -100 l 2,6,7
 341 -100 341 -100 370.5 -70.5 c 128,-1,8
 400 -41 400 -41 400 0 c 1,9,-1
 200 0 l 2,10,11
 118 0 118 0 59 59 c 128,-1,12
 0 118 0 118 0 200 c 2,13,-1
 0 500 l 1,14,-1
 100 500 l 1,15,-1
 100 200 l 2,16,17
 100 159 100 159 129.5 129.5 c 128,-1,18
 159 100 159 100 200 100 c 2,19,-1
 400 100 l 1,20,-1
 400 500 l 1,21,-1
 500 500 l 1,22,-1
 500 0 l 2,0,1
EndSplineSet
Substitution2: "<9,0> Compose Diacritics in Latin lookup 8 nested-substitutions 6 subtable" ydieresis
Substitution2: "<9,0> Compose Diacritics in Latin lookup 8 nested-substitutions 5 subtable" <Delete>
Substitution2: "<9,0> Compose Diacritics in Latin lookup 8 nested-substitutions 4 subtable" <Delete>
Substitution2: "<9,0> Compose Diacritics in Latin lookup 8 nested-substitutions 3 subtable" yacute
Substitution2: "<9,0> Compose Diacritics in Latin lookup 8 nested-substitutions 2 subtable" <Delete>
Substitution2: "<9,0> Compose Diacritics in Latin lookup 8 nested-substitutions 0 subtable" <Delete>
Substitution2: "<3,4> Initial Caps in Latin lookup 3 nested-substitutions 0 subtable" Y
Substitution2: "<3,1> All Upper Case in Latin lookup 1 subtable" Y
EndChar

StartChar: z
Encoding: 122 122 93
Width: 600
Flags: W
LayerCount: 2
Fore
SplineSet
500 0 m 1,0,-1
 0 0 l 1,1,-1
 0 69 l 1,2,-1
 331 400 l 1,3,-1
 0 400 l 1,4,-1
 0 500 l 1,5,-1
 500 500 l 1,6,-1
 500 431 l 1,7,-1
 169 100 l 1,8,-1
 500 100 l 1,9,-1
 500 0 l 1,0,-1
EndSplineSet
Substitution2: "<9,0> Compose Diacritics in Latin lookup 8 nested-substitutions 6 subtable" Aacute
Substitution2: "<9,0> Compose Diacritics in Latin lookup 8 nested-substitutions 5 subtable" <Delete>
Substitution2: "<9,0> Compose Diacritics in Latin lookup 8 nested-substitutions 4 subtable" <Delete>
Substitution2: "<9,0> Compose Diacritics in Latin lookup 8 nested-substitutions 3 subtable" Aring
Substitution2: "<9,0> Compose Diacritics in Latin lookup 8 nested-substitutions 2 subtable" Edieresis
Substitution2: "<9,0> Compose Diacritics in Latin lookup 8 nested-substitutions 0 subtable" <Delete>
Substitution2: "<3,4> Initial Caps in Latin lookup 3 nested-substitutions 0 subtable" Z
Substitution2: "<3,1> All Upper Case in Latin lookup 1 subtable" Z
EndChar

StartChar: braceleft
Encoding: 123 123 94
Width: 600
Flags: W
LayerCount: 2
Fore
SplineSet
400 -200 m 1,0,1
 317 -200 317 -200 258.5 -148.5 c 128,-1,2
 200 -97 200 -97 200 -25 c 2,3,-1
 200 200 l 2,4,5
 200 241 200 241 170.5 270.5 c 128,-1,6
 141 300 141 300 100 300 c 1,7,-1
 100 400 l 1,8,9
 141 400 141 400 170.5 429.5 c 128,-1,10
 200 459 200 459 200 500 c 2,11,-1
 200 725 l 2,12,13
 200 797 200 797 258.5 848.5 c 128,-1,14
 317 900 317 900 400 900 c 1,15,-1
 400 800 l 1,16,17
 359 800 359 800 329.5 770.5 c 128,-1,18
 300 741 300 741 300 700 c 2,19,-1
 300 450 l 2,20,21
 300 397 300 397 200 356 c 1,22,-1
 200 344 l 1,23,24
 300 303 300 303 300 250 c 2,25,-1
 300 0 l 2,26,27
 300 -41 300 -41 329.5 -70.5 c 128,-1,28
 359 -100 359 -100 400 -100 c 1,29,-1
 400 -200 l 1,0,1
EndSplineSet
Substitution2: "<9,0> Compose Diacritics in Latin lookup 8 nested-substitutions 6 subtable" <Delete>
Substitution2: "<9,0> Compose Diacritics in Latin lookup 8 nested-substitutions 5 subtable" <Delete>
Substitution2: "<9,0> Compose Diacritics in Latin lookup 8 nested-substitutions 4 subtable" <Delete>
Substitution2: "<9,0> Compose Diacritics in Latin lookup 8 nested-substitutions 3 subtable" <Delete>
Substitution2: "<9,0> Compose Diacritics in Latin lookup 8 nested-substitutions 2 subtable" <Delete>
Substitution2: "<9,0> Compose Diacritics in Latin lookup 8 nested-substitutions 0 subtable" <Delete>
Substitution2: "'rtla' Right to Left Alternates lookup 0 subtable" braceright
EndChar

StartChar: bar
Encoding: 124 124 95
Width: 600
Flags: W
LayerCount: 2
Fore
SplineSet
300 -100 m 1,0,-1
 200 -100 l 1,1,-1
 200 800 l 1,2,-1
 300 800 l 1,3,-1
 300 -100 l 1,0,-1
EndSplineSet
Substitution2: "<17,1> Broken Vertical Bar lookup 31 subtable" brokenbar
Substitution2: "<9,0> Compose Diacritics in Latin lookup 8 nested-substitutions 6 subtable" <Delete>
Substitution2: "<9,0> Compose Diacritics in Latin lookup 8 nested-substitutions 5 subtable" <Delete>
Substitution2: "<9,0> Compose Diacritics in Latin lookup 8 nested-substitutions 4 subtable" <Delete>
Substitution2: "<9,0> Compose Diacritics in Latin lookup 8 nested-substitutions 3 subtable" <Delete>
Substitution2: "<9,0> Compose Diacritics in Latin lookup 8 nested-substitutions 2 subtable" <Delete>
Substitution2: "<9,0> Compose Diacritics in Latin lookup 8 nested-substitutions 0 subtable" <Delete>
EndChar

StartChar: braceright
Encoding: 125 125 96
Width: 600
Flags: W
LayerCount: 2
Fore
SplineSet
400 300 m 1,0,1
 359 300 359 300 329.5 270.5 c 128,-1,2
 300 241 300 241 300 200 c 2,3,-1
 300 -25 l 2,4,5
 300 -97 300 -97 241.5 -148.5 c 128,-1,6
 183 -200 183 -200 100 -200 c 1,7,-1
 100 -100 l 1,8,9
 141 -100 141 -100 170.5 -70.5 c 128,-1,10
 200 -41 200 -41 200 0 c 2,11,-1
 200 250 l 2,12,13
 200 303 200 303 300 344 c 1,14,-1
 300 356 l 1,15,16
 200 397 200 397 200 450 c 2,17,-1
 200 700 l 2,18,19
 200 741 200 741 170.5 770.5 c 128,-1,20
 141 800 141 800 100 800 c 1,21,-1
 100 900 l 1,22,23
 183 900 183 900 241.5 848.5 c 128,-1,24
 300 797 300 797 300 725 c 2,25,-1
 300 500 l 2,26,27
 300 459 300 459 329.5 429.5 c 128,-1,28
 359 400 359 400 400 400 c 1,29,-1
 400 300 l 1,0,1
EndSplineSet
Substitution2: "<9,0> Compose Diacritics in Latin lookup 8 nested-substitutions 6 subtable" <Delete>
Substitution2: "<9,0> Compose Diacritics in Latin lookup 8 nested-substitutions 5 subtable" <Delete>
Substitution2: "<9,0> Compose Diacritics in Latin lookup 8 nested-substitutions 4 subtable" <Delete>
Substitution2: "<9,0> Compose Diacritics in Latin lookup 8 nested-substitutions 3 subtable" <Delete>
Substitution2: "<9,0> Compose Diacritics in Latin lookup 8 nested-substitutions 2 subtable" <Delete>
Substitution2: "<9,0> Compose Diacritics in Latin lookup 8 nested-substitutions 0 subtable" <Delete>
Substitution2: "'rtla' Right to Left Alternates lookup 0 subtable" braceleft
EndChar

StartChar: asciitilde
Encoding: 126 126 97
Width: 600
Flags: W
LayerCount: 2
Fore
SplineSet
500 450 m 2,0,1
 500 388 500 388 456 344 c 128,-1,2
 412 300 412 300 350 300 c 256,3,4
 288 300 288 300 250 338 c 0,5,6
 188 400 188 400 150 400 c 0,7,8
 129 400 129 400 114.5 385.5 c 128,-1,9
 100 371 100 371 100 350 c 2,10,-1
 100 300 l 1,11,-1
 0 300 l 1,12,-1
 0 350 l 2,13,14
 0 412 0 412 44 456 c 128,-1,15
 88 500 88 500 150 500 c 0,16,17
 213 500 213 500 250 463 c 0,18,19
 313 400 313 400 350 400 c 0,20,21
 371 400 371 400 385.5 414.5 c 128,-1,22
 400 429 400 429 400 450 c 2,23,-1
 400 500 l 1,24,-1
 500 500 l 1,25,-1
 500 450 l 2,0,1
EndSplineSet
Substitution2: "<9,0> Compose Diacritics in Latin lookup 8 nested-substitutions 6 subtable" Ecircumflex
Substitution2: "<9,0> Compose Diacritics in Latin lookup 8 nested-substitutions 5 subtable" <Delete>
Substitution2: "<9,0> Compose Diacritics in Latin lookup 8 nested-substitutions 4 subtable" Oslash
Substitution2: "<9,0> Compose Diacritics in Latin lookup 8 nested-substitutions 3 subtable" Egrave
Substitution2: "<9,0> Compose Diacritics in Latin lookup 8 nested-substitutions 2 subtable" Idieresis
Substitution2: "<9,0> Compose Diacritics in Latin lookup 8 nested-substitutions 0 subtable" <Delete>
EndChar

StartChar: Adieresis
Encoding: 196 196 98
Width: 600
Flags: W
LayerCount: 2
Fore
SplineSet
400 850 m 256,0,1
 400 829 400 829 385.5 814.5 c 128,-1,2
 371 800 371 800 350 800 c 256,3,4
 329 800 329 800 314.5 814.5 c 128,-1,5
 300 829 300 829 300 850 c 256,6,7
 300 871 300 871 314.5 885.5 c 128,-1,8
 329 900 329 900 350 900 c 256,9,10
 371 900 371 900 385.5 885.5 c 128,-1,11
 400 871 400 871 400 850 c 256,0,1
200 850 m 256,12,13
 200 829 200 829 185.5 814.5 c 128,-1,14
 171 800 171 800 150 800 c 256,15,16
 129 800 129 800 114.5 814.5 c 128,-1,17
 100 829 100 829 100 850 c 256,18,19
 100 871 100 871 114.5 885.5 c 128,-1,20
 129 900 129 900 150 900 c 256,21,22
 171 900 171 900 185.5 885.5 c 128,-1,23
 200 871 200 871 200 850 c 256,12,13
100 200 m 1,24,-1
 100 0 l 1,25,-1
 0 0 l 1,26,-1
 0 325 l 1,27,-1
 188 700 l 1,28,-1
 313 700 l 1,29,-1
 500 325 l 1,30,-1
 500 0 l 1,31,-1
 400 0 l 1,32,-1
 400 200 l 1,33,-1
 100 200 l 1,24,-1
250 600 m 1,34,-1
 100 300 l 1,35,-1
 400 300 l 1,36,-1
 250 600 l 1,34,-1
EndSplineSet
Substitution2: "<9,0> Compose Diacritics in Latin lookup 8 nested-substitutions 6 subtable" <Delete>
Substitution2: "<9,0> Compose Diacritics in Latin lookup 8 nested-substitutions 5 subtable" <Delete>
Substitution2: "<9,0> Compose Diacritics in Latin lookup 8 nested-substitutions 4 subtable" <Delete>
Substitution2: "<9,0> Compose Diacritics in Latin lookup 8 nested-substitutions 3 subtable" <Delete>
Substitution2: "<9,0> Compose Diacritics in Latin lookup 8 nested-substitutions 2 subtable" <Delete>
Substitution2: "<9,0> Compose Diacritics in Latin lookup 8 nested-substitutions 0 subtable" <Delete>
Substitution2: "<3,4> Initial Caps in Latin lookup 3 nested-substitutions 0 subtable" adieresis
Substitution2: "<3,2> All Lower Case in Latin lookup 2 subtable" adieresis
EndChar

StartChar: Aring
Encoding: 197 197 99
Width: 600
Flags: W
LayerCount: 2
Fore
SplineSet
155 634 m 1,0,1
 100 679 100 679 100 750 c 0,2,3
 100 812 100 812 144 856 c 128,-1,4
 188 900 188 900 250 900 c 256,5,6
 312 900 312 900 356 856 c 128,-1,7
 400 812 400 812 400 750 c 0,8,9
 400 679 400 679 345 634 c 1,10,-1
 500 325 l 1,11,-1
 500 0 l 1,12,-1
 400 0 l 1,13,-1
 400 200 l 1,14,-1
 100 200 l 1,15,-1
 100 0 l 1,16,-1
 0 0 l 1,17,-1
 0 325 l 1,18,-1
 155 634 l 1,0,1
200 750 m 256,19,20
 200 729 200 729 214.5 714.5 c 128,-1,21
 229 700 229 700 250 700 c 256,22,23
 271 700 271 700 285.5 714.5 c 128,-1,24
 300 729 300 729 300 750 c 256,25,26
 300 771 300 771 285.5 785.5 c 128,-1,27
 271 800 271 800 250 800 c 256,28,29
 229 800 229 800 214.5 785.5 c 128,-1,30
 200 771 200 771 200 750 c 256,19,20
250 600 m 1,31,-1
 100 300 l 1,32,-1
 400 300 l 1,33,-1
 250 600 l 1,31,-1
EndSplineSet
Substitution2: "<9,0> Compose Diacritics in Latin lookup 8 nested-substitutions 6 subtable" <Delete>
Substitution2: "<9,0> Compose Diacritics in Latin lookup 8 nested-substitutions 5 subtable" <Delete>
Substitution2: "<9,0> Compose Diacritics in Latin lookup 8 nested-substitutions 4 subtable" <Delete>
Substitution2: "<9,0> Compose Diacritics in Latin lookup 8 nested-substitutions 3 subtable" <Delete>
Substitution2: "<9,0> Compose Diacritics in Latin lookup 8 nested-substitutions 2 subtable" <Delete>
Substitution2: "<9,0> Compose Diacritics in Latin lookup 8 nested-substitutions 0 subtable" <Delete>
Substitution2: "<3,4> Initial Caps in Latin lookup 3 nested-substitutions 0 subtable" aring
Substitution2: "<3,2> All Lower Case in Latin lookup 2 subtable" aring
EndChar

StartChar: Ccedilla
Encoding: 199 199 100
Width: 600
Flags: W
LayerCount: 2
Fore
SplineSet
500 200 m 1,0,1
 500 117 500 117 441.5 58.5 c 128,-1,2
 383 0 383 0 300 0 c 2,3,-1
 281 0 l 1,4,-1
 319 -37 l 1,5,-1
 156 -200 l 1,6,-1
 87 -131 l 1,7,-1
 219 0 l 1,8,-1
 200 0 l 2,9,10
 117 0 117 0 58.5 59 c 128,-1,11
 0 118 0 118 0 200 c 2,12,-1
 0 500 l 2,13,14
 0 582 0 582 59 641 c 128,-1,15
 118 700 118 700 200 700 c 2,16,-1
 300 700 l 2,17,18
 382 700 382 700 441 641 c 128,-1,19
 500 582 500 582 500 500 c 1,20,-1
 400 500 l 1,21,22
 400 541 400 541 370.5 570.5 c 128,-1,23
 341 600 341 600 300 600 c 2,24,-1
 200 600 l 2,25,26
 159 600 159 600 129.5 570.5 c 128,-1,27
 100 541 100 541 100 500 c 2,28,-1
 100 200 l 2,29,30
 100 159 100 159 129.5 129.5 c 128,-1,31
 159 100 159 100 200 100 c 2,32,-1
 300 100 l 2,33,34
 341 100 341 100 370.5 129.5 c 128,-1,35
 400 159 400 159 400 200 c 1,36,-1
 500 200 l 1,0,1
281 0 m 1,37,-1
 219 0 l 1,38,-1
 281 0 l 1,37,-1
EndSplineSet
Substitution2: "<9,0> Compose Diacritics in Latin lookup 8 nested-substitutions 6 subtable" <Delete>
Substitution2: "<9,0> Compose Diacritics in Latin lookup 8 nested-substitutions 5 subtable" <Delete>
Substitution2: "<9,0> Compose Diacritics in Latin lookup 8 nested-substitutions 4 subtable" <Delete>
Substitution2: "<9,0> Compose Diacritics in Latin lookup 8 nested-substitutions 3 subtable" <Delete>
Substitution2: "<9,0> Compose Diacritics in Latin lookup 8 nested-substitutions 2 subtable" <Delete>
Substitution2: "<9,0> Compose Diacritics in Latin lookup 8 nested-substitutions 0 subtable" <Delete>
Substitution2: "<3,4> Initial Caps in Latin lookup 3 nested-substitutions 0 subtable" ccedilla
Substitution2: "<3,2> All Lower Case in Latin lookup 2 subtable" ccedilla
EndChar

StartChar: Eacute
Encoding: 201 201 101
Width: 600
Flags: W
LayerCount: 2
Fore
SplineSet
294 700 m 1,0,-1
 500 700 l 1,1,-1
 500 600 l 1,2,-1
 100 600 l 1,3,-1
 100 400 l 1,4,-1
 400 400 l 1,5,-1
 400 300 l 1,6,-1
 100 300 l 1,7,-1
 100 100 l 1,8,-1
 500 100 l 1,9,-1
 500 0 l 1,10,-1
 0 0 l 1,11,-1
 0 700 l 1,12,-1
 219 700 l 1,13,-1
 188 731 l 1,14,-1
 350 894 l 1,15,-1
 419 825 l 1,16,-1
 294 700 l 1,0,-1
EndSplineSet
Substitution2: "<9,0> Compose Diacritics in Latin lookup 8 nested-substitutions 6 subtable" Icircumflex
Substitution2: "<9,0> Compose Diacritics in Latin lookup 8 nested-substitutions 5 subtable" <Delete>
Substitution2: "<9,0> Compose Diacritics in Latin lookup 8 nested-substitutions 4 subtable" <Delete>
Substitution2: "<9,0> Compose Diacritics in Latin lookup 8 nested-substitutions 3 subtable" Igrave
Substitution2: "<9,0> Compose Diacritics in Latin lookup 8 nested-substitutions 2 subtable" <Delete>
Substitution2: "<9,0> Compose Diacritics in Latin lookup 8 nested-substitutions 0 subtable" <Delete>
Substitution2: "<3,4> Initial Caps in Latin lookup 3 nested-substitutions 0 subtable" eacute
Substitution2: "<3,2> All Lower Case in Latin lookup 2 subtable" eacute
EndChar

StartChar: Ntilde
Encoding: 209 209 102
Width: 600
Flags: W
LayerCount: 2
Fore
SplineSet
500 860 m 2,0,1
 500 798 500 798 456 754 c 128,-1,2
 412 710 412 710 350 710 c 256,3,4
 288 710 288 710 250 748 c 0,5,6
 188 810 188 810 150 810 c 0,7,8
 129 810 129 810 114.5 795.5 c 128,-1,9
 100 781 100 781 100 760 c 2,10,-1
 100 710 l 1,11,-1
 0 710 l 1,12,-1
 0 760 l 2,13,14
 0 822 0 822 44 866 c 128,-1,15
 88 910 88 910 150 910 c 0,16,17
 213 910 213 910 250 873 c 0,18,19
 313 810 313 810 350 810 c 0,20,21
 371 810 371 810 385.5 824.5 c 128,-1,22
 400 839 400 839 400 860 c 2,23,-1
 400 910 l 1,24,-1
 500 910 l 1,25,-1
 500 860 l 2,0,1
500 10 m 1,26,-1
 400 10 l 1,27,-1
 400 241 l 1,28,-1
 100 541 l 1,29,-1
 100 10 l 1,30,-1
 0 10 l 1,31,-1
 0 705 l 1,32,-1
 69 705 l 1,33,-1
 400 379 l 1,34,-1
 400 705 l 1,35,-1
 500 705 l 1,36,-1
 500 10 l 1,26,-1
EndSplineSet
Substitution2: "<9,0> Compose Diacritics in Latin lookup 8 nested-substitutions 6 subtable" <Delete>
Substitution2: "<9,0> Compose Diacritics in Latin lookup 8 nested-substitutions 5 subtable" <Delete>
Substitution2: "<9,0> Compose Diacritics in Latin lookup 8 nested-substitutions 4 subtable" <Delete>
Substitution2: "<9,0> Compose Diacritics in Latin lookup 8 nested-substitutions 3 subtable" <Delete>
Substitution2: "<9,0> Compose Diacritics in Latin lookup 8 nested-substitutions 2 subtable" <Delete>
Substitution2: "<9,0> Compose Diacritics in Latin lookup 8 nested-substitutions 0 subtable" <Delete>
Substitution2: "<3,4> Initial Caps in Latin lookup 3 nested-substitutions 0 subtable" ntilde
Substitution2: "<3,2> All Lower Case in Latin lookup 2 subtable" ntilde
EndChar

StartChar: Odieresis
Encoding: 214 214 103
Width: 600
Flags: W
LayerCount: 2
Fore
SplineSet
400 850 m 256,0,1
 400 829 400 829 385.5 814.5 c 128,-1,2
 371 800 371 800 350 800 c 256,3,4
 329 800 329 800 314.5 814.5 c 128,-1,5
 300 829 300 829 300 850 c 256,6,7
 300 871 300 871 314.5 885.5 c 128,-1,8
 329 900 329 900 350 900 c 256,9,10
 371 900 371 900 385.5 885.5 c 128,-1,11
 400 871 400 871 400 850 c 256,0,1
200 850 m 256,12,13
 200 829 200 829 185.5 814.5 c 128,-1,14
 171 800 171 800 150 800 c 256,15,16
 129 800 129 800 114.5 814.5 c 128,-1,17
 100 829 100 829 100 850 c 256,18,19
 100 871 100 871 114.5 885.5 c 128,-1,20
 129 900 129 900 150 900 c 256,21,22
 171 900 171 900 185.5 885.5 c 128,-1,23
 200 871 200 871 200 850 c 256,12,13
500 200 m 2,24,25
 500 118 500 118 441 59 c 128,-1,26
 382 0 382 0 300 0 c 2,27,-1
 200 0 l 2,28,29
 118 0 118 0 59 59 c 128,-1,30
 0 118 0 118 0 200 c 2,31,-1
 0 500 l 2,32,33
 0 582 0 582 59 641 c 128,-1,34
 118 700 118 700 200 700 c 2,35,-1
 300 700 l 2,36,37
 382 700 382 700 441 641 c 128,-1,38
 500 582 500 582 500 500 c 2,39,-1
 500 200 l 2,24,25
400 200 m 2,40,-1
 400 500 l 2,41,42
 400 541 400 541 370.5 570.5 c 128,-1,43
 341 600 341 600 300 600 c 2,44,-1
 200 600 l 2,45,46
 159 600 159 600 129.5 570.5 c 128,-1,47
 100 541 100 541 100 500 c 2,48,-1
 100 200 l 2,49,50
 100 159 100 159 129.5 129.5 c 128,-1,51
 159 100 159 100 200 100 c 2,52,-1
 300 100 l 2,53,54
 341 100 341 100 370.5 129.5 c 128,-1,55
 400 159 400 159 400 200 c 2,40,-1
EndSplineSet
Substitution2: "<9,0> Compose Diacritics in Latin lookup 8 nested-substitutions 6 subtable" <Delete>
Substitution2: "<9,0> Compose Diacritics in Latin lookup 8 nested-substitutions 5 subtable" <Delete>
Substitution2: "<9,0> Compose Diacritics in Latin lookup 8 nested-substitutions 4 subtable" <Delete>
Substitution2: "<9,0> Compose Diacritics in Latin lookup 8 nested-substitutions 3 subtable" <Delete>
Substitution2: "<9,0> Compose Diacritics in Latin lookup 8 nested-substitutions 2 subtable" Odieresis
Substitution2: "<9,0> Compose Diacritics in Latin lookup 8 nested-substitutions 0 subtable" Otilde
Substitution2: "<3,4> Initial Caps in Latin lookup 3 nested-substitutions 0 subtable" odieresis
Substitution2: "<3,2> All Lower Case in Latin lookup 2 subtable" odieresis
EndChar

StartChar: Udieresis
Encoding: 220 220 104
Width: 600
Flags: W
LayerCount: 2
Fore
SplineSet
400 850 m 256,0,1
 400 829 400 829 385.5 814.5 c 128,-1,2
 371 800 371 800 350 800 c 256,3,4
 329 800 329 800 314.5 814.5 c 128,-1,5
 300 829 300 829 300 850 c 256,6,7
 300 871 300 871 314.5 885.5 c 128,-1,8
 329 900 329 900 350 900 c 256,9,10
 371 900 371 900 385.5 885.5 c 128,-1,11
 400 871 400 871 400 850 c 256,0,1
200 850 m 256,12,13
 200 829 200 829 185.5 814.5 c 128,-1,14
 171 800 171 800 150 800 c 256,15,16
 129 800 129 800 114.5 814.5 c 128,-1,17
 100 829 100 829 100 850 c 256,18,19
 100 871 100 871 114.5 885.5 c 128,-1,20
 129 900 129 900 150 900 c 256,21,22
 171 900 171 900 185.5 885.5 c 128,-1,23
 200 871 200 871 200 850 c 256,12,13
500 200 m 2,24,25
 500 117 500 117 441 58.5 c 128,-1,26
 382 0 382 0 300 0 c 2,27,-1
 200 0 l 2,28,29
 118 0 118 0 59 58.5 c 128,-1,30
 0 117 0 117 0 200 c 2,31,-1
 0 700 l 1,32,-1
 100 700 l 1,33,-1
 100 200 l 2,34,35
 100 159 100 159 129.5 129.5 c 128,-1,36
 159 100 159 100 200 100 c 2,37,-1
 300 100 l 2,38,39
 341 100 341 100 370.5 129.5 c 128,-1,40
 400 159 400 159 400 200 c 2,41,-1
 400 700 l 1,42,-1
 500 700 l 1,43,-1
 500 200 l 2,24,25
EndSplineSet
Substitution2: "<9,0> Compose Diacritics in Latin lookup 8 nested-substitutions 6 subtable" <Delete>
Substitution2: "<9,0> Compose Diacritics in Latin lookup 8 nested-substitutions 5 subtable" <Delete>
Substitution2: "<9,0> Compose Diacritics in Latin lookup 8 nested-substitutions 4 subtable" <Delete>
Substitution2: "<9,0> Compose Diacritics in Latin lookup 8 nested-substitutions 3 subtable" <Delete>
Substitution2: "<9,0> Compose Diacritics in Latin lookup 8 nested-substitutions 2 subtable" <Delete>
Substitution2: "<9,0> Compose Diacritics in Latin lookup 8 nested-substitutions 0 subtable" <Delete>
Substitution2: "<3,4> Initial Caps in Latin lookup 3 nested-substitutions 0 subtable" udieresis
Substitution2: "<3,2> All Lower Case in Latin lookup 2 subtable" udieresis
EndChar

StartChar: aacute
Encoding: 225 225 105
Width: 600
Flags: W
LayerCount: 2
Fore
SplineSet
419 750 m 1,0,-1
 256 588 l 1,1,-1
 187 656 l 1,2,-1
 350 819 l 1,3,-1
 419 750 l 1,0,-1
500 500 m 1,4,-1
 500 0 l 1,5,-1
 400 0 l 1,6,-1
 400 138 l 1,7,-1
 338 75 l 2,8,9
 263 0 263 0 200 0 c 0,10,11
 117 0 117 0 58.5 58.5 c 128,-1,12
 0 117 0 117 0 200 c 2,13,-1
 0 300 l 2,14,15
 0 383 0 383 58.5 441.5 c 128,-1,16
 117 500 117 500 200 500 c 2,17,-1
 500 500 l 1,4,-1
200 400 m 2,18,19
 159 400 159 400 129.5 370.5 c 128,-1,20
 100 341 100 341 100 300 c 2,21,-1
 100 200 l 2,22,23
 100 159 100 159 129.5 129.5 c 128,-1,24
 159 100 159 100 200 100 c 0,25,26
 250 100 250 100 300 150 c 2,27,-1
 400 250 l 1,28,-1
 400 400 l 1,29,-1
 200 400 l 2,18,19
EndSplineSet
Substitution2: "<9,0> Compose Diacritics in Latin lookup 8 nested-substitutions 6 subtable" <Delete>
Substitution2: "<9,0> Compose Diacritics in Latin lookup 8 nested-substitutions 5 subtable" <Delete>
Substitution2: "<9,0> Compose Diacritics in Latin lookup 8 nested-substitutions 4 subtable" <Delete>
Substitution2: "<9,0> Compose Diacritics in Latin lookup 8 nested-substitutions 3 subtable" <Delete>
Substitution2: "<9,0> Compose Diacritics in Latin lookup 8 nested-substitutions 2 subtable" <Delete>
Substitution2: "<9,0> Compose Diacritics in Latin lookup 8 nested-substitutions 0 subtable" <Delete>
Substitution2: "<3,4> Initial Caps in Latin lookup 3 nested-substitutions 0 subtable" Aacute
Substitution2: "<3,1> All Upper Case in Latin lookup 1 subtable" Aacute
EndChar

StartChar: agrave
Encoding: 224 224 106
Width: 600
Flags: W
LayerCount: 2
Fore
SplineSet
412 656 m 1,0,-1
 344 588 l 1,1,-1
 181 750 l 1,2,-1
 250 819 l 1,3,-1
 412 656 l 1,0,-1
500 500 m 1,4,-1
 500 0 l 1,5,-1
 400 0 l 1,6,-1
 400 138 l 1,7,-1
 338 75 l 2,8,9
 263 0 263 0 200 0 c 0,10,11
 117 0 117 0 58.5 58.5 c 128,-1,12
 0 117 0 117 0 200 c 2,13,-1
 0 300 l 2,14,15
 0 383 0 383 58.5 441.5 c 128,-1,16
 117 500 117 500 200 500 c 2,17,-1
 500 500 l 1,4,-1
200 400 m 2,18,19
 159 400 159 400 129.5 370.5 c 128,-1,20
 100 341 100 341 100 300 c 2,21,-1
 100 200 l 2,22,23
 100 159 100 159 129.5 129.5 c 128,-1,24
 159 100 159 100 200 100 c 0,25,26
 250 100 250 100 300 150 c 2,27,-1
 400 250 l 1,28,-1
 400 400 l 1,29,-1
 200 400 l 2,18,19
EndSplineSet
Substitution2: "<9,0> Compose Diacritics in Latin lookup 8 nested-substitutions 6 subtable" <Delete>
Substitution2: "<9,0> Compose Diacritics in Latin lookup 8 nested-substitutions 5 subtable" <Delete>
Substitution2: "<9,0> Compose Diacritics in Latin lookup 8 nested-substitutions 4 subtable" <Delete>
Substitution2: "<9,0> Compose Diacritics in Latin lookup 8 nested-substitutions 3 subtable" <Delete>
Substitution2: "<9,0> Compose Diacritics in Latin lookup 8 nested-substitutions 2 subtable" <Delete>
Substitution2: "<9,0> Compose Diacritics in Latin lookup 8 nested-substitutions 0 subtable" <Delete>
Substitution2: "<3,4> Initial Caps in Latin lookup 3 nested-substitutions 0 subtable" Agrave
Substitution2: "<3,1> All Upper Case in Latin lookup 1 subtable" Agrave
EndChar

StartChar: acircumflex
Encoding: 226 226 107
Width: 600
Flags: W
LayerCount: 2
Fore
SplineSet
412 656 m 1,0,-1
 344 588 l 1,1,-1
 250 681 l 1,2,-1
 156 588 l 1,3,-1
 87 656 l 1,4,-1
 250 819 l 1,5,-1
 412 656 l 1,0,-1
500 500 m 1,6,-1
 500 0 l 1,7,-1
 400 0 l 1,8,-1
 400 138 l 1,9,-1
 338 75 l 2,10,11
 263 0 263 0 200 0 c 0,12,13
 117 0 117 0 58.5 58.5 c 128,-1,14
 0 117 0 117 0 200 c 2,15,-1
 0 300 l 2,16,17
 0 383 0 383 58.5 441.5 c 128,-1,18
 117 500 117 500 200 500 c 2,19,-1
 500 500 l 1,6,-1
200 400 m 2,20,21
 159 400 159 400 129.5 370.5 c 128,-1,22
 100 341 100 341 100 300 c 2,23,-1
 100 200 l 2,24,25
 100 159 100 159 129.5 129.5 c 128,-1,26
 159 100 159 100 200 100 c 0,27,28
 250 100 250 100 300 150 c 2,29,-1
 400 250 l 1,30,-1
 400 400 l 1,31,-1
 200 400 l 2,20,21
EndSplineSet
Substitution2: "<9,0> Compose Diacritics in Latin lookup 8 nested-substitutions 6 subtable" Ocircumflex
Substitution2: "<9,0> Compose Diacritics in Latin lookup 8 nested-substitutions 5 subtable" <Delete>
Substitution2: "<9,0> Compose Diacritics in Latin lookup 8 nested-substitutions 4 subtable" <Delete>
Substitution2: "<9,0> Compose Diacritics in Latin lookup 8 nested-substitutions 3 subtable" Ograve
Substitution2: "<9,0> Compose Diacritics in Latin lookup 8 nested-substitutions 2 subtable" <Delete>
Substitution2: "<9,0> Compose Diacritics in Latin lookup 8 nested-substitutions 0 subtable" <Delete>
Substitution2: "<3,4> Initial Caps in Latin lookup 3 nested-substitutions 0 subtable" Acircumflex
Substitution2: "<3,1> All Upper Case in Latin lookup 1 subtable" Acircumflex
EndChar

StartChar: adieresis
Encoding: 228 228 108
Width: 600
Flags: W
LayerCount: 2
Fore
SplineSet
400 650 m 256,0,1
 400 629 400 629 385.5 614.5 c 128,-1,2
 371 600 371 600 350 600 c 256,3,4
 329 600 329 600 314.5 614.5 c 128,-1,5
 300 629 300 629 300 650 c 256,6,7
 300 671 300 671 314.5 685.5 c 128,-1,8
 329 700 329 700 350 700 c 256,9,10
 371 700 371 700 385.5 685.5 c 128,-1,11
 400 671 400 671 400 650 c 256,0,1
200 650 m 256,12,13
 200 629 200 629 185.5 614.5 c 128,-1,14
 171 600 171 600 150 600 c 256,15,16
 129 600 129 600 114.5 614.5 c 128,-1,17
 100 629 100 629 100 650 c 256,18,19
 100 671 100 671 114.5 685.5 c 128,-1,20
 129 700 129 700 150 700 c 256,21,22
 171 700 171 700 185.5 685.5 c 128,-1,23
 200 671 200 671 200 650 c 256,12,13
500 500 m 1,24,-1
 500 0 l 1,25,-1
 400 0 l 1,26,-1
 400 138 l 1,27,-1
 338 75 l 2,28,29
 263 0 263 0 200 0 c 0,30,31
 117 0 117 0 58.5 58.5 c 128,-1,32
 0 117 0 117 0 200 c 2,33,-1
 0 300 l 2,34,35
 0 383 0 383 58.5 441.5 c 128,-1,36
 117 500 117 500 200 500 c 2,37,-1
 500 500 l 1,24,-1
200 400 m 2,38,39
 159 400 159 400 129.5 370.5 c 128,-1,40
 100 341 100 341 100 300 c 2,41,-1
 100 200 l 2,42,43
 100 159 100 159 129.5 129.5 c 128,-1,44
 159 100 159 100 200 100 c 0,45,46
 250 100 250 100 300 150 c 2,47,-1
 400 250 l 1,48,-1
 400 400 l 1,49,-1
 200 400 l 2,38,39
EndSplineSet
Substitution2: "<9,0> Compose Diacritics in Latin lookup 8 nested-substitutions 6 subtable" <Delete>
Substitution2: "<9,0> Compose Diacritics in Latin lookup 8 nested-substitutions 5 subtable" <Delete>
Substitution2: "<9,0> Compose Diacritics in Latin lookup 8 nested-substitutions 4 subtable" <Delete>
Substitution2: "<9,0> Compose Diacritics in Latin lookup 8 nested-substitutions 3 subtable" <Delete>
Substitution2: "<9,0> Compose Diacritics in Latin lookup 8 nested-substitutions 2 subtable" <Delete>
Substitution2: "<9,0> Compose Diacritics in Latin lookup 8 nested-substitutions 0 subtable" <Delete>
Substitution2: "<3,4> Initial Caps in Latin lookup 3 nested-substitutions 0 subtable" Adieresis
Substitution2: "<3,1> All Upper Case in Latin lookup 1 subtable" Adieresis
EndChar

StartChar: atilde
Encoding: 227 227 109
Width: 600
Flags: W
LayerCount: 2
Fore
SplineSet
500 750 m 2,0,1
 500 688 500 688 456 644 c 128,-1,2
 412 600 412 600 350 600 c 256,3,4
 288 600 288 600 250 638 c 0,5,6
 188 700 188 700 150 700 c 0,7,8
 129 700 129 700 114.5 685.5 c 128,-1,9
 100 671 100 671 100 650 c 2,10,-1
 100 600 l 1,11,-1
 0 600 l 1,12,-1
 0 650 l 2,13,14
 0 712 0 712 44 756 c 128,-1,15
 88 800 88 800 150 800 c 0,16,17
 213 800 213 800 250 763 c 0,18,19
 313 700 313 700 350 700 c 0,20,21
 371 700 371 700 385.5 714.5 c 128,-1,22
 400 729 400 729 400 750 c 2,23,-1
 400 800 l 1,24,-1
 500 800 l 1,25,-1
 500 750 l 2,0,1
500 500 m 1,26,-1
 500 0 l 1,27,-1
 400 0 l 1,28,-1
 400 138 l 1,29,-1
 338 75 l 2,30,31
 263 0 263 0 200 0 c 0,32,33
 117 0 117 0 58.5 58.5 c 128,-1,34
 0 117 0 117 0 200 c 2,35,-1
 0 300 l 2,36,37
 0 383 0 383 58.5 441.5 c 128,-1,38
 117 500 117 500 200 500 c 2,39,-1
 500 500 l 1,26,-1
200 400 m 2,40,41
 159 400 159 400 129.5 370.5 c 128,-1,42
 100 341 100 341 100 300 c 2,43,-1
 100 200 l 2,44,45
 100 159 100 159 129.5 129.5 c 128,-1,46
 159 100 159 100 200 100 c 0,47,48
 250 100 250 100 300 150 c 2,49,-1
 400 250 l 1,50,-1
 400 400 l 1,51,-1
 200 400 l 2,40,41
EndSplineSet
Substitution2: "<9,0> Compose Diacritics in Latin lookup 8 nested-substitutions 6 subtable" <Delete>
Substitution2: "<9,0> Compose Diacritics in Latin lookup 8 nested-substitutions 5 subtable" <Delete>
Substitution2: "<9,0> Compose Diacritics in Latin lookup 8 nested-substitutions 4 subtable" <Delete>
Substitution2: "<9,0> Compose Diacritics in Latin lookup 8 nested-substitutions 3 subtable" <Delete>
Substitution2: "<9,0> Compose Diacritics in Latin lookup 8 nested-substitutions 2 subtable" Udieresis
Substitution2: "<9,0> Compose Diacritics in Latin lookup 8 nested-substitutions 0 subtable" <Delete>
Substitution2: "<3,4> Initial Caps in Latin lookup 3 nested-substitutions 0 subtable" Atilde
Substitution2: "<3,1> All Upper Case in Latin lookup 1 subtable" Atilde
EndChar

StartChar: aring
Encoding: 229 229 110
Width: 600
Flags: W
LayerCount: 2
Fore
SplineSet
250 500 m 2,0,1
 188 500 188 500 144 544 c 128,-1,2
 100 588 100 588 100 650 c 256,3,4
 100 712 100 712 144 756 c 128,-1,5
 188 800 188 800 250 800 c 256,6,7
 312 800 312 800 356 756 c 128,-1,8
 400 712 400 712 400 650 c 256,9,10
 400 588 400 588 356 544 c 128,-1,11
 312 500 312 500 250 500 c 2,12,-1
 500 500 l 1,13,-1
 500 0 l 1,14,-1
 400 0 l 1,15,-1
 400 138 l 1,16,-1
 338 75 l 2,17,18
 263 0 263 0 200 0 c 0,19,20
 117 0 117 0 58.5 58.5 c 128,-1,21
 0 117 0 117 0 200 c 2,22,-1
 0 300 l 2,23,24
 0 383 0 383 58.5 441.5 c 128,-1,25
 117 500 117 500 200 500 c 2,26,-1
 250 500 l 2,0,1
200 650 m 256,27,28
 200 629 200 629 214.5 614.5 c 128,-1,29
 229 600 229 600 250 600 c 256,30,31
 271 600 271 600 285.5 614.5 c 128,-1,32
 300 629 300 629 300 650 c 256,33,34
 300 671 300 671 285.5 685.5 c 128,-1,35
 271 700 271 700 250 700 c 256,36,37
 229 700 229 700 214.5 685.5 c 128,-1,38
 200 671 200 671 200 650 c 256,27,28
200 400 m 2,39,40
 159 400 159 400 129.5 370.5 c 128,-1,41
 100 341 100 341 100 300 c 2,42,-1
 100 200 l 2,43,44
 100 159 100 159 129.5 129.5 c 128,-1,45
 159 100 159 100 200 100 c 0,46,47
 250 100 250 100 300 150 c 2,48,-1
 400 250 l 1,49,-1
 400 400 l 1,50,-1
 200 400 l 2,39,40
EndSplineSet
Substitution2: "<9,0> Compose Diacritics in Latin lookup 8 nested-substitutions 6 subtable" <Delete>
Substitution2: "<9,0> Compose Diacritics in Latin lookup 8 nested-substitutions 5 subtable" <Delete>
Substitution2: "<9,0> Compose Diacritics in Latin lookup 8 nested-substitutions 4 subtable" <Delete>
Substitution2: "<9,0> Compose Diacritics in Latin lookup 8 nested-substitutions 3 subtable" <Delete>
Substitution2: "<9,0> Compose Diacritics in Latin lookup 8 nested-substitutions 2 subtable" <Delete>
Substitution2: "<9,0> Compose Diacritics in Latin lookup 8 nested-substitutions 0 subtable" <Delete>
Substitution2: "<3,4> Initial Caps in Latin lookup 3 nested-substitutions 0 subtable" Aring
Substitution2: "<3,1> All Upper Case in Latin lookup 1 subtable" Aring
EndChar

StartChar: ccedilla
Encoding: 231 231 111
Width: 600
Flags: W
LayerCount: 2
Fore
SplineSet
500 0 m 1,0,-1
 281 0 l 1,1,-1
 319 -37 l 1,2,-1
 156 -200 l 1,3,-1
 87 -131 l 1,4,-1
 219 0 l 1,5,-1
 200 0 l 2,6,7
 117 0 117 0 58.5 59 c 128,-1,8
 0 118 0 118 0 200 c 2,9,-1
 0 300 l 2,10,11
 0 382 0 382 59 441 c 128,-1,12
 118 500 118 500 200 500 c 2,13,-1
 300 500 l 2,14,15
 382 500 382 500 441 441 c 128,-1,16
 500 382 500 382 500 300 c 1,17,-1
 400 300 l 1,18,19
 400 341 400 341 370.5 370.5 c 128,-1,20
 341 400 341 400 300 400 c 2,21,-1
 200 400 l 2,22,23
 159 400 159 400 129.5 370.5 c 128,-1,24
 100 341 100 341 100 300 c 2,25,-1
 100 200 l 2,26,27
 100 159 100 159 129.5 129.5 c 128,-1,28
 159 100 159 100 200 100 c 2,29,-1
 500 100 l 1,30,-1
 500 0 l 1,0,-1
281 0 m 1,31,-1
 219 0 l 1,32,-1
 281 0 l 1,31,-1
EndSplineSet
Substitution2: "<9,0> Compose Diacritics in Latin lookup 8 nested-substitutions 6 subtable" <Delete>
Substitution2: "<9,0> Compose Diacritics in Latin lookup 8 nested-substitutions 5 subtable" <Delete>
Substitution2: "<9,0> Compose Diacritics in Latin lookup 8 nested-substitutions 4 subtable" <Delete>
Substitution2: "<9,0> Compose Diacritics in Latin lookup 8 nested-substitutions 3 subtable" <Delete>
Substitution2: "<9,0> Compose Diacritics in Latin lookup 8 nested-substitutions 2 subtable" <Delete>
Substitution2: "<9,0> Compose Diacritics in Latin lookup 8 nested-substitutions 0 subtable" <Delete>
Substitution2: "<3,4> Initial Caps in Latin lookup 3 nested-substitutions 0 subtable" Ccedilla
Substitution2: "<3,1> All Upper Case in Latin lookup 1 subtable" Ccedilla
EndChar

StartChar: eacute
Encoding: 233 233 112
Width: 600
Flags: W
LayerCount: 2
Fore
SplineSet
419 750 m 1,0,-1
 256 588 l 1,1,-1
 187 656 l 1,2,-1
 350 819 l 1,3,-1
 419 750 l 1,0,-1
500 0 m 1,4,-1
 200 0 l 2,5,6
 118 0 118 0 59 59 c 128,-1,7
 0 118 0 118 0 200 c 2,8,-1
 0 300 l 2,9,10
 0 382 0 382 59 441 c 128,-1,11
 118 500 118 500 200 500 c 2,12,-1
 300 500 l 2,13,14
 382 500 382 500 441 441 c 128,-1,15
 500 382 500 382 500 300 c 2,16,-1
 500 200 l 1,17,-1
 100 200 l 1,18,19
 100 159 100 159 129.5 129.5 c 128,-1,20
 159 100 159 100 200 100 c 2,21,-1
 500 100 l 1,22,-1
 500 0 l 1,4,-1
400 300 m 1,23,24
 400 341 400 341 370.5 370.5 c 128,-1,25
 341 400 341 400 300 400 c 2,26,-1
 200 400 l 2,27,28
 159 400 159 400 129.5 370.5 c 128,-1,29
 100 341 100 341 100 300 c 1,30,-1
 400 300 l 1,23,24
EndSplineSet
Substitution2: "<9,0> Compose Diacritics in Latin lookup 8 nested-substitutions 6 subtable" <Delete>
Substitution2: "<9,0> Compose Diacritics in Latin lookup 8 nested-substitutions 5 subtable" <Delete>
Substitution2: "<9,0> Compose Diacritics in Latin lookup 8 nested-substitutions 4 subtable" <Delete>
Substitution2: "<9,0> Compose Diacritics in Latin lookup 8 nested-substitutions 3 subtable" <Delete>
Substitution2: "<9,0> Compose Diacritics in Latin lookup 8 nested-substitutions 2 subtable" <Delete>
Substitution2: "<9,0> Compose Diacritics in Latin lookup 8 nested-substitutions 0 subtable" <Delete>
Substitution2: "<3,4> Initial Caps in Latin lookup 3 nested-substitutions 0 subtable" Eacute
Substitution2: "<3,1> All Upper Case in Latin lookup 1 subtable" Eacute
EndChar

StartChar: egrave
Encoding: 232 232 113
Width: 600
Flags: W
LayerCount: 2
Fore
SplineSet
312 656 m 1,0,-1
 244 588 l 1,1,-1
 81 750 l 1,2,-1
 150 819 l 1,3,-1
 312 656 l 1,0,-1
500 0 m 1,4,-1
 200 0 l 2,5,6
 118 0 118 0 59 59 c 128,-1,7
 0 118 0 118 0 200 c 2,8,-1
 0 300 l 2,9,10
 0 382 0 382 59 441 c 128,-1,11
 118 500 118 500 200 500 c 2,12,-1
 300 500 l 2,13,14
 382 500 382 500 441 441 c 128,-1,15
 500 382 500 382 500 300 c 2,16,-1
 500 200 l 1,17,-1
 100 200 l 1,18,19
 100 159 100 159 129.5 129.5 c 128,-1,20
 159 100 159 100 200 100 c 2,21,-1
 500 100 l 1,22,-1
 500 0 l 1,4,-1
400 300 m 1,23,24
 400 341 400 341 370.5 370.5 c 128,-1,25
 341 400 341 400 300 400 c 2,26,-1
 200 400 l 2,27,28
 159 400 159 400 129.5 370.5 c 128,-1,29
 100 341 100 341 100 300 c 1,30,-1
 400 300 l 1,23,24
EndSplineSet
Substitution2: "<9,0> Compose Diacritics in Latin lookup 8 nested-substitutions 6 subtable" Ucircumflex
Substitution2: "<9,0> Compose Diacritics in Latin lookup 8 nested-substitutions 5 subtable" <Delete>
Substitution2: "<9,0> Compose Diacritics in Latin lookup 8 nested-substitutions 4 subtable" <Delete>
Substitution2: "<9,0> Compose Diacritics in Latin lookup 8 nested-substitutions 3 subtable" Ugrave
Substitution2: "<9,0> Compose Diacritics in Latin lookup 8 nested-substitutions 2 subtable" <Delete>
Substitution2: "<9,0> Compose Diacritics in Latin lookup 8 nested-substitutions 0 subtable" <Delete>
Substitution2: "<3,4> Initial Caps in Latin lookup 3 nested-substitutions 0 subtable" Egrave
Substitution2: "<3,1> All Upper Case in Latin lookup 1 subtable" Egrave
EndChar

StartChar: ecircumflex
Encoding: 234 234 114
Width: 600
Flags: W
LayerCount: 2
Fore
SplineSet
412 656 m 1,0,-1
 344 588 l 1,1,-1
 250 681 l 1,2,-1
 156 588 l 1,3,-1
 87 656 l 1,4,-1
 250 819 l 1,5,-1
 412 656 l 1,0,-1
500 0 m 1,6,-1
 200 0 l 2,7,8
 118 0 118 0 59 59 c 128,-1,9
 0 118 0 118 0 200 c 2,10,-1
 0 300 l 2,11,12
 0 382 0 382 59 441 c 128,-1,13
 118 500 118 500 200 500 c 2,14,-1
 300 500 l 2,15,16
 382 500 382 500 441 441 c 128,-1,17
 500 382 500 382 500 300 c 2,18,-1
 500 200 l 1,19,-1
 100 200 l 1,20,21
 100 159 100 159 129.5 129.5 c 128,-1,22
 159 100 159 100 200 100 c 2,23,-1
 500 100 l 1,24,-1
 500 0 l 1,6,-1
400 300 m 1,25,26
 400 341 400 341 370.5 370.5 c 128,-1,27
 341 400 341 400 300 400 c 2,28,-1
 200 400 l 2,29,30
 159 400 159 400 129.5 370.5 c 128,-1,31
 100 341 100 341 100 300 c 1,32,-1
 400 300 l 1,25,26
EndSplineSet
Substitution2: "<9,0> Compose Diacritics in Latin lookup 8 nested-substitutions 6 subtable" <Delete>
Substitution2: "<9,0> Compose Diacritics in Latin lookup 8 nested-substitutions 5 subtable" <Delete>
Substitution2: "<9,0> Compose Diacritics in Latin lookup 8 nested-substitutions 4 subtable" <Delete>
Substitution2: "<9,0> Compose Diacritics in Latin lookup 8 nested-substitutions 3 subtable" <Delete>
Substitution2: "<9,0> Compose Diacritics in Latin lookup 8 nested-substitutions 2 subtable" <Delete>
Substitution2: "<9,0> Compose Diacritics in Latin lookup 8 nested-substitutions 0 subtable" <Delete>
Substitution2: "<3,4> Initial Caps in Latin lookup 3 nested-substitutions 0 subtable" Ecircumflex
Substitution2: "<3,1> All Upper Case in Latin lookup 1 subtable" Ecircumflex
EndChar

StartChar: edieresis
Encoding: 235 235 115
Width: 600
Flags: W
LayerCount: 2
Fore
SplineSet
400 650 m 256,0,1
 400 629 400 629 385.5 614.5 c 128,-1,2
 371 600 371 600 350 600 c 256,3,4
 329 600 329 600 314.5 614.5 c 128,-1,5
 300 629 300 629 300 650 c 256,6,7
 300 671 300 671 314.5 685.5 c 128,-1,8
 329 700 329 700 350 700 c 256,9,10
 371 700 371 700 385.5 685.5 c 128,-1,11
 400 671 400 671 400 650 c 256,0,1
200 650 m 256,12,13
 200 629 200 629 185.5 614.5 c 128,-1,14
 171 600 171 600 150 600 c 256,15,16
 129 600 129 600 114.5 614.5 c 128,-1,17
 100 629 100 629 100 650 c 256,18,19
 100 671 100 671 114.5 685.5 c 128,-1,20
 129 700 129 700 150 700 c 256,21,22
 171 700 171 700 185.5 685.5 c 128,-1,23
 200 671 200 671 200 650 c 256,12,13
500 0 m 1,24,-1
 200 0 l 2,25,26
 118 0 118 0 59 59 c 128,-1,27
 0 118 0 118 0 200 c 2,28,-1
 0 300 l 2,29,30
 0 382 0 382 59 441 c 128,-1,31
 118 500 118 500 200 500 c 2,32,-1
 300 500 l 2,33,34
 382 500 382 500 441 441 c 128,-1,35
 500 382 500 382 500 300 c 2,36,-1
 500 200 l 1,37,-1
 100 200 l 1,38,39
 100 159 100 159 129.5 129.5 c 128,-1,40
 159 100 159 100 200 100 c 2,41,-1
 500 100 l 1,42,-1
 500 0 l 1,24,-1
400 300 m 1,43,44
 400 341 400 341 370.5 370.5 c 128,-1,45
 341 400 341 400 300 400 c 2,46,-1
 200 400 l 2,47,48
 159 400 159 400 129.5 370.5 c 128,-1,49
 100 341 100 341 100 300 c 1,50,-1
 400 300 l 1,43,44
EndSplineSet
Substitution2: "<9,0> Compose Diacritics in Latin lookup 8 nested-substitutions 6 subtable" <Delete>
Substitution2: "<9,0> Compose Diacritics in Latin lookup 8 nested-substitutions 5 subtable" <Delete>
Substitution2: "<9,0> Compose Diacritics in Latin lookup 8 nested-substitutions 4 subtable" atilde
Substitution2: "<9,0> Compose Diacritics in Latin lookup 8 nested-substitutions 3 subtable" <Delete>
Substitution2: "<9,0> Compose Diacritics in Latin lookup 8 nested-substitutions 2 subtable" <Delete>
Substitution2: "<9,0> Compose Diacritics in Latin lookup 8 nested-substitutions 0 subtable" <Delete>
Substitution2: "<3,4> Initial Caps in Latin lookup 3 nested-substitutions 0 subtable" Edieresis
Substitution2: "<3,1> All Upper Case in Latin lookup 1 subtable" Edieresis
EndChar

StartChar: iacute
Encoding: 237 237 116
Width: 600
Flags: W
LayerCount: 2
Fore
SplineSet
419 750 m 1,0,-1
 256 588 l 1,1,-1
 187 656 l 1,2,-1
 350 819 l 1,3,-1
 419 750 l 1,0,-1
400 0 m 1,4,-1
 100 0 l 1,5,-1
 100 100 l 1,6,-1
 200 100 l 1,7,-1
 200 400 l 1,8,-1
 100 400 l 1,9,-1
 100 500 l 1,10,-1
 300 500 l 1,11,-1
 300 100 l 1,12,-1
 400 100 l 1,13,-1
 400 0 l 1,4,-1
EndSplineSet
Substitution2: "<9,0> Compose Diacritics in Latin lookup 8 nested-substitutions 6 subtable" <Delete>
Substitution2: "<9,0> Compose Diacritics in Latin lookup 8 nested-substitutions 5 subtable" <Delete>
Substitution2: "<9,0> Compose Diacritics in Latin lookup 8 nested-substitutions 4 subtable" <Delete>
Substitution2: "<9,0> Compose Diacritics in Latin lookup 8 nested-substitutions 3 subtable" <Delete>
Substitution2: "<9,0> Compose Diacritics in Latin lookup 8 nested-substitutions 2 subtable" <Delete>
Substitution2: "<9,0> Compose Diacritics in Latin lookup 8 nested-substitutions 0 subtable" <Delete>
Substitution2: "<3,4> Initial Caps in Latin lookup 3 nested-substitutions 0 subtable" Iacute
Substitution2: "<3,1> All Upper Case in Latin lookup 1 subtable" Iacute
EndChar

StartChar: igrave
Encoding: 236 236 117
Width: 600
Flags: W
LayerCount: 2
Fore
SplineSet
312 656 m 1,0,-1
 244 588 l 1,1,-1
 81 750 l 1,2,-1
 150 819 l 1,3,-1
 312 656 l 1,0,-1
400 0 m 1,4,-1
 100 0 l 1,5,-1
 100 100 l 1,6,-1
 200 100 l 1,7,-1
 200 400 l 1,8,-1
 100 400 l 1,9,-1
 100 500 l 1,10,-1
 300 500 l 1,11,-1
 300 100 l 1,12,-1
 400 100 l 1,13,-1
 400 0 l 1,4,-1
EndSplineSet
Substitution2: "<9,0> Compose Diacritics in Latin lookup 8 nested-substitutions 6 subtable" <Delete>
Substitution2: "<9,0> Compose Diacritics in Latin lookup 8 nested-substitutions 5 subtable" <Delete>
Substitution2: "<9,0> Compose Diacritics in Latin lookup 8 nested-substitutions 4 subtable" <Delete>
Substitution2: "<9,0> Compose Diacritics in Latin lookup 8 nested-substitutions 3 subtable" Ydieresis
Substitution2: "<9,0> Compose Diacritics in Latin lookup 8 nested-substitutions 2 subtable" <Delete>
Substitution2: "<9,0> Compose Diacritics in Latin lookup 8 nested-substitutions 0 subtable" <Delete>
Substitution2: "<3,4> Initial Caps in Latin lookup 3 nested-substitutions 0 subtable" Igrave
Substitution2: "<3,1> All Upper Case in Latin lookup 1 subtable" Igrave
EndChar

StartChar: icircumflex
Encoding: 238 238 118
Width: 600
Flags: W
LayerCount: 2
Fore
SplineSet
412 656 m 1,0,-1
 344 588 l 1,1,-1
 250 681 l 1,2,-1
 156 588 l 1,3,-1
 87 656 l 1,4,-1
 250 819 l 1,5,-1
 412 656 l 1,0,-1
400 0 m 1,6,-1
 100 0 l 1,7,-1
 100 100 l 1,8,-1
 200 100 l 1,9,-1
 200 400 l 1,10,-1
 100 400 l 1,11,-1
 100 500 l 1,12,-1
 300 500 l 1,13,-1
 300 100 l 1,14,-1
 400 100 l 1,15,-1
 400 0 l 1,6,-1
EndSplineSet
Substitution2: "<9,0> Compose Diacritics in Latin lookup 8 nested-substitutions 6 subtable" <Delete>
Substitution2: "<9,0> Compose Diacritics in Latin lookup 8 nested-substitutions 5 subtable" <Delete>
Substitution2: "<9,0> Compose Diacritics in Latin lookup 8 nested-substitutions 4 subtable" <Delete>
Substitution2: "<9,0> Compose Diacritics in Latin lookup 8 nested-substitutions 3 subtable" <Delete>
Substitution2: "<9,0> Compose Diacritics in Latin lookup 8 nested-substitutions 2 subtable" <Delete>
Substitution2: "<9,0> Compose Diacritics in Latin lookup 8 nested-substitutions 0 subtable" <Delete>
Substitution2: "<3,4> Initial Caps in Latin lookup 3 nested-substitutions 0 subtable" Icircumflex
Substitution2: "<3,1> All Upper Case in Latin lookup 1 subtable" Icircumflex
EndChar

StartChar: idieresis
Encoding: 239 239 119
Width: 600
Flags: W
LayerCount: 2
Fore
SplineSet
400 650 m 256,0,1
 400 629 400 629 385.5 614.5 c 128,-1,2
 371 600 371 600 350 600 c 256,3,4
 329 600 329 600 314.5 614.5 c 128,-1,5
 300 629 300 629 300 650 c 256,6,7
 300 671 300 671 314.5 685.5 c 128,-1,8
 329 700 329 700 350 700 c 256,9,10
 371 700 371 700 385.5 685.5 c 128,-1,11
 400 671 400 671 400 650 c 256,0,1
200 650 m 256,12,13
 200 629 200 629 185.5 614.5 c 128,-1,14
 171 600 171 600 150 600 c 256,15,16
 129 600 129 600 114.5 614.5 c 128,-1,17
 100 629 100 629 100 650 c 256,18,19
 100 671 100 671 114.5 685.5 c 128,-1,20
 129 700 129 700 150 700 c 256,21,22
 171 700 171 700 185.5 685.5 c 128,-1,23
 200 671 200 671 200 650 c 256,12,13
400 0 m 1,24,-1
 100 0 l 1,25,-1
 100 100 l 1,26,-1
 200 100 l 1,27,-1
 200 400 l 1,28,-1
 100 400 l 1,29,-1
 100 500 l 1,30,-1
 300 500 l 1,31,-1
 300 100 l 1,32,-1
 400 100 l 1,33,-1
 400 0 l 1,24,-1
EndSplineSet
Substitution2: "<9,0> Compose Diacritics in Latin lookup 8 nested-substitutions 6 subtable" <Delete>
Substitution2: "<9,0> Compose Diacritics in Latin lookup 8 nested-substitutions 5 subtable" <Delete>
Substitution2: "<9,0> Compose Diacritics in Latin lookup 8 nested-substitutions 4 subtable" <Delete>
Substitution2: "<9,0> Compose Diacritics in Latin lookup 8 nested-substitutions 3 subtable" <Delete>
Substitution2: "<9,0> Compose Diacritics in Latin lookup 8 nested-substitutions 2 subtable" <Delete>
Substitution2: "<9,0> Compose Diacritics in Latin lookup 8 nested-substitutions 0 subtable" <Delete>
Substitution2: "<3,4> Initial Caps in Latin lookup 3 nested-substitutions 0 subtable" Idieresis
Substitution2: "<3,1> All Upper Case in Latin lookup 1 subtable" Idieresis
EndChar

StartChar: ntilde
Encoding: 241 241 120
Width: 600
Flags: W
LayerCount: 2
Fore
SplineSet
500 750 m 2,0,1
 500 688 500 688 456 644 c 128,-1,2
 412 600 412 600 350 600 c 256,3,4
 288 600 288 600 250 638 c 0,5,6
 188 700 188 700 150 700 c 0,7,8
 129 700 129 700 114.5 685.5 c 128,-1,9
 100 671 100 671 100 650 c 2,10,-1
 100 600 l 1,11,-1
 0 600 l 1,12,-1
 0 650 l 2,13,14
 0 712 0 712 44 756 c 128,-1,15
 88 800 88 800 150 800 c 0,16,17
 213 800 213 800 250 763 c 0,18,19
 313 700 313 700 350 700 c 0,20,21
 371 700 371 700 385.5 714.5 c 128,-1,22
 400 729 400 729 400 750 c 2,23,-1
 400 800 l 1,24,-1
 500 800 l 1,25,-1
 500 750 l 2,0,1
100 500 m 1,26,-1
 100 363 l 1,27,-1
 163 425 l 2,28,29
 238 500 238 500 300 500 c 0,30,31
 383 500 383 500 441.5 441.5 c 128,-1,32
 500 383 500 383 500 300 c 2,33,-1
 500 0 l 1,34,-1
 400 0 l 1,35,-1
 400 300 l 2,36,37
 400 341 400 341 370.5 370.5 c 128,-1,38
 341 400 341 400 300 400 c 0,39,40
 250 400 250 400 200 350 c 2,41,-1
 100 250 l 1,42,-1
 100 0 l 1,43,-1
 0 0 l 1,44,-1
 0 500 l 1,45,-1
 100 500 l 1,26,-1
EndSplineSet
Substitution2: "<9,0> Compose Diacritics in Latin lookup 8 nested-substitutions 6 subtable" <Delete>
Substitution2: "<9,0> Compose Diacritics in Latin lookup 8 nested-substitutions 5 subtable" <Delete>
Substitution2: "<9,0> Compose Diacritics in Latin lookup 8 nested-substitutions 4 subtable" <Delete>
Substitution2: "<9,0> Compose Diacritics in Latin lookup 8 nested-substitutions 3 subtable" <Delete>
Substitution2: "<9,0> Compose Diacritics in Latin lookup 8 nested-substitutions 2 subtable" <Delete>
Substitution2: "<9,0> Compose Diacritics in Latin lookup 8 nested-substitutions 0 subtable" <Delete>
Substitution2: "<3,4> Initial Caps in Latin lookup 3 nested-substitutions 0 subtable" Ntilde
Substitution2: "<3,1> All Upper Case in Latin lookup 1 subtable" Ntilde
EndChar

StartChar: oacute
Encoding: 243 243 121
Width: 600
Flags: W
LayerCount: 2
Fore
SplineSet
419 750 m 1,0,-1
 256 588 l 1,1,-1
 187 656 l 1,2,-1
 350 819 l 1,3,-1
 419 750 l 1,0,-1
500 200 m 2,4,5
 500 118 500 118 441 59 c 128,-1,6
 382 0 382 0 300 0 c 2,7,-1
 200 0 l 2,8,9
 118 0 118 0 59 59 c 128,-1,10
 0 118 0 118 0 200 c 2,11,-1
 0 300 l 2,12,13
 0 382 0 382 59 441 c 128,-1,14
 118 500 118 500 200 500 c 2,15,-1
 300 500 l 2,16,17
 382 500 382 500 441 441 c 128,-1,18
 500 382 500 382 500 300 c 2,19,-1
 500 200 l 2,4,5
400 200 m 2,20,-1
 400 300 l 2,21,22
 400 341 400 341 370.5 370.5 c 128,-1,23
 341 400 341 400 300 400 c 2,24,-1
 200 400 l 2,25,26
 159 400 159 400 129.5 370.5 c 128,-1,27
 100 341 100 341 100 300 c 2,28,-1
 100 200 l 2,29,30
 100 159 100 159 129.5 129.5 c 128,-1,31
 159 100 159 100 200 100 c 2,32,-1
 300 100 l 2,33,34
 341 100 341 100 370.5 129.5 c 128,-1,35
 400 159 400 159 400 200 c 2,20,-1
EndSplineSet
Substitution2: "<9,0> Compose Diacritics in Latin lookup 8 nested-substitutions 6 subtable" <Delete>
Substitution2: "<9,0> Compose Diacritics in Latin lookup 8 nested-substitutions 5 subtable" <Delete>
Substitution2: "<9,0> Compose Diacritics in Latin lookup 8 nested-substitutions 4 subtable" <Delete>
Substitution2: "<9,0> Compose Diacritics in Latin lookup 8 nested-substitutions 3 subtable" <Delete>
Substitution2: "<9,0> Compose Diacritics in Latin lookup 8 nested-substitutions 2 subtable" agrave
Substitution2: "<9,0> Compose Diacritics in Latin lookup 8 nested-substitutions 0 subtable" acircumflex
Substitution2: "<3,4> Initial Caps in Latin lookup 3 nested-substitutions 0 subtable" Oacute
Substitution2: "<3,1> All Upper Case in Latin lookup 1 subtable" Oacute
EndChar

StartChar: ograve
Encoding: 242 242 122
Width: 600
Flags: W
LayerCount: 2
Fore
SplineSet
312 656 m 1,0,-1
 244 588 l 1,1,-1
 81 750 l 1,2,-1
 150 819 l 1,3,-1
 312 656 l 1,0,-1
500 200 m 2,4,5
 500 118 500 118 441 59 c 128,-1,6
 382 0 382 0 300 0 c 2,7,-1
 200 0 l 2,8,9
 118 0 118 0 59 59 c 128,-1,10
 0 118 0 118 0 200 c 2,11,-1
 0 300 l 2,12,13
 0 382 0 382 59 441 c 128,-1,14
 118 500 118 500 200 500 c 2,15,-1
 300 500 l 2,16,17
 382 500 382 500 441 441 c 128,-1,18
 500 382 500 382 500 300 c 2,19,-1
 500 200 l 2,4,5
400 200 m 2,20,-1
 400 300 l 2,21,22
 400 341 400 341 370.5 370.5 c 128,-1,23
 341 400 341 400 300 400 c 2,24,-1
 200 400 l 2,25,26
 159 400 159 400 129.5 370.5 c 128,-1,27
 100 341 100 341 100 300 c 2,28,-1
 100 200 l 2,29,30
 100 159 100 159 129.5 129.5 c 128,-1,31
 159 100 159 100 200 100 c 2,32,-1
 300 100 l 2,33,34
 341 100 341 100 370.5 129.5 c 128,-1,35
 400 159 400 159 400 200 c 2,20,-1
EndSplineSet
Substitution2: "<9,0> Compose Diacritics in Latin lookup 8 nested-substitutions 6 subtable" <Delete>
Substitution2: "<9,0> Compose Diacritics in Latin lookup 8 nested-substitutions 5 subtable" <Delete>
Substitution2: "<9,0> Compose Diacritics in Latin lookup 8 nested-substitutions 4 subtable" <Delete>
Substitution2: "<9,0> Compose Diacritics in Latin lookup 8 nested-substitutions 3 subtable" <Delete>
Substitution2: "<9,0> Compose Diacritics in Latin lookup 8 nested-substitutions 2 subtable" <Delete>
Substitution2: "<9,0> Compose Diacritics in Latin lookup 8 nested-substitutions 0 subtable" <Delete>
Substitution2: "<3,4> Initial Caps in Latin lookup 3 nested-substitutions 0 subtable" Ograve
Substitution2: "<3,1> All Upper Case in Latin lookup 1 subtable" Ograve
EndChar

StartChar: ocircumflex
Encoding: 244 244 123
Width: 600
Flags: W
LayerCount: 2
Fore
SplineSet
412 656 m 1,0,-1
 344 588 l 1,1,-1
 250 681 l 1,2,-1
 156 588 l 1,3,-1
 87 656 l 1,4,-1
 250 819 l 1,5,-1
 412 656 l 1,0,-1
500 200 m 2,6,7
 500 118 500 118 441 59 c 128,-1,8
 382 0 382 0 300 0 c 2,9,-1
 200 0 l 2,10,11
 118 0 118 0 59 59 c 128,-1,12
 0 118 0 118 0 200 c 2,13,-1
 0 300 l 2,14,15
 0 382 0 382 59 441 c 128,-1,16
 118 500 118 500 200 500 c 2,17,-1
 300 500 l 2,18,19
 382 500 382 500 441 441 c 128,-1,20
 500 382 500 382 500 300 c 2,21,-1
 500 200 l 2,6,7
400 200 m 2,22,-1
 400 300 l 2,23,24
 400 341 400 341 370.5 370.5 c 128,-1,25
 341 400 341 400 300 400 c 2,26,-1
 200 400 l 2,27,28
 159 400 159 400 129.5 370.5 c 128,-1,29
 100 341 100 341 100 300 c 2,30,-1
 100 200 l 2,31,32
 100 159 100 159 129.5 129.5 c 128,-1,33
 159 100 159 100 200 100 c 2,34,-1
 300 100 l 2,35,36
 341 100 341 100 370.5 129.5 c 128,-1,37
 400 159 400 159 400 200 c 2,22,-1
EndSplineSet
Substitution2: "<9,0> Compose Diacritics in Latin lookup 8 nested-substitutions 6 subtable" <Delete>
Substitution2: "<9,0> Compose Diacritics in Latin lookup 8 nested-substitutions 5 subtable" <Delete>
Substitution2: "<9,0> Compose Diacritics in Latin lookup 8 nested-substitutions 4 subtable" <Delete>
Substitution2: "<9,0> Compose Diacritics in Latin lookup 8 nested-substitutions 3 subtable" <Delete>
Substitution2: "<9,0> Compose Diacritics in Latin lookup 8 nested-substitutions 2 subtable" <Delete>
Substitution2: "<9,0> Compose Diacritics in Latin lookup 8 nested-substitutions 0 subtable" <Delete>
Substitution2: "<3,4> Initial Caps in Latin lookup 3 nested-substitutions 0 subtable" Ocircumflex
Substitution2: "<3,1> All Upper Case in Latin lookup 1 subtable" Ocircumflex
EndChar

StartChar: odieresis
Encoding: 246 246 124
Width: 600
Flags: W
LayerCount: 2
Fore
SplineSet
400 650 m 256,0,1
 400 629 400 629 385.5 614.5 c 128,-1,2
 371 600 371 600 350 600 c 256,3,4
 329 600 329 600 314.5 614.5 c 128,-1,5
 300 629 300 629 300 650 c 256,6,7
 300 671 300 671 314.5 685.5 c 128,-1,8
 329 700 329 700 350 700 c 256,9,10
 371 700 371 700 385.5 685.5 c 128,-1,11
 400 671 400 671 400 650 c 256,0,1
200 650 m 256,12,13
 200 629 200 629 185.5 614.5 c 128,-1,14
 171 600 171 600 150 600 c 256,15,16
 129 600 129 600 114.5 614.5 c 128,-1,17
 100 629 100 629 100 650 c 256,18,19
 100 671 100 671 114.5 685.5 c 128,-1,20
 129 700 129 700 150 700 c 256,21,22
 171 700 171 700 185.5 685.5 c 128,-1,23
 200 671 200 671 200 650 c 256,12,13
500 200 m 2,24,25
 500 118 500 118 441 59 c 128,-1,26
 382 0 382 0 300 0 c 2,27,-1
 200 0 l 2,28,29
 118 0 118 0 59 59 c 128,-1,30
 0 118 0 118 0 200 c 2,31,-1
 0 300 l 2,32,33
 0 382 0 382 59 441 c 128,-1,34
 118 500 118 500 200 500 c 2,35,-1
 300 500 l 2,36,37
 382 500 382 500 441 441 c 128,-1,38
 500 382 500 382 500 300 c 2,39,-1
 500 200 l 2,24,25
400 200 m 2,40,-1
 400 300 l 2,41,42
 400 341 400 341 370.5 370.5 c 128,-1,43
 341 400 341 400 300 400 c 2,44,-1
 200 400 l 2,45,46
 159 400 159 400 129.5 370.5 c 128,-1,47
 100 341 100 341 100 300 c 2,48,-1
 100 200 l 2,49,50
 100 159 100 159 129.5 129.5 c 128,-1,51
 159 100 159 100 200 100 c 2,52,-1
 300 100 l 2,53,54
 341 100 341 100 370.5 129.5 c 128,-1,55
 400 159 400 159 400 200 c 2,40,-1
EndSplineSet
Substitution2: "<9,0> Compose Diacritics in Latin lookup 8 nested-substitutions 6 subtable" <Delete>
Substitution2: "<9,0> Compose Diacritics in Latin lookup 8 nested-substitutions 5 subtable" <Delete>
Substitution2: "<9,0> Compose Diacritics in Latin lookup 8 nested-substitutions 4 subtable" <Delete>
Substitution2: "<9,0> Compose Diacritics in Latin lookup 8 nested-substitutions 3 subtable" <Delete>
Substitution2: "<9,0> Compose Diacritics in Latin lookup 8 nested-substitutions 2 subtable" <Delete>
Substitution2: "<9,0> Compose Diacritics in Latin lookup 8 nested-substitutions 0 subtable" <Delete>
Substitution2: "<3,4> Initial Caps in Latin lookup 3 nested-substitutions 0 subtable" Odieresis
Substitution2: "<3,1> All Upper Case in Latin lookup 1 subtable" Odieresis
EndChar

StartChar: otilde
Encoding: 245 245 125
Width: 600
Flags: W
LayerCount: 2
Fore
SplineSet
500 750 m 2,0,1
 500 688 500 688 456 644 c 128,-1,2
 412 600 412 600 350 600 c 256,3,4
 288 600 288 600 250 638 c 0,5,6
 188 700 188 700 150 700 c 0,7,8
 129 700 129 700 114.5 685.5 c 128,-1,9
 100 671 100 671 100 650 c 2,10,-1
 100 600 l 1,11,-1
 0 600 l 1,12,-1
 0 650 l 2,13,14
 0 712 0 712 44 756 c 128,-1,15
 88 800 88 800 150 800 c 0,16,17
 213 800 213 800 250 763 c 0,18,19
 313 700 313 700 350 700 c 0,20,21
 371 700 371 700 385.5 714.5 c 128,-1,22
 400 729 400 729 400 750 c 2,23,-1
 400 800 l 1,24,-1
 500 800 l 1,25,-1
 500 750 l 2,0,1
500 200 m 2,26,27
 500 118 500 118 441 59 c 128,-1,28
 382 0 382 0 300 0 c 2,29,-1
 200 0 l 2,30,31
 118 0 118 0 59 59 c 128,-1,32
 0 118 0 118 0 200 c 2,33,-1
 0 300 l 2,34,35
 0 382 0 382 59 441 c 128,-1,36
 118 500 118 500 200 500 c 2,37,-1
 300 500 l 2,38,39
 382 500 382 500 441 441 c 128,-1,40
 500 382 500 382 500 300 c 2,41,-1
 500 200 l 2,26,27
400 200 m 2,42,-1
 400 300 l 2,43,44
 400 341 400 341 370.5 370.5 c 128,-1,45
 341 400 341 400 300 400 c 2,46,-1
 200 400 l 2,47,48
 159 400 159 400 129.5 370.5 c 128,-1,49
 100 341 100 341 100 300 c 2,50,-1
 100 200 l 2,51,52
 100 159 100 159 129.5 129.5 c 128,-1,53
 159 100 159 100 200 100 c 2,54,-1
 300 100 l 2,55,56
 341 100 341 100 370.5 129.5 c 128,-1,57
 400 159 400 159 400 200 c 2,42,-1
EndSplineSet
Substitution2: "<9,0> Compose Diacritics in Latin lookup 8 nested-substitutions 6 subtable" aacute
Substitution2: "<9,0> Compose Diacritics in Latin lookup 8 nested-substitutions 5 subtable" <Delete>
Substitution2: "<9,0> Compose Diacritics in Latin lookup 8 nested-substitutions 4 subtable" <Delete>
Substitution2: "<9,0> Compose Diacritics in Latin lookup 8 nested-substitutions 3 subtable" aring
Substitution2: "<9,0> Compose Diacritics in Latin lookup 8 nested-substitutions 2 subtable" edieresis
Substitution2: "<9,0> Compose Diacritics in Latin lookup 8 nested-substitutions 0 subtable" <Delete>
Substitution2: "<3,4> Initial Caps in Latin lookup 3 nested-substitutions 0 subtable" Otilde
Substitution2: "<3,1> All Upper Case in Latin lookup 1 subtable" Otilde
EndChar

StartChar: uacute
Encoding: 250 250 126
Width: 600
Flags: W
LayerCount: 2
Fore
SplineSet
419 750 m 1,0,-1
 256 588 l 1,1,-1
 187 656 l 1,2,-1
 350 819 l 1,3,-1
 419 750 l 1,0,-1
400 0 m 1,4,-1
 400 138 l 1,5,-1
 338 75 l 2,6,7
 263 0 263 0 200 0 c 0,8,9
 117 0 117 0 58.5 58.5 c 128,-1,10
 0 117 0 117 0 200 c 2,11,-1
 0 500 l 1,12,-1
 100 500 l 1,13,-1
 100 200 l 2,14,15
 100 159 100 159 129.5 129.5 c 128,-1,16
 159 100 159 100 200 100 c 0,17,18
 250 100 250 100 300 150 c 2,19,-1
 400 250 l 1,20,-1
 400 500 l 1,21,-1
 500 500 l 1,22,-1
 500 0 l 1,23,-1
 400 0 l 1,4,-1
EndSplineSet
Substitution2: "<9,0> Compose Diacritics in Latin lookup 8 nested-substitutions 6 subtable" <Delete>
Substitution2: "<9,0> Compose Diacritics in Latin lookup 8 nested-substitutions 5 subtable" <Delete>
Substitution2: "<9,0> Compose Diacritics in Latin lookup 8 nested-substitutions 4 subtable" <Delete>
Substitution2: "<9,0> Compose Diacritics in Latin lookup 8 nested-substitutions 3 subtable" <Delete>
Substitution2: "<9,0> Compose Diacritics in Latin lookup 8 nested-substitutions 2 subtable" <Delete>
Substitution2: "<9,0> Compose Diacritics in Latin lookup 8 nested-substitutions 0 subtable" <Delete>
Substitution2: "<3,4> Initial Caps in Latin lookup 3 nested-substitutions 0 subtable" Uacute
Substitution2: "<3,1> All Upper Case in Latin lookup 1 subtable" Uacute
EndChar

StartChar: ugrave
Encoding: 249 249 127
Width: 600
Flags: W
LayerCount: 2
Fore
SplineSet
312 656 m 1,0,-1
 244 588 l 1,1,-1
 81 750 l 1,2,-1
 150 819 l 1,3,-1
 312 656 l 1,0,-1
400 0 m 1,4,-1
 400 138 l 1,5,-1
 338 75 l 2,6,7
 263 0 263 0 200 0 c 0,8,9
 117 0 117 0 58.5 58.5 c 128,-1,10
 0 117 0 117 0 200 c 2,11,-1
 0 500 l 1,12,-1
 100 500 l 1,13,-1
 100 200 l 2,14,15
 100 159 100 159 129.5 129.5 c 128,-1,16
 159 100 159 100 200 100 c 0,17,18
 250 100 250 100 300 150 c 2,19,-1
 400 250 l 1,20,-1
 400 500 l 1,21,-1
 500 500 l 1,22,-1
 500 0 l 1,23,-1
 400 0 l 1,4,-1
EndSplineSet
Substitution2: "<9,0> Compose Diacritics in Latin lookup 8 nested-substitutions 6 subtable" <Delete>
Substitution2: "<9,0> Compose Diacritics in Latin lookup 8 nested-substitutions 5 subtable" <Delete>
Substitution2: "<9,0> Compose Diacritics in Latin lookup 8 nested-substitutions 4 subtable" <Delete>
Substitution2: "<9,0> Compose Diacritics in Latin lookup 8 nested-substitutions 3 subtable" <Delete>
Substitution2: "<9,0> Compose Diacritics in Latin lookup 8 nested-substitutions 2 subtable" <Delete>
Substitution2: "<9,0> Compose Diacritics in Latin lookup 8 nested-substitutions 0 subtable" <Delete>
Substitution2: "<3,4> Initial Caps in Latin lookup 3 nested-substitutions 0 subtable" Ugrave
Substitution2: "<3,1> All Upper Case in Latin lookup 1 subtable" Ugrave
EndChar

StartChar: ucircumflex
Encoding: 251 251 128
Width: 600
Flags: W
LayerCount: 2
Fore
SplineSet
412 650 m 1,0,-1
 344 581 l 1,1,-1
 250 675 l 1,2,-1
 156 581 l 1,3,-1
 87 650 l 1,4,-1
 250 813 l 1,5,-1
 412 650 l 1,0,-1
400 0 m 1,6,-1
 400 138 l 1,7,-1
 338 75 l 2,8,9
 263 0 263 0 200 0 c 0,10,11
 117 0 117 0 58.5 58.5 c 128,-1,12
 0 117 0 117 0 200 c 2,13,-1
 0 500 l 1,14,-1
 100 500 l 1,15,-1
 100 200 l 2,16,17
 100 159 100 159 129.5 129.5 c 128,-1,18
 159 100 159 100 200 100 c 0,19,20
 250 100 250 100 300 150 c 2,21,-1
 400 250 l 1,22,-1
 400 500 l 1,23,-1
 500 500 l 1,24,-1
 500 0 l 1,25,-1
 400 0 l 1,6,-1
EndSplineSet
Substitution2: "<9,0> Compose Diacritics in Latin lookup 8 nested-substitutions 6 subtable" <Delete>
Substitution2: "<9,0> Compose Diacritics in Latin lookup 8 nested-substitutions 5 subtable" <Delete>
Substitution2: "<9,0> Compose Diacritics in Latin lookup 8 nested-substitutions 4 subtable" <Delete>
Substitution2: "<9,0> Compose Diacritics in Latin lookup 8 nested-substitutions 3 subtable" <Delete>
Substitution2: "<9,0> Compose Diacritics in Latin lookup 8 nested-substitutions 2 subtable" <Delete>
Substitution2: "<9,0> Compose Diacritics in Latin lookup 8 nested-substitutions 0 subtable" <Delete>
Substitution2: "<3,4> Initial Caps in Latin lookup 3 nested-substitutions 0 subtable" Ucircumflex
Substitution2: "<3,1> All Upper Case in Latin lookup 1 subtable" Ucircumflex
EndChar

StartChar: udieresis
Encoding: 252 252 129
Width: 600
Flags: W
LayerCount: 2
Fore
SplineSet
400 650 m 256,0,1
 400 629 400 629 385.5 614.5 c 128,-1,2
 371 600 371 600 350 600 c 256,3,4
 329 600 329 600 314.5 614.5 c 128,-1,5
 300 629 300 629 300 650 c 256,6,7
 300 671 300 671 314.5 685.5 c 128,-1,8
 329 700 329 700 350 700 c 256,9,10
 371 700 371 700 385.5 685.5 c 128,-1,11
 400 671 400 671 400 650 c 256,0,1
200 650 m 256,12,13
 200 629 200 629 185.5 614.5 c 128,-1,14
 171 600 171 600 150 600 c 256,15,16
 129 600 129 600 114.5 614.5 c 128,-1,17
 100 629 100 629 100 650 c 256,18,19
 100 671 100 671 114.5 685.5 c 128,-1,20
 129 700 129 700 150 700 c 256,21,22
 171 700 171 700 185.5 685.5 c 128,-1,23
 200 671 200 671 200 650 c 256,12,13
400 0 m 1,24,-1
 400 138 l 1,25,-1
 338 75 l 2,26,27
 263 0 263 0 200 0 c 0,28,29
 117 0 117 0 58.5 58.5 c 128,-1,30
 0 117 0 117 0 200 c 2,31,-1
 0 500 l 1,32,-1
 100 500 l 1,33,-1
 100 200 l 2,34,35
 100 159 100 159 129.5 129.5 c 128,-1,36
 159 100 159 100 200 100 c 0,37,38
 250 100 250 100 300 150 c 2,39,-1
 400 250 l 1,40,-1
 400 500 l 1,41,-1
 500 500 l 1,42,-1
 500 0 l 1,43,-1
 400 0 l 1,24,-1
EndSplineSet
Substitution2: "<9,0> Compose Diacritics in Latin lookup 8 nested-substitutions 6 subtable" ecircumflex
Substitution2: "<9,0> Compose Diacritics in Latin lookup 8 nested-substitutions 5 subtable" <Delete>
Substitution2: "<9,0> Compose Diacritics in Latin lookup 8 nested-substitutions 4 subtable" oslash
Substitution2: "<9,0> Compose Diacritics in Latin lookup 8 nested-substitutions 3 subtable" egrave
Substitution2: "<9,0> Compose Diacritics in Latin lookup 8 nested-substitutions 2 subtable" idieresis
Substitution2: "<9,0> Compose Diacritics in Latin lookup 8 nested-substitutions 0 subtable" <Delete>
Substitution2: "<3,4> Initial Caps in Latin lookup 3 nested-substitutions 0 subtable" Udieresis
Substitution2: "<3,1> All Upper Case in Latin lookup 1 subtable" Udieresis
EndChar

StartChar: dagger
Encoding: 8224 8224 130
Width: 600
Flags: W
LayerCount: 2
Fore
SplineSet
400 500 m 1,0,-1
 300 500 l 1,1,-1
 300 200 l 1,2,-1
 200 200 l 1,3,-1
 200 500 l 1,4,-1
 100 500 l 1,5,-1
 100 600 l 1,6,-1
 200 600 l 1,7,-1
 200 700 l 1,8,-1
 300 700 l 1,9,-1
 300 600 l 1,10,-1
 400 600 l 1,11,-1
 400 500 l 1,0,-1
EndSplineSet
Substitution2: "<9,0> Compose Diacritics in Latin lookup 8 nested-substitutions 6 subtable" <Delete>
Substitution2: "<9,0> Compose Diacritics in Latin lookup 8 nested-substitutions 5 subtable" <Delete>
Substitution2: "<9,0> Compose Diacritics in Latin lookup 8 nested-substitutions 3 subtable" <Delete>
Substitution2: "<9,0> Compose Diacritics in Latin lookup 8 nested-substitutions 2 subtable" <Delete>
Substitution2: "<9,0> Compose Diacritics in Latin lookup 8 nested-substitutions 0 subtable" <Delete>
EndChar

StartChar: degree
Encoding: 176 176 131
Width: 600
Flags: W
LayerCount: 2
Fore
SplineSet
500 600 m 256,0,1
 500 518 500 518 441.5 459 c 128,-1,2
 383 400 383 400 300 400 c 0,3,4
 218 400 218 400 159 459 c 128,-1,5
 100 518 100 518 100 600 c 0,6,7
 100 683 100 683 159 741.5 c 128,-1,8
 218 800 218 800 300 800 c 256,9,10
 382 800 382 800 441 741 c 128,-1,11
 500 682 500 682 500 600 c 256,0,1
400 600 m 256,12,13
 400 641 400 641 370.5 670.5 c 128,-1,14
 341 700 341 700 300 700 c 256,15,16
 259 700 259 700 229.5 670.5 c 128,-1,17
 200 641 200 641 200 600 c 256,18,19
 200 559 200 559 229.5 529.5 c 128,-1,20
 259 500 259 500 300 500 c 256,21,22
 341 500 341 500 370.5 529.5 c 128,-1,23
 400 559 400 559 400 600 c 256,12,13
EndSplineSet
Substitution2: "<9,0> Compose Diacritics in Latin lookup 8 nested-substitutions 6 subtable" <Delete>
Substitution2: "<9,0> Compose Diacritics in Latin lookup 8 nested-substitutions 5 subtable" <Delete>
Substitution2: "<9,0> Compose Diacritics in Latin lookup 8 nested-substitutions 4 subtable" <Delete>
Substitution2: "<9,0> Compose Diacritics in Latin lookup 8 nested-substitutions 3 subtable" <Delete>
Substitution2: "<9,0> Compose Diacritics in Latin lookup 8 nested-substitutions 2 subtable" <Delete>
Substitution2: "<9,0> Compose Diacritics in Latin lookup 8 nested-substitutions 0 subtable" <Delete>
EndChar

StartChar: cent
Encoding: 162 162 132
Width: 600
Flags: W
LayerCount: 2
Fore
SplineSet
500 0 m 1,0,-1
 300 0 l 1,1,-1
 300 -100 l 1,2,-1
 200 -100 l 1,3,-1
 200 0 l 1,4,5
 118 0 118 0 59 59 c 128,-1,6
 0 118 0 118 0 200 c 2,7,-1
 0 300 l 2,8,9
 0 382 0 382 59 441 c 128,-1,10
 118 500 118 500 200 500 c 1,11,-1
 200 600 l 1,12,-1
 300 600 l 1,13,-1
 300 500 l 1,14,15
 382 500 382 500 441 441 c 128,-1,16
 500 382 500 382 500 300 c 1,17,-1
 400 300 l 1,18,19
 400 341 400 341 370.5 370.5 c 128,-1,20
 341 400 341 400 300 400 c 1,21,-1
 300 100 l 1,22,-1
 500 100 l 1,23,-1
 500 0 l 1,0,-1
200 100 m 1,24,-1
 200 400 l 1,25,26
 159 400 159 400 129.5 370.5 c 128,-1,27
 100 341 100 341 100 300 c 2,28,-1
 100 200 l 2,29,30
 100 159 100 159 129.5 129.5 c 128,-1,31
 159 100 159 100 200 100 c 1,24,-1
EndSplineSet
Substitution2: "<9,0> Compose Diacritics in Latin lookup 8 nested-substitutions 6 subtable" <Delete>
Substitution2: "<9,0> Compose Diacritics in Latin lookup 8 nested-substitutions 4 subtable" <Delete>
Substitution2: "<9,0> Compose Diacritics in Latin lookup 8 nested-substitutions 3 subtable" <Delete>
Substitution2: "<9,0> Compose Diacritics in Latin lookup 8 nested-substitutions 2 subtable" <Delete>
Substitution2: "<9,0> Compose Diacritics in Latin lookup 8 nested-substitutions 0 subtable" <Delete>
EndChar

StartChar: sterling
Encoding: 163 163 133
Width: 600
Flags: W
LayerCount: 2
Fore
SplineSet
500 200 m 1,0,1
 500 122 500 122 439 61 c 128,-1,2
 378 0 378 0 300 0 c 2,3,-1
 0 0 l 1,4,-1
 0 600 l 2,5,6
 0 682 0 682 59 741 c 128,-1,7
 118 800 118 800 200 800 c 256,8,9
 282 800 282 800 341 741 c 128,-1,10
 400 682 400 682 400 600 c 1,11,-1
 300 600 l 1,12,13
 300 641 300 641 270.5 670.5 c 128,-1,14
 241 700 241 700 200 700 c 256,15,16
 159 700 159 700 129.5 670.5 c 128,-1,17
 100 641 100 641 100 600 c 2,18,-1
 100 500 l 1,19,-1
 300 500 l 1,20,-1
 300 400 l 1,21,-1
 100 400 l 1,22,-1
 100 100 l 1,23,-1
 300 100 l 2,24,25
 336 100 336 100 368 132 c 128,-1,26
 400 164 400 164 400 200 c 1,27,-1
 500 200 l 1,0,1
EndSplineSet
Substitution2: "<9,0> Compose Diacritics in Latin lookup 8 nested-substitutions 6 subtable" icircumflex
Substitution2: "<9,0> Compose Diacritics in Latin lookup 8 nested-substitutions 5 subtable" <Delete>
Substitution2: "<9,0> Compose Diacritics in Latin lookup 8 nested-substitutions 4 subtable" <Delete>
Substitution2: "<9,0> Compose Diacritics in Latin lookup 8 nested-substitutions 3 subtable" igrave
Substitution2: "<9,0> Compose Diacritics in Latin lookup 8 nested-substitutions 2 subtable" <Delete>
Substitution2: "<9,0> Compose Diacritics in Latin lookup 8 nested-substitutions 0 subtable" <Delete>
EndChar

StartChar: section
Encoding: 167 167 134
Width: 600
Flags: W
LayerCount: 2
Fore
SplineSet
500 200 m 1,0,-1
 400 200 l 1,1,-1
 400 331 l 1,2,-1
 50 680 l 2,3,4
 28 702 28 702 28 734 c 0,5,6
 28 790 28 790 84.5 845 c 128,-1,7
 141 900 141 900 200 900 c 2,8,-1
 300 900 l 2,9,10
 383 900 383 900 441.5 841.5 c 128,-1,11
 500 783 500 783 500 700 c 0,12,13
 501 598 501 598 500 600 c 1,14,-1
 400 600 l 1,15,-1
 400 700 l 2,16,17
 400 741 400 741 370.5 770.5 c 128,-1,18
 341 800 341 800 300 800 c 2,19,-1
 188 800 l 2,20,21
 167 800 167 800 152.5 785.5 c 128,-1,22
 138 771 138 771 138 750 c 0,23,24
 138 736 138 736 144 726 c 1,25,-1
 500 369 l 1,26,-1
 500 200 l 1,0,-1
450 120 m 2,27,28
 472 98 472 98 472 66 c 0,29,30
 472 10 472 10 415.5 -45 c 128,-1,31
 359 -100 359 -100 300 -100 c 2,32,-1
 200 -100 l 2,33,34
 118 -100 118 -100 59 -41 c 128,-1,35
 0 18 0 18 0 100 c 2,36,-1
 0 200 l 1,37,-1
 100 200 l 1,38,-1
 100 100 l 2,39,40
 100 59 100 59 129.5 29.5 c 128,-1,41
 159 0 159 0 200 0 c 2,42,-1
 313 0 l 2,43,44
 333 0 333 0 348 14.5 c 128,-1,45
 363 29 363 29 363 50 c 0,46,47
 363 63 363 63 357 74 c 1,48,-1
 0 431 l 1,49,-1
 0 600 l 1,50,-1
 100 600 l 1,51,-1
 100 469 l 1,52,-1
 450 120 l 2,27,28
EndSplineSet
Substitution2: "<9,0> Compose Diacritics in Latin lookup 8 nested-substitutions 6 subtable" <Delete>
Substitution2: "<9,0> Compose Diacritics in Latin lookup 8 nested-substitutions 5 subtable" <Delete>
Substitution2: "<9,0> Compose Diacritics in Latin lookup 8 nested-substitutions 4 subtable" <Delete>
Substitution2: "<9,0> Compose Diacritics in Latin lookup 8 nested-substitutions 3 subtable" <Delete>
Substitution2: "<9,0> Compose Diacritics in Latin lookup 8 nested-substitutions 2 subtable" <Delete>
Substitution2: "<9,0> Compose Diacritics in Latin lookup 8 nested-substitutions 0 subtable" <Delete>
EndChar

StartChar: bullet
Encoding: 8226 8226 135
Width: 600
Flags: W
LayerCount: 2
Fore
SplineSet
500 350 m 256,0,1
 500 246 500 246 427 173 c 128,-1,2
 354 100 354 100 250 100 c 256,3,4
 146 100 146 100 73 173 c 128,-1,5
 0 246 0 246 0 350 c 256,6,7
 0 454 0 454 73.5 527 c 128,-1,8
 147 600 147 600 250 600 c 0,9,10
 354 600 354 600 427 527 c 128,-1,11
 500 454 500 454 500 350 c 256,0,1
EndSplineSet
Substitution2: "<9,0> Compose Diacritics in Latin lookup 8 nested-substitutions 6 subtable" <Delete>
Substitution2: "<9,0> Compose Diacritics in Latin lookup 8 nested-substitutions 5 subtable" <Delete>
Substitution2: "<9,0> Compose Diacritics in Latin lookup 8 nested-substitutions 4 subtable" <Delete>
Substitution2: "<9,0> Compose Diacritics in Latin lookup 8 nested-substitutions 3 subtable" <Delete>
Substitution2: "<9,0> Compose Diacritics in Latin lookup 8 nested-substitutions 2 subtable" odieresis
Substitution2: "<9,0> Compose Diacritics in Latin lookup 8 nested-substitutions 0 subtable" otilde
EndChar

StartChar: paragraph
Encoding: 182 182 136
Width: 600
Flags: W
LayerCount: 2
Fore
SplineSet
500 0 m 1,0,-1
 400 0 l 1,1,-1
 400 300 l 1,2,-1
 300 300 l 1,3,-1
 300 0 l 1,4,-1
 200 0 l 1,5,-1
 200 305 l 1,6,7
 114 322 114 322 57 391 c 128,-1,8
 0 460 0 460 0 550 c 0,9,10
 0 654 0 654 73 727 c 128,-1,11
 146 800 146 800 250 800 c 2,12,-1
 500 800 l 1,13,-1
 500 0 l 1,0,-1
400 400 m 1,14,-1
 400 700 l 1,15,-1
 300 700 l 1,16,-1
 300 400 l 1,17,-1
 400 400 l 1,14,-1
200 409 m 1,18,-1
 200 691 l 1,19,20
 156 675 156 675 128 636.5 c 128,-1,21
 100 598 100 598 100 550 c 256,22,23
 100 502 100 502 128 463 c 128,-1,24
 156 424 156 424 200 409 c 1,18,-1
EndSplineSet
Substitution2: "<9,0> Compose Diacritics in Latin lookup 8 nested-substitutions 6 subtable" <Delete>
Substitution2: "<9,0> Compose Diacritics in Latin lookup 8 nested-substitutions 5 subtable" <Delete>
Substitution2: "<9,0> Compose Diacritics in Latin lookup 8 nested-substitutions 4 subtable" <Delete>
Substitution2: "<9,0> Compose Diacritics in Latin lookup 8 nested-substitutions 3 subtable" <Delete>
Substitution2: "<9,0> Compose Diacritics in Latin lookup 8 nested-substitutions 2 subtable" <Delete>
Substitution2: "<9,0> Compose Diacritics in Latin lookup 8 nested-substitutions 0 subtable" Atilde
EndChar

StartChar: germandbls
Encoding: 223 223 137
Width: 600
Flags: W
LayerCount: 2
Fore
SplineSet
500 200 m 0,0,1
 500 117 500 117 441 58.5 c 128,-1,2
 382 0 382 0 300 0 c 2,3,-1
 200 0 l 1,4,-1
 200 100 l 1,5,-1
 300 100 l 2,6,7
 341 100 341 100 370.5 129.5 c 128,-1,8
 400 159 400 159 400 200 c 0,9,10
 400 259 400 259 350 288.5 c 128,-1,11
 300 318 300 318 300 375 c 2,12,-1
 300 425 l 2,13,14
 300 466 300 466 326 492 c 1,15,16
 350 513 350 513 374 534 c 1,17,18
 400 560 400 560 400 600 c 0,19,20
 400 641 400 641 370.5 670.5 c 128,-1,21
 341 700 341 700 300 700 c 0,22,23
 277 700 277 700 261 692 c 1,24,-1
 128 560 l 2,25,26
 100 532 100 532 100 491 c 2,27,-1
 100 -100 l 1,28,-1
 0 -100 l 1,29,-1
 0 506 l 2,30,31
 0 569 0 569 41 610 c 2,32,-1
 231 800 l 1,33,-1
 300 800 l 2,34,35
 383 800 383 800 441.5 741.5 c 128,-1,36
 500 683 500 683 500 600 c 0,37,38
 500 500 500 500 420 440 c 0,39,40
 400 425 400 425 400 400 c 0,41,42
 400 376 400 376 418 362 c 0,43,44
 500 298 500 298 500 200 c 0,0,1
EndSplineSet
Substitution2: "<9,0> Compose Diacritics in Latin lookup 8 nested-substitutions 6 subtable" <Delete>
Substitution2: "<9,0> Compose Diacritics in Latin lookup 8 nested-substitutions 5 subtable" <Delete>
Substitution2: "<9,0> Compose Diacritics in Latin lookup 8 nested-substitutions 4 subtable" <Delete>
Substitution2: "<9,0> Compose Diacritics in Latin lookup 8 nested-substitutions 3 subtable" <Delete>
Substitution2: "<9,0> Compose Diacritics in Latin lookup 8 nested-substitutions 2 subtable" <Delete>
Substitution2: "<9,0> Compose Diacritics in Latin lookup 8 nested-substitutions 0 subtable" <Delete>
EndChar

StartChar: registered
Encoding: 174 174 138
Width: 600
Flags: W
LayerCount: 2
Fore
SplineSet
500 275 m 2,0,1
 500 202 500 202 449 151 c 128,-1,2
 398 100 398 100 325 100 c 2,3,-1
 230 100 l 1,4,-1
 131 200 l 1,5,-1
 100 200 l 1,6,-1
 100 100 l 1,7,-1
 0 100 l 1,8,-1
 0 500 l 1,9,-1
 150 500 l 2,10,11
 212 500 212 500 256 456 c 128,-1,12
 300 412 300 412 300 350 c 0,13,14
 300 276 300 276 240 231 c 1,15,-1
 271 200 l 1,16,-1
 287 200 l 2,17,18
 334 200 334 200 367 233 c 128,-1,19
 400 266 400 266 400 313 c 2,20,-1
 400 350 l 2,21,22
 400 454 400 454 327 527 c 128,-1,23
 254 600 254 600 150 600 c 0,24,25
 68 600 68 600 0 550 c 1,26,-1
 0 666 l 1,27,28
 71 700 71 700 150 700 c 0,29,30
 295 700 295 700 397.5 597.5 c 128,-1,31
 500 495 500 495 500 350 c 2,32,-1
 500 275 l 2,0,1
200 350 m 256,33,34
 200 371 200 371 185.5 385.5 c 128,-1,35
 171 400 171 400 150 400 c 2,36,-1
 100 400 l 1,37,-1
 100 300 l 1,38,-1
 150 300 l 2,39,40
 171 300 171 300 185.5 314.5 c 128,-1,41
 200 329 200 329 200 350 c 256,33,34
EndSplineSet
Substitution2: "<9,0> Compose Diacritics in Latin lookup 8 nested-substitutions 6 subtable" <Delete>
Substitution2: "<9,0> Compose Diacritics in Latin lookup 8 nested-substitutions 5 subtable" <Delete>
Substitution2: "<9,0> Compose Diacritics in Latin lookup 8 nested-substitutions 4 subtable" <Delete>
Substitution2: "<9,0> Compose Diacritics in Latin lookup 8 nested-substitutions 3 subtable" <Delete>
Substitution2: "<9,0> Compose Diacritics in Latin lookup 8 nested-substitutions 2 subtable" <Delete>
Substitution2: "<9,0> Compose Diacritics in Latin lookup 8 nested-substitutions 0 subtable" <Delete>
EndChar

StartChar: copyright
Encoding: 169 169 139
Width: 600
Flags: W
LayerCount: 2
Fore
SplineSet
500 350 m 256,0,1
 500 205 500 205 397.5 102.5 c 128,-1,2
 295 0 295 0 150 0 c 0,3,4
 71 0 71 0 0 34 c 1,5,-1
 0 150 l 1,6,7
 66 100 66 100 150 100 c 0,8,9
 254 100 254 100 327 173 c 128,-1,10
 400 246 400 246 400 350 c 256,11,12
 400 454 400 454 327 527 c 128,-1,13
 254 600 254 600 150 600 c 0,14,15
 68 600 68 600 0 550 c 1,16,-1
 0 666 l 1,17,18
 71 700 71 700 150 700 c 0,19,20
 295 700 295 700 397.5 597.5 c 128,-1,21
 500 495 500 495 500 350 c 256,0,1
300 200 m 1,22,-1
 150 200 l 2,23,24
 88 200 88 200 44 244 c 128,-1,25
 0 288 0 288 0 350 c 256,26,27
 0 412 0 412 44 456 c 128,-1,28
 88 500 88 500 150 500 c 2,29,-1
 300 500 l 1,30,-1
 300 400 l 1,31,-1
 150 400 l 2,32,33
 129 400 129 400 114.5 385.5 c 128,-1,34
 100 371 100 371 100 350 c 256,35,36
 100 329 100 329 114.5 314.5 c 128,-1,37
 129 300 129 300 150 300 c 2,38,-1
 300 300 l 1,39,-1
 300 200 l 1,22,-1
EndSplineSet
Substitution2: "<9,0> Compose Diacritics in Latin lookup 8 nested-substitutions 6 subtable" ocircumflex
Substitution2: "<9,0> Compose Diacritics in Latin lookup 8 nested-substitutions 5 subtable" <Delete>
Substitution2: "<9,0> Compose Diacritics in Latin lookup 8 nested-substitutions 4 subtable" <Delete>
Substitution2: "<9,0> Compose Diacritics in Latin lookup 8 nested-substitutions 3 subtable" ograve
Substitution2: "<9,0> Compose Diacritics in Latin lookup 8 nested-substitutions 2 subtable" <Delete>
Substitution2: "<9,0> Compose Diacritics in Latin lookup 8 nested-substitutions 0 subtable" <Delete>
EndChar

StartChar: trademark
Encoding: 8482 8482 140
Width: 600
Flags: W
LayerCount: 2
Fore
SplineSet
600 400 m 1,0,-1
 500 400 l 1,1,-1
 500 550 l 1,2,-1
 450 450 l 1,3,-1
 400 550 l 1,4,-1
 400 400 l 1,5,-1
 300 400 l 1,6,-1
 300 600 l 1,7,-1
 200 600 l 1,8,-1
 200 400 l 1,9,-1
 100 400 l 1,10,-1
 100 600 l 1,11,-1
 0 600 l 1,12,-1
 0 700 l 1,13,-1
 400 700 l 1,14,-1
 450 600 l 1,15,-1
 500 700 l 1,16,-1
 600 700 l 1,17,-1
 600 400 l 1,0,-1
EndSplineSet
Substitution2: "<9,0> Compose Diacritics in Latin lookup 8 nested-substitutions 6 subtable" <Delete>
Substitution2: "<9,0> Compose Diacritics in Latin lookup 8 nested-substitutions 5 subtable" <Delete>
Substitution2: "<9,0> Compose Diacritics in Latin lookup 8 nested-substitutions 4 subtable" <Delete>
Substitution2: "<9,0> Compose Diacritics in Latin lookup 8 nested-substitutions 3 subtable" <Delete>
Substitution2: "<9,0> Compose Diacritics in Latin lookup 8 nested-substitutions 2 subtable" <Delete>
Substitution2: "<9,0> Compose Diacritics in Latin lookup 8 nested-substitutions 0 subtable" <Delete>
EndChar

StartChar: acute
Encoding: 180 180 141
Width: 600
Flags: W
LayerCount: 2
Fore
SplineSet
424 750 m 1,0,-1
 355 819 l 1,1,-1
 192 656 l 1,2,-1
 261 588 l 1,3,-1
 424 750 l 1,0,-1
EndSplineSet
Substitution2: "<9,0> Compose Diacritics in Latin lookup 8 nested-substitutions 6 subtable" <Delete>
Substitution2: "<9,0> Compose Diacritics in Latin lookup 8 nested-substitutions 5 subtable" <Delete>
Substitution2: "<9,0> Compose Diacritics in Latin lookup 8 nested-substitutions 4 subtable" <Delete>
Substitution2: "<9,0> Compose Diacritics in Latin lookup 8 nested-substitutions 3 subtable" <Delete>
Substitution2: "<9,0> Compose Diacritics in Latin lookup 8 nested-substitutions 2 subtable" udieresis
Substitution2: "<9,0> Compose Diacritics in Latin lookup 8 nested-substitutions 0 subtable" <Delete>
Substitution2: "<9,0> Compose Diacritics in Latin lookup 8 nested-substitutions 1 subtable" <Delete>
EndChar

StartChar: dieresis
Encoding: 168 168 142
Width: 600
Flags: W
LayerCount: 2
Fore
SplineSet
400 650 m 256,0,1
 400 629 400 629 385.5 614.5 c 128,-1,2
 371 600 371 600 350 600 c 256,3,4
 329 600 329 600 314.5 614.5 c 128,-1,5
 300 629 300 629 300 650 c 256,6,7
 300 671 300 671 314.5 685.5 c 128,-1,8
 329 700 329 700 350 700 c 256,9,10
 371 700 371 700 385.5 685.5 c 128,-1,11
 400 671 400 671 400 650 c 256,0,1
200 650 m 256,12,13
 200 629 200 629 185.5 614.5 c 128,-1,14
 171 600 171 600 150 600 c 256,15,16
 129 600 129 600 114.5 614.5 c 128,-1,17
 100 629 100 629 100 650 c 256,18,19
 100 671 100 671 114.5 685.5 c 128,-1,20
 129 700 129 700 150 700 c 256,21,22
 171 700 171 700 185.5 685.5 c 128,-1,23
 200 671 200 671 200 650 c 256,12,13
EndSplineSet
Substitution2: "<9,0> Compose Diacritics in Latin lookup 8 nested-substitutions 6 subtable" <Delete>
Substitution2: "<9,0> Compose Diacritics in Latin lookup 8 nested-substitutions 5 subtable" <Delete>
Substitution2: "<9,0> Compose Diacritics in Latin lookup 8 nested-substitutions 4 subtable" <Delete>
Substitution2: "<9,0> Compose Diacritics in Latin lookup 8 nested-substitutions 3 subtable" <Delete>
Substitution2: "<9,0> Compose Diacritics in Latin lookup 8 nested-substitutions 2 subtable" Acircumflex
Substitution2: "<9,0> Compose Diacritics in Latin lookup 8 nested-substitutions 0 subtable" <Delete>
Substitution2: "<9,0> Compose Diacritics in Latin lookup 8 nested-substitutions 1 subtable" <Delete>
EndChar

StartChar: AE
Encoding: 198 198 143
Width: 600
Flags: W
LayerCount: 2
Fore
SplineSet
500 0 m 1,0,-1
 200 0 l 1,1,-1
 200 300 l 1,2,-1
 100 300 l 1,3,-1
 100 0 l 1,4,-1
 0 0 l 1,5,-1
 0 500 l 2,6,7
 0 583 0 583 59 641.5 c 128,-1,8
 118 700 118 700 200 700 c 2,9,-1
 500 700 l 1,10,-1
 500 600 l 1,11,-1
 300 600 l 1,12,-1
 300 400 l 1,13,-1
 400 400 l 1,14,-1
 400 300 l 1,15,-1
 300 300 l 1,16,-1
 300 100 l 1,17,-1
 500 100 l 1,18,-1
 500 0 l 1,0,-1
200 400 m 1,19,-1
 200 600 l 1,20,21
 159 600 159 600 129.5 570.5 c 128,-1,22
 100 541 100 541 100 500 c 2,23,-1
 100 400 l 1,24,-1
 200 400 l 1,19,-1
EndSplineSet
Substitution2: "<9,0> Compose Diacritics in Latin lookup 8 nested-substitutions 6 subtable" <Delete>
Substitution2: "<9,0> Compose Diacritics in Latin lookup 8 nested-substitutions 5 subtable" <Delete>
Substitution2: "<9,0> Compose Diacritics in Latin lookup 8 nested-substitutions 4 subtable" <Delete>
Substitution2: "<9,0> Compose Diacritics in Latin lookup 8 nested-substitutions 3 subtable" <Delete>
Substitution2: "<9,0> Compose Diacritics in Latin lookup 8 nested-substitutions 2 subtable" <Delete>
Substitution2: "<9,0> Compose Diacritics in Latin lookup 8 nested-substitutions 0 subtable" <Delete>
Ligature2: "<1,10> Diphthong Ligatures in Latin lookup 7 subtable" A e
Ligature2: "<1,10> Diphthong Ligatures in Latin lookup 7 subtable" A E
Substitution2: "<3,4> Initial Caps in Latin lookup 3 nested-substitutions 0 subtable" ae
Substitution2: "<3,2> All Lower Case in Latin lookup 2 subtable" ae
EndChar

StartChar: Oslash
Encoding: 216 216 144
Width: 600
Flags: W
LayerCount: 2
Fore
SplineSet
500 200 m 2,0,1
 500 118 500 118 441 59 c 128,-1,2
 382 0 382 0 300 0 c 2,3,-1
 200 0 l 2,4,5
 118 0 118 0 59 59 c 128,-1,6
 0 118 0 118 0 200 c 2,7,-1
 0 500 l 2,8,9
 0 582 0 582 59 641 c 128,-1,10
 118 700 118 700 200 700 c 2,11,-1
 300 700 l 2,12,13
 382 700 382 700 441 641 c 128,-1,14
 500 582 500 582 500 500 c 2,15,-1
 500 200 l 2,0,1
385 554 m 1,16,17
 355 600 355 600 300 600 c 2,18,-1
 200 600 l 2,19,20
 159 600 159 600 129.5 570.5 c 128,-1,21
 100 541 100 541 100 500 c 2,22,-1
 100 269 l 1,23,-1
 385 554 l 1,16,17
400 200 m 2,24,-1
 400 429 l 1,25,-1
 117 146 l 1,26,27
 147 100 147 100 200 100 c 2,28,-1
 300 100 l 2,29,30
 341 100 341 100 370.5 129.5 c 128,-1,31
 400 159 400 159 400 200 c 2,24,-1
EndSplineSet
Substitution2: "<9,0> Compose Diacritics in Latin lookup 8 nested-substitutions 6 subtable" <Delete>
Substitution2: "<9,0> Compose Diacritics in Latin lookup 8 nested-substitutions 5 subtable" <Delete>
Substitution2: "<9,0> Compose Diacritics in Latin lookup 8 nested-substitutions 4 subtable" <Delete>
Substitution2: "<9,0> Compose Diacritics in Latin lookup 8 nested-substitutions 3 subtable" <Delete>
Substitution2: "<9,0> Compose Diacritics in Latin lookup 8 nested-substitutions 2 subtable" <Delete>
Substitution2: "<9,0> Compose Diacritics in Latin lookup 8 nested-substitutions 0 subtable" <Delete>
Substitution2: "<3,4> Initial Caps in Latin lookup 3 nested-substitutions 0 subtable" oslash
Substitution2: "<3,2> All Lower Case in Latin lookup 2 subtable" oslash
EndChar

StartChar: plusminus
Encoding: 177 177 145
Width: 600
Flags: W
LayerCount: 2
Fore
SplineSet
500 0 m 1,0,-1
 0 0 l 1,1,-1
 0 100 l 1,2,-1
 200 100 l 1,3,-1
 200 300 l 1,4,-1
 0 300 l 1,5,-1
 0 400 l 1,6,-1
 200 400 l 1,7,-1
 200 600 l 1,8,-1
 300 600 l 1,9,-1
 300 400 l 1,10,-1
 500 400 l 1,11,-1
 500 300 l 1,12,-1
 300 300 l 1,13,-1
 300 100 l 1,14,-1
 500 100 l 1,15,-1
 500 0 l 1,0,-1
EndSplineSet
Substitution2: "<9,0> Compose Diacritics in Latin lookup 8 nested-substitutions 6 subtable" ucircumflex
Substitution2: "<9,0> Compose Diacritics in Latin lookup 8 nested-substitutions 5 subtable" <Delete>
Substitution2: "<9,0> Compose Diacritics in Latin lookup 8 nested-substitutions 4 subtable" <Delete>
Substitution2: "<9,0> Compose Diacritics in Latin lookup 8 nested-substitutions 3 subtable" ugrave
Substitution2: "<9,0> Compose Diacritics in Latin lookup 8 nested-substitutions 2 subtable" <Delete>
Substitution2: "<9,0> Compose Diacritics in Latin lookup 8 nested-substitutions 0 subtable" <Delete>
EndChar

StartChar: yen
Encoding: 165 165 146
Width: 600
Flags: W
LayerCount: 2
Fore
SplineSet
537 650 m 1,0,-1
 387 500 l 1,1,-1
 519 500 l 1,2,-1
 519 400 l 1,3,-1
 319 400 l 1,4,-1
 319 300 l 1,5,-1
 519 300 l 1,6,-1
 519 200 l 1,7,-1
 319 200 l 1,8,-1
 319 0 l 1,9,-1
 219 0 l 1,10,-1
 219 200 l 1,11,-1
 19 200 l 1,12,-1
 19 300 l 1,13,-1
 219 300 l 1,14,-1
 219 400 l 1,15,-1
 19 400 l 1,16,-1
 19 500 l 1,17,-1
 150 500 l 1,18,-1
 0 650 l 1,19,-1
 69 719 l 1,20,-1
 269 519 l 1,21,-1
 469 719 l 1,22,-1
 537 650 l 1,0,-1
EndSplineSet
Substitution2: "<9,0> Compose Diacritics in Latin lookup 8 nested-substitutions 6 subtable" Agrave
Substitution2: "<9,0> Compose Diacritics in Latin lookup 8 nested-substitutions 5 subtable" <Delete>
Substitution2: "<9,0> Compose Diacritics in Latin lookup 8 nested-substitutions 4 subtable" <Delete>
Substitution2: "<9,0> Compose Diacritics in Latin lookup 8 nested-substitutions 3 subtable" <Delete>
Substitution2: "<9,0> Compose Diacritics in Latin lookup 8 nested-substitutions 2 subtable" <Delete>
Substitution2: "<9,0> Compose Diacritics in Latin lookup 8 nested-substitutions 0 subtable" <Delete>
EndChar

StartChar: mu
Encoding: 181 181 147
AltUni2: 0003bc.ffffffff.0
Width: 600
Flags: W
LayerCount: 2
Fore
SplineSet
500 0 m 1,0,1
 410 0 410 0 350 68 c 1,2,3
 292 0 292 0 200 0 c 2,4,-1
 100 0 l 1,5,-1
 100 -200 l 1,6,-1
 0 -200 l 1,7,-1
 0 500 l 1,8,-1
 100 500 l 1,9,-1
 100 100 l 1,10,-1
 200 100 l 2,11,12
 241 100 241 100 270.5 129.5 c 128,-1,13
 300 159 300 159 300 200 c 2,14,-1
 300 500 l 1,15,-1
 400 500 l 1,16,-1
 400 200 l 2,17,18
 400 159 400 159 429.5 129.5 c 128,-1,19
 459 100 459 100 500 100 c 1,20,-1
 500 0 l 1,0,1
0 -200 m 0,21,-1
EndSplineSet
Substitution2: "<9,0> Compose Diacritics in Latin lookup 8 nested-substitutions 6 subtable" <Delete>
Substitution2: "<9,0> Compose Diacritics in Latin lookup 8 nested-substitutions 5 subtable" <Delete>
Substitution2: "<9,0> Compose Diacritics in Latin lookup 8 nested-substitutions 4 subtable" <Delete>
Substitution2: "<9,0> Compose Diacritics in Latin lookup 8 nested-substitutions 3 subtable" <Delete>
Substitution2: "<9,0> Compose Diacritics in Latin lookup 8 nested-substitutions 2 subtable" <Delete>
Substitution2: "<9,0> Compose Diacritics in Latin lookup 8 nested-substitutions 0 subtable" <Delete>
EndChar

StartChar: ordfeminine
Encoding: 170 170 148
Width: 600
Flags: W
LayerCount: 2
Fore
SplineSet
500 500 m 1,0,-1
 300 500 l 2,1,2
 218 500 218 500 159 559 c 128,-1,3
 100 618 100 618 100 700 c 256,4,5
 100 782 100 782 159 841 c 128,-1,6
 218 900 218 900 300 900 c 2,7,-1
 500 900 l 1,8,-1
 500 500 l 1,0,-1
500 300 m 1,9,-1
 100 300 l 1,10,-1
 100 400 l 1,11,-1
 500 400 l 1,12,-1
 500 300 l 1,9,-1
400 600 m 1,13,-1
 400 800 l 1,14,-1
 300 800 l 2,15,16
 259 800 259 800 229.5 770.5 c 128,-1,17
 200 741 200 741 200 700 c 256,18,19
 200 659 200 659 229.5 629.5 c 128,-1,20
 259 600 259 600 300 600 c 2,21,-1
 400 600 l 1,13,-1
EndSplineSet
Substitution2: "<9,0> Compose Diacritics in Latin lookup 8 nested-substitutions 6 subtable" <Delete>
Substitution2: "<9,0> Compose Diacritics in Latin lookup 8 nested-substitutions 5 subtable" <Delete>
Substitution2: "<9,0> Compose Diacritics in Latin lookup 8 nested-substitutions 4 subtable" <Delete>
Substitution2: "<9,0> Compose Diacritics in Latin lookup 8 nested-substitutions 3 subtable" <Delete>
Substitution2: "<9,0> Compose Diacritics in Latin lookup 8 nested-substitutions 2 subtable" <Delete>
Substitution2: "<9,0> Compose Diacritics in Latin lookup 8 nested-substitutions 0 subtable" <Delete>
EndChar

